STARTFONT 2.1
COMMENT $Xorg: $
COMMENT ISO10646-1 extension by Markus Kuhn <mkuhn@acm.org>, 2001-03-20
COMMENT  (c) Copyright Bigelow & Holmes 1986, 1985. Lucida is a registered
COMMENT  trademark of Bigelow & Holmes. See LEGAL NOTICE file for terms 
COMMENT  of the license. 
FONT -B&H-Lucida-Medium-R-Normal-Sans-26-190-100-100-P-147-ISO10646-1
SIZE 19 100 100
FONTBOUNDINGBOX 43 39 -17 -10
STARTPROPERTIES 22
COMMENT Begin LogicalFontDescription
FONTNAME_REGISTRY ""
FOUNDRY "B&H"
FAMILY_NAME "Lucida"
WEIGHT_NAME "Medium"
SLANT "R"
SETWIDTH_NAME "Normal"
ADD_STYLE_NAME "Sans"
PIXEL_SIZE 26
POINT_SIZE 190
RESOLUTION_X 100
RESOLUTION_Y 100
SPACING "P"
AVERAGE_WIDTH 147
CHARSET_REGISTRY "ISO10646"
CHARSET_ENCODING "1"
COMMENT END LogicalFontDescription
COPYRIGHT "Copyright Bigelow & Holmes 1986, 1985."
FONT_ASCENT 24
FONT_DESCENT 6
DEFAULT_CHAR 0
FACE_NAME "Lucida Sans"
X_HEIGHT 14
CAP_HEIGHT 19
ENDPROPERTIES
CHARS 756
STARTCHAR char0
ENCODING 0
SWIDTH 735 0
DWIDTH 19 0
BBX 13 19 3 0
BITMAP
AAA8
0000
8008
0000
8008
0000
8008
0000
8008
0000
8008
0000
8008
0000
8008
0000
8008
0000
AAA8
ENDCHAR
STARTCHAR space
ENCODING 32
SWIDTH 316 0
DWIDTH 8 0
BBX 1 1 0 0
BITMAP
00
ENDCHAR
STARTCHAR exclam
ENCODING 33
SWIDTH 205 0
DWIDTH 8 0
BBX 2 19 3 0
BITMAP
C0
C0
C0
C0
C0
C0
C0
C0
C0
C0
C0
C0
C0
C0
00
00
C0
C0
C0
ENDCHAR
STARTCHAR quotedbl
ENCODING 34
SWIDTH 373 0
DWIDTH 10 0
BBX 6 6 2 13
BITMAP
CC
CC
CC
CC
CC
CC
ENDCHAR
STARTCHAR numbersign
ENCODING 35
SWIDTH 633 0
DWIDTH 16 0
BBX 16 19 0 0
BITMAP
018C
0318
0318
0318
0338
7FFF
7FFF
0630
0630
0C60
0C60
FFFE
FFFE
1CC0
18C0
18C0
18C0
39C0
3180
ENDCHAR
STARTCHAR dollar
ENCODING 36
SWIDTH 633 0
DWIDTH 16 0
BBX 11 22 3 -2
BITMAP
0600
1FC0
3FE0
7620
6600
6600
6600
7600
3E00
1E00
0F00
0780
06C0
0660
0660
0660
0660
C6E0
FFC0
7F80
0600
0600
ENDCHAR
STARTCHAR percent
ENCODING 37
SWIDTH 669 0
DWIDTH 17 0
BBX 17 19 0 0
BITMAP
3C0380
7E0700
E70600
C30C00
C31C00
C33800
E73000
7E6000
3CE000
01DE00
03BF00
037380
066180
0E6180
1C6180
186180
307380
703F00
E01E00
ENDCHAR
STARTCHAR ampersand
ENCODING 38
SWIDTH 697 0
DWIDTH 18 0
BBX 16 19 1 0
BITMAP
03C0
07E0
0E30
0E30
0E30
0E70
07E0
07C0
1F00
3B87
7187
E1C7
E0E6
E07E
F03C
F03C
7C38
3FEC
0F8F
ENDCHAR
STARTCHAR quotesingle
ENCODING 39
SWIDTH 229 0
DWIDTH 6 0
BBX 4 6 1 13
BITMAP
F0
F0
F0
60
60
60
ENDCHAR
STARTCHAR parenleft
ENCODING 40
SWIDTH 325 0
DWIDTH 8 0
BBX 6 23 2 -4
BITMAP
04
0C
18
38
30
70
70
60
E0
E0
E0
E0
E0
E0
E0
60
70
70
30
38
18
0C
04
ENDCHAR
STARTCHAR parenright
ENCODING 41
SWIDTH 325 0
DWIDTH 8 0
BBX 6 23 1 -4
BITMAP
80
C0
60
70
30
38
38
18
1C
1C
1C
1C
1C
1C
1C
18
38
38
30
70
60
C0
80
ENDCHAR
STARTCHAR asterisk
ENCODING 42
SWIDTH 482 0
DWIDTH 13 0
BBX 10 9 1 10
BITMAP
0C00
0C00
4C40
EDC0
3300
0E00
1A00
7300
2180
ENDCHAR
STARTCHAR plus
ENCODING 43
SWIDTH 633 0
DWIDTH 16 0
BBX 16 16 0 0
BITMAP
0180
0180
0180
0180
0180
0180
0180
FFFF
FFFF
0180
0180
0180
0180
0180
0180
0180
ENDCHAR
STARTCHAR comma
ENCODING 44
SWIDTH 316 0
DWIDTH 8 0
BBX 3 9 3 -5
BITMAP
E0
E0
E0
E0
60
60
60
C0
80
ENDCHAR
STARTCHAR hyphen
ENCODING 45
SWIDTH 325 0
DWIDTH 8 0
BBX 6 2 1 7
BITMAP
FC
FC
ENDCHAR
STARTCHAR period
ENCODING 46
SWIDTH 316 0
DWIDTH 8 0
BBX 3 3 3 0
BITMAP
E0
E0
E0
ENDCHAR
STARTCHAR slash
ENCODING 47
SWIDTH 494 0
DWIDTH 13 0
BBX 13 23 0 -4
BITMAP
0018
0030
0030
0060
0060
00C0
00C0
0180
0180
0380
0300
0700
0600
0E00
0C00
0C00
1800
1800
3000
3000
6000
6000
C000
ENDCHAR
STARTCHAR zero
ENCODING 48
SWIDTH 633 0
DWIDTH 16 0
BBX 13 19 2 0
BITMAP
0F80
1FC0
38E0
7070
7070
E038
E038
E038
E038
E038
E038
E038
E038
E038
7070
7070
38E0
1FC0
0F80
ENDCHAR
STARTCHAR one
ENCODING 49
SWIDTH 633 0
DWIDTH 16 0
BBX 6 19 4 0
BITMAP
FC
FC
1C
1C
1C
1C
1C
1C
1C
1C
1C
1C
1C
1C
1C
1C
1C
1C
1C
ENDCHAR
STARTCHAR two
ENCODING 50
SWIDTH 633 0
DWIDTH 16 0
BBX 12 19 2 0
BITMAP
3F80
FFC0
E1E0
8070
0070
0070
0070
0060
00E0
01C0
0380
0F00
1C00
3800
3000
7000
E000
FFF0
FFF0
ENDCHAR
STARTCHAR three
ENCODING 51
SWIDTH 633 0
DWIDTH 16 0
BBX 11 19 3 0
BITMAP
7F00
FFC0
C1E0
00E0
00E0
00E0
00C0
0380
3E00
3F00
03C0
01E0
00E0
00E0
00E0
01E0
83C0
FF80
FF00
ENDCHAR
STARTCHAR four
ENCODING 52
SWIDTH 633 0
DWIDTH 16 0
BBX 14 19 1 0
BITMAP
00E0
00E0
01E0
03E0
0760
0660
0C60
1C60
1860
3060
7060
E060
FFFC
FFFC
0060
0060
0060
0060
0060
ENDCHAR
STARTCHAR five
ENCODING 53
SWIDTH 633 0
DWIDTH 16 0
BBX 10 19 3 0
BITMAP
FFC0
FFC0
C000
C000
C000
C000
C000
FC00
FF00
0780
03C0
01C0
01C0
01C0
01C0
03C0
8780
FF00
FC00
ENDCHAR
STARTCHAR six
ENCODING 54
SWIDTH 633 0
DWIDTH 16 0
BBX 13 19 2 0
BITMAP
07E0
1FF0
3C10
7800
7000
7000
E000
E7C0
EFE0
F8F0
F078
E038
E038
E038
6038
7070
38F0
1FE0
0F80
ENDCHAR
STARTCHAR seven
ENCODING 55
SWIDTH 633 0
DWIDTH 16 0
BBX 12 19 3 0
BITMAP
FFF0
FFF0
0070
0060
00E0
01C0
0180
0380
0300
0700
0E00
0E00
1C00
1C00
3800
3800
3800
7000
7000
ENDCHAR
STARTCHAR eight
ENCODING 56
SWIDTH 633 0
DWIDTH 16 0
BBX 13 19 2 0
BITMAP
07C0
1FE0
1870
3030
3030
3030
3860
1EC0
0F80
1FC0
3BF0
70F0
E078
E038
E038
E038
7070
3FE0
1F80
ENDCHAR
STARTCHAR nine
ENCODING 57
SWIDTH 633 0
DWIDTH 16 0
BBX 13 19 2 0
BITMAP
0F80
3FC0
78E0
7070
E030
E038
E038
E038
F078
78F8
3FB8
1F38
0038
0070
0070
0060
41E0
7FC0
7F00
ENDCHAR
STARTCHAR colon
ENCODING 58
SWIDTH 316 0
DWIDTH 8 0
BBX 3 14 3 0
BITMAP
E0
E0
E0
00
00
00
00
00
00
00
00
E0
E0
E0
ENDCHAR
STARTCHAR semicolon
ENCODING 59
SWIDTH 316 0
DWIDTH 8 0
BBX 3 19 3 -5
BITMAP
E0
E0
E0
00
00
00
00
00
00
00
00
E0
E0
E0
60
60
60
C0
80
ENDCHAR
STARTCHAR less
ENCODING 60
SWIDTH 633 0
DWIDTH 16 0
BBX 15 16 1 0
BITMAP
0002
000E
003E
00F8
01E0
0780
1E00
F800
7800
1E00
0780
01E0
00F8
003E
000E
0002
ENDCHAR
STARTCHAR equal
ENCODING 61
SWIDTH 633 0
DWIDTH 16 0
BBX 15 7 1 4
BITMAP
FFFE
FFFE
0000
0000
0000
FFFE
FFFE
ENDCHAR
STARTCHAR greater
ENCODING 62
SWIDTH 633 0
DWIDTH 16 0
BBX 15 16 1 0
BITMAP
8000
E000
F800
3E00
0F00
03C0
00F0
003C
003E
00F0
03C0
0F00
3E00
F800
E000
8000
ENDCHAR
STARTCHAR question
ENCODING 63
SWIDTH 422 0
DWIDTH 11 0
BBX 10 19 0 0
BITMAP
7E00
FF80
83C0
01C0
01C0
01C0
0380
0380
0700
0E00
0C00
1C00
1C00
1C00
0000
0000
1C00
1C00
1C00
ENDCHAR
STARTCHAR at
ENCODING 64
SWIDTH 858 0
DWIDTH 22 0
BBX 20 19 3 0
BITMAP
00FE00
03FF80
0783C0
1C00E0
187E60
30FC30
618430
630C30
C20C30
C61830
C63870
C63860
C64CE0
E7CFC0
630700
700000
3C0800
1FF800
07E000
ENDCHAR
STARTCHAR A
ENCODING 65
SWIDTH 690 0
DWIDTH 18 0
BBX 17 19 0 0
BITMAP
01C000
01E000
03E000
03E000
037000
067000
067000
063800
0C3800
0C3C00
1C1C00
181C00
1FFE00
3FFE00
300E00
700700
600700
600380
C00380
ENDCHAR
STARTCHAR B
ENCODING 66
SWIDTH 575 0
DWIDTH 15 0
BBX 11 19 3 0
BITMAP
FE00
FF80
E3C0
E1C0
E1C0
E1C0
E380
E380
FE00
FE00
E380
E1C0
E0E0
E0E0
E0E0
E0E0
E1C0
FFC0
FF00
ENDCHAR
STARTCHAR C
ENCODING 67
SWIDTH 692 0
DWIDTH 18 0
BBX 15 19 1 0
BITMAP
03FC
0FFE
3E06
3800
7000
7000
E000
E000
E000
E000
E000
E000
E000
7000
7000
3802
3E0E
1FFE
03F8
ENDCHAR
STARTCHAR D
ENCODING 68
SWIDTH 749 0
DWIDTH 19 0
BBX 16 19 2 0
BITMAP
FFC0
FFF0
E07C
E01C
E00E
E00E
E007
E007
E007
E007
E007
E007
E007
E00E
E00E
E01C
E078
FFF0
FFC0
ENDCHAR
STARTCHAR E
ENCODING 69
SWIDTH 542 0
DWIDTH 14 0
BBX 11 19 2 0
BITMAP
FFC0
FFC0
E000
E000
E000
E000
E000
E000
FF80
FF80
E000
E000
E000
E000
E000
E000
E000
FFE0
FFE0
ENDCHAR
STARTCHAR F
ENCODING 70
SWIDTH 536 0
DWIDTH 14 0
BBX 11 19 2 0
BITMAP
FFE0
FFE0
E000
E000
E000
E000
E000
E000
FFC0
FFC0
E000
E000
E000
E000
E000
E000
E000
E000
E000
ENDCHAR
STARTCHAR G
ENCODING 71
SWIDTH 723 0
DWIDTH 19 0
BBX 15 19 1 0
BITMAP
03FC
0FFE
3E06
3800
7000
7000
E000
E000
E000
E000
E00E
E00E
E00E
700E
700E
380E
3E0E
1FFE
07F8
ENDCHAR
STARTCHAR H
ENCODING 72
SWIDTH 735 0
DWIDTH 19 0
BBX 14 19 3 0
BITMAP
E01C
E01C
E01C
E01C
E01C
E01C
E01C
E01C
FFFC
FFFC
E01C
E01C
E01C
E01C
E01C
E01C
E01C
E01C
E01C
ENDCHAR
STARTCHAR I
ENCODING 73
SWIDTH 288 0
DWIDTH 7 0
BBX 3 19 2 0
BITMAP
E0
E0
E0
E0
E0
E0
E0
E0
E0
E0
E0
E0
E0
E0
E0
E0
E0
E0
E0
ENDCHAR
STARTCHAR J
ENCODING 74
SWIDTH 311 0
DWIDTH 8 0
BBX 8 23 -1 -4
BITMAP
07
07
07
07
07
07
07
07
07
07
07
07
07
07
07
07
07
07
07
07
8E
FC
F8
ENDCHAR
STARTCHAR K
ENCODING 75
SWIDTH 653 0
DWIDTH 17 0
BBX 14 19 2 0
BITMAP
E038
E070
E0E0
E0C0
E180
E380
E700
EE00
EC00
FE00
EE00
EF00
E780
E3C0
E1E0
E0E0
E0F0
E078
E03C
ENDCHAR
STARTCHAR L
ENCODING 76
SWIDTH 533 0
DWIDTH 14 0
BBX 11 19 2 0
BITMAP
E000
E000
E000
E000
E000
E000
E000
E000
E000
E000
E000
E000
E000
E000
E000
E000
E000
FFE0
FFE0
ENDCHAR
STARTCHAR M
ENCODING 77
SWIDTH 861 0
DWIDTH 22 0
BBX 18 19 2 0
BITMAP
F003C0
F003C0
F807C0
F807C0
F807C0
DC0DC0
DC0DC0
DE0DC0
CE19C0
CE19C0
CF39C0
C731C0
C731C0
C3E1C0
C3E1C0
C3E1C0
C1C1C0
C1C1C0
C001C0
ENDCHAR
STARTCHAR N
ENCODING 78
SWIDTH 741 0
DWIDTH 19 0
BBX 14 19 3 0
BITMAP
E00C
F00C
F00C
F80C
FC0C
DC0C
DE0C
CF0C
C70C
C78C
C38C
C1CC
C1EC
C0EC
C0FC
C07C
C03C
C03C
C01C
ENDCHAR
STARTCHAR O
ENCODING 79
SWIDTH 777 0
DWIDTH 20 0
BBX 18 19 1 0
BITMAP
03F000
0FFC00
1E1E00
380700
700380
700380
E001C0
E001C0
E001C0
E001C0
E001C0
E001C0
E001C0
700380
700380
380700
1C0E00
0FFC00
03F000
ENDCHAR
STARTCHAR P
ENCODING 80
SWIDTH 553 0
DWIDTH 14 0
BBX 11 19 3 0
BITMAP
FF80
FFC0
E1E0
E0E0
E0E0
E0E0
E0E0
E1E0
E3C0
FF80
FE00
E000
E000
E000
E000
E000
E000
E000
E000
ENDCHAR
STARTCHAR Q
ENCODING 81
SWIDTH 777 0
DWIDTH 20 0
BBX 20 23 1 -4
BITMAP
03F000
0FFC00
1E1E00
380700
700380
700380
E001C0
E001C0
E001C0
E001C0
E001C0
E001C0
E001C0
700380
700380
380700
1C0F00
0FFC00
03FC00
001F00
0007F0
0001E0
000060
ENDCHAR
STARTCHAR R
ENCODING 82
SWIDTH 633 0
DWIDTH 16 0
BBX 13 19 3 0
BITMAP
FF00
FFC0
E1E0
E0E0
E0E0
E0E0
E0E0
E1C0
E380
FF00
FF00
E700
E380
E3C0
E1C0
E1E0
E0F0
E070
E078
ENDCHAR
STARTCHAR S
ENCODING 83
SWIDTH 539 0
DWIDTH 14 0
BBX 11 19 1 0
BITMAP
1F80
7FC0
70C0
E000
E000
E000
F000
7C00
3E00
1F80
07C0
03C0
01E0
00E0
00E0
00E0
C1C0
FF80
7F00
ENDCHAR
STARTCHAR T
ENCODING 84
SWIDTH 633 0
DWIDTH 16 0
BBX 17 19 0 0
BITMAP
FFFF80
FFFF80
01C000
01C000
01C000
01C000
01C000
01C000
01C000
01C000
01C000
01C000
01C000
01C000
01C000
01C000
01C000
01C000
01C000
ENDCHAR
STARTCHAR U
ENCODING 85
SWIDTH 693 0
DWIDTH 18 0
BBX 13 19 3 0
BITMAP
E018
E018
E018
E018
E018
E018
E018
E018
E018
E018
E018
E018
E018
E018
E018
7038
7870
3FE0
1FC0
ENDCHAR
STARTCHAR V
ENCODING 86
SWIDTH 654 0
DWIDTH 17 0
BBX 16 19 1 0
BITMAP
E003
E006
7006
7006
700C
380C
380C
3C18
1C18
1C18
1E30
0E30
0E70
0760
0760
07C0
03C0
03C0
0380
ENDCHAR
STARTCHAR W
ENCODING 87
SWIDTH 855 0
DWIDTH 22 0
BBX 22 19 0 0
BITMAP
E0380C
E0781C
E07818
707818
707C18
707C30
70DC30
38DC30
38DE30
38CE60
398E60
1D8E60
1D8EE0
1D87C0
1F87C0
0F07C0
0F0780
0F0380
0F0380
ENDCHAR
STARTCHAR X
ENCODING 88
SWIDTH 626 0
DWIDTH 16 0
BBX 15 19 0 0
BITMAP
F00E
701C
3818
3C38
1C30
1E60
0FE0
07C0
0780
03C0
07C0
07E0
0EE0
0CF0
1878
3838
303C
601C
E01E
ENDCHAR
STARTCHAR Y
ENCODING 89
SWIDTH 623 0
DWIDTH 16 0
BBX 16 19 0 0
BITMAP
E007
7006
780C
381C
3C18
1C30
1E30
0F60
07E0
07C0
0380
0380
0380
0380
0380
0380
0380
0380
0380
ENDCHAR
STARTCHAR Z
ENCODING 90
SWIDTH 605 0
DWIDTH 16 0
BBX 13 19 1 0
BITMAP
7FF8
7FF8
0078
0070
00F0
01E0
01C0
03C0
0780
0700
0F00
1E00
1C00
3C00
7800
7000
F000
FFF8
FFF8
ENDCHAR
STARTCHAR bracketleft
ENCODING 91
SWIDTH 325 0
DWIDTH 8 0
BBX 5 23 3 -4
BITMAP
F8
F8
C0
C0
C0
C0
C0
C0
C0
C0
C0
C0
C0
C0
C0
C0
C0
C0
C0
C0
C0
F8
F8
ENDCHAR
STARTCHAR backslash
ENCODING 92
SWIDTH 494 0
DWIDTH 13 0
BBX 13 23 0 -4
BITMAP
C000
6000
6000
3000
3000
1800
1800
0C00
0C00
0E00
0600
0700
0300
0380
0180
0180
00C0
00C0
0060
0060
0030
0030
0018
ENDCHAR
STARTCHAR bracketright
ENCODING 93
SWIDTH 325 0
DWIDTH 8 0
BBX 5 23 1 -4
BITMAP
F8
F8
18
18
18
18
18
18
18
18
18
18
18
18
18
18
18
18
18
18
18
F8
F8
ENDCHAR
STARTCHAR asciicircum
ENCODING 94
SWIDTH 633 0
DWIDTH 16 0
BBX 15 16 1 3
BITMAP
0100
0100
0380
0380
07C0
06C0
0EE0
0C60
1C70
1830
1830
3018
3018
600C
600C
C006
ENDCHAR
STARTCHAR underscore
ENCODING 95
SWIDTH 500 0
DWIDTH 13 0
BBX 11 2 1 -2
BITMAP
FFE0
FFE0
ENDCHAR
STARTCHAR grave
ENCODING 96
SWIDTH 614 0
DWIDTH 16 0
BBX 6 4 4 15
BITMAP
E0
70
38
1C
ENDCHAR
STARTCHAR a
ENCODING 97
SWIDTH 552 0
DWIDTH 14 0
BBX 12 14 2 0
BITMAP
1F80
7FC0
41C0
01C0
01C0
01C0
1FC0
7FC0
F1C0
E1C0
E1C0
E3C0
7EF0
3C70
ENDCHAR
STARTCHAR b
ENCODING 98
SWIDTH 630 0
DWIDTH 16 0
BBX 12 19 3 0
BITMAP
E000
E000
E000
E000
E000
E780
EFE0
F8E0
F0F0
E070
E070
E070
E070
E070
E070
E0E0
F1E0
FFC0
CF80
ENDCHAR
STARTCHAR c
ENCODING 99
SWIDTH 518 0
DWIDTH 13 0
BBX 11 14 1 0
BITMAP
0FE0
3FE0
7820
7000
E000
E000
E000
E000
E000
E000
7000
7820
3FE0
0FC0
ENDCHAR
STARTCHAR d
ENCODING 100
SWIDTH 630 0
DWIDTH 16 0
BBX 12 19 2 0
BITMAP
0070
0070
0070
0070
0070
1E70
3FF0
78F0
7070
E070
E070
E070
E070
E070
E070
F0F0
71F0
7F70
1E70
ENDCHAR
STARTCHAR e
ENCODING 101
SWIDTH 557 0
DWIDTH 14 0
BBX 12 14 1 0
BITMAP
0F80
3FC0
70E0
7060
E070
E070
FFF0
FFF0
E000
E000
7000
7C10
1FF0
0FE0
ENDCHAR
STARTCHAR f
ENCODING 102
SWIDTH 367 0
DWIDTH 10 0
BBX 10 20 1 0
BITMAP
0FC0
1FC0
3840
3800
3800
3800
FF00
FF00
3800
3800
3800
3800
3800
3800
3800
3800
3800
3800
3800
3800
ENDCHAR
STARTCHAR g
ENCODING 103
SWIDTH 623 0
DWIDTH 16 0
BBX 12 19 2 -5
BITMAP
1E70
3FF0
78F0
7070
E070
E070
E070
E070
E070
E070
F0F0
71F0
3F70
1E70
0070
0060
40E0
7FC0
3F80
ENDCHAR
STARTCHAR h
ENCODING 104
SWIDTH 620 0
DWIDTH 16 0
BBX 11 19 3 0
BITMAP
E000
E000
E000
E000
E000
E780
EFC0
F8E0
F0E0
E0E0
E0E0
E0E0
E0E0
E0E0
E0E0
E0E0
E0E0
E0E0
E0E0
ENDCHAR
STARTCHAR i
ENCODING 105
SWIDTH 289 0
DWIDTH 8 0
BBX 3 19 2 0
BITMAP
E0
E0
E0
00
00
E0
E0
E0
E0
E0
E0
E0
E0
E0
E0
E0
E0
E0
E0
ENDCHAR
STARTCHAR j
ENCODING 106
SWIDTH 304 0
DWIDTH 8 0
BBX 8 24 -1 -5
BITMAP
07
07
07
00
00
07
07
07
07
07
07
07
07
07
07
07
07
07
07
07
07
8E
FE
F8
ENDCHAR
STARTCHAR k
ENCODING 107
SWIDTH 585 0
DWIDTH 15 0
BBX 13 19 2 0
BITMAP
E000
E000
E000
E000
E000
E070
E0C0
E1C0
E380
E700
EE00
FC00
FE00
EF00
E780
E3C0
E1E0
E0F0
E078
ENDCHAR
STARTCHAR l
ENCODING 108
SWIDTH 289 0
DWIDTH 8 0
BBX 3 19 2 0
BITMAP
E0
E0
E0
E0
E0
E0
E0
E0
E0
E0
E0
E0
E0
E0
E0
E0
E0
E0
E0
ENDCHAR
STARTCHAR m
ENCODING 109
SWIDTH 934 0
DWIDTH 24 0
BBX 19 14 3 0
BITMAP
E7C780
EFCFC0
F8F9E0
F0F0E0
E0E0E0
E0E0E0
E0E0E0
E0E0E0
E0E0E0
E0E0E0
E0E0E0
E0E0E0
E0E0E0
E0E0E0
ENDCHAR
STARTCHAR n
ENCODING 110
SWIDTH 620 0
DWIDTH 16 0
BBX 11 14 3 0
BITMAP
E780
EFC0
F8E0
F0E0
E0E0
E0E0
E0E0
E0E0
E0E0
E0E0
E0E0
E0E0
E0E0
E0E0
ENDCHAR
STARTCHAR o
ENCODING 111
SWIDTH 614 0
DWIDTH 16 0
BBX 13 14 1 0
BITMAP
0F80
3FE0
78F0
7070
E038
E038
E038
E038
E038
E038
7070
78F0
3FE0
0F80
ENDCHAR
STARTCHAR p
ENCODING 112
SWIDTH 630 0
DWIDTH 16 0
BBX 12 19 3 -5
BITMAP
E780
EFE0
F8E0
F0F0
E070
E070
E070
E070
E070
E070
E0E0
F1E0
FFC0
E780
E000
E000
E000
E000
E000
ENDCHAR
STARTCHAR q
ENCODING 113
SWIDTH 630 0
DWIDTH 16 0
BBX 12 19 2 -5
BITMAP
1E70
3FF0
78F0
7070
E070
E070
E070
E070
E070
E070
F0F0
71F0
7F70
1E70
0070
0070
0070
0070
0070
ENDCHAR
STARTCHAR r
ENCODING 114
SWIDTH 409 0
DWIDTH 11 0
BBX 8 14 2 0
BITMAP
E7
EF
F8
F0
E0
E0
E0
E0
E0
E0
E0
E0
E0
E0
ENDCHAR
STARTCHAR s
ENCODING 115
SWIDTH 510 0
DWIDTH 13 0
BBX 9 14 2 0
BITMAP
3F00
7F00
F100
E000
E000
F800
7E00
3F00
0780
0380
0380
8780
FF00
7E00
ENDCHAR
STARTCHAR t
ENCODING 116
SWIDTH 374 0
DWIDTH 10 0
BBX 9 17 0 0
BITMAP
3800
3800
3800
FF80
FF80
3800
3800
3800
3800
3800
3800
3800
3800
3800
3C00
1F80
0F80
ENDCHAR
STARTCHAR u
ENCODING 117
SWIDTH 620 0
DWIDTH 16 0
BBX 11 14 2 0
BITMAP
E0E0
E0E0
E0E0
E0E0
E0E0
E0E0
E0E0
E0E0
E0E0
E0E0
E1E0
E3E0
7EE0
3CE0
ENDCHAR
STARTCHAR v
ENCODING 118
SWIDTH 572 0
DWIDTH 13 0
BBX 13 14 0 0
BITMAP
E018
E030
7030
7070
7060
3860
38C0
3CC0
1DC0
1D80
1F80
0F00
0F00
0700
ENDCHAR
STARTCHAR w
ENCODING 119
SWIDTH 840 0
DWIDTH 20 0
BBX 20 14 0 0
BITMAP
C06030
60F060
60F060
60F060
71F0C0
3198C0
3198C0
319980
1B1D80
1B0D80
1B0F00
1E0F00
0E0F00
0E0600
ENDCHAR
STARTCHAR x
ENCODING 120
SWIDTH 613 0
DWIDTH 16 0
BBX 14 14 1 0
BITMAP
E01C
3030
3870
1C60
0CC0
07C0
0780
0780
0F80
1CC0
1860
3070
7038
E01C
ENDCHAR
STARTCHAR y
ENCODING 121
SWIDTH 568 0
DWIDTH 14 0
BBX 13 19 0 -5
BITMAP
E018
F030
7030
7070
7860
3860
38C0
1CC0
1DC0
1D80
0F80
0F00
0F00
0700
0600
0600
0E00
0C00
1C00
ENDCHAR
STARTCHAR z
ENCODING 122
SWIDTH 573 0
DWIDTH 15 0
BBX 12 14 1 0
BITMAP
FFF0
FFF0
0060
00C0
0180
0380
0700
0E00
1C00
3800
3000
6000
FFF0
FFF0
ENDCHAR
STARTCHAR braceleft
ENCODING 123
SWIDTH 325 0
DWIDTH 8 0
BBX 7 23 0 -4
BITMAP
0E
1E
38
30
30
38
18
18
18
18
10
E0
F0
18
18
18
18
38
30
30
38
1E
06
ENDCHAR
STARTCHAR bar
ENCODING 124
SWIDTH 265 0
DWIDTH 7 0
BBX 2 23 2 -4
BITMAP
C0
C0
C0
C0
C0
C0
C0
C0
C0
C0
C0
C0
C0
C0
C0
C0
C0
C0
C0
C0
C0
C0
C0
ENDCHAR
STARTCHAR braceright
ENCODING 125
SWIDTH 325 0
DWIDTH 8 0
BBX 7 23 1 -4
BITMAP
C0
F0
38
18
18
38
30
30
30
30
1E
0E
10
30
30
30
30
38
18
18
38
F0
E0
ENDCHAR
STARTCHAR asciitilde
ENCODING 126
SWIDTH 633 0
DWIDTH 16 0
BBX 15 6 1 5
BITMAP
3C06
7E06
6786
C3CC
C0FC
C078
ENDCHAR
STARTCHAR space
ENCODING 160
SWIDTH 316 0
DWIDTH 8 0
BBX 1 1 0 0
BITMAP
00
ENDCHAR
STARTCHAR exclamdown
ENCODING 161
SWIDTH 205 0
DWIDTH 8 0
BBX 2 19 3 -5
BITMAP
C0
C0
C0
00
00
C0
C0
C0
C0
C0
C0
C0
C0
C0
C0
C0
C0
C0
C0
ENDCHAR
STARTCHAR cent
ENCODING 162
SWIDTH 633 0
DWIDTH 16 0
BBX 11 19 2 0
BITMAP
0600
0600
0FE0
3FE0
7E20
7600
E600
E600
E600
E600
E600
E600
E600
7600
7620
3FE0
1FC0
0600
0600
ENDCHAR
STARTCHAR sterling
ENCODING 163
SWIDTH 633 0
DWIDTH 16 0
BBX 12 19 3 0
BITMAP
03F0
0FF0
0E10
1C00
1C00
1C00
1C00
1C00
FF80
FF80
1C00
1C00
1C00
1C00
1C00
3800
7000
FFF0
FFF0
ENDCHAR
STARTCHAR currency
ENCODING 164
SWIDTH 633 0
DWIDTH 16 0
BBX 15 17 1 1
BITMAP
4004
E00E
77DC
3FF8
1C70
1830
3018
3018
3018
3018
3018
1830
1C70
3FF8
77DC
E00E
4004
ENDCHAR
STARTCHAR yen
ENCODING 165
SWIDTH 633 0
DWIDTH 16 0
BBX 15 19 1 0
BITMAP
F00E
700C
7818
3838
3C30
1C70
0E60
0FC0
07C0
0780
3FF0
3FF0
0380
3FF0
3FF0
0380
0380
0380
0380
ENDCHAR
STARTCHAR brokenbar
ENCODING 166
SWIDTH 265 0
DWIDTH 7 0
BBX 2 23 2 -4
BITMAP
C0
C0
C0
C0
C0
C0
C0
C0
C0
00
00
00
00
00
C0
C0
C0
C0
C0
C0
C0
C0
C0
ENDCHAR
STARTCHAR section
ENCODING 167
SWIDTH 633 0
DWIDTH 16 0
BBX 11 24 3 -5
BITMAP
1FC0
7FC0
6040
C000
C000
E000
F800
7E00
7F80
CFC0
C1E0
C0E0
E060
F060
7E40
3FC0
0FC0
03E0
00E0
0060
0060
C0E0
FFC0
7F00
ENDCHAR
STARTCHAR dieresis
ENCODING 168
SWIDTH 614 0
DWIDTH 16 0
BBX 7 2 4 17
BITMAP
C6
C6
ENDCHAR
STARTCHAR copyright
ENCODING 169
SWIDTH 855 0
DWIDTH 22 0
BBX 20 19 1 0
BITMAP
01F800
07FE00
1E0780
3801C0
70F0C0
63F860
638860
C70030
C60030
C60030
C60030
C70030
638860
63F860
70F0C0
3801C0
1E0780
07FE00
01F800
ENDCHAR
STARTCHAR ordfeminine
ENCODING 170
SWIDTH 422 0
DWIDTH 11 0
BBX 9 10 1 9
BITMAP
7E00
7F00
4700
0300
3F00
7F00
E300
C300
FF80
7B80
ENDCHAR
STARTCHAR guillemotleft
ENCODING 171
SWIDTH 524 0
DWIDTH 14 0
BBX 11 12 2 1
BITMAP
0C40
0CE0
18C0
3180
7380
E700
E700
7380
3180
18C0
0CE0
0C40
ENDCHAR
STARTCHAR logicalnot
ENCODING 172
SWIDTH 633 0
DWIDTH 16 0
BBX 15 7 1 4
BITMAP
FFFE
FFFE
0006
0006
0006
0006
0006
ENDCHAR
STARTCHAR hyphen
ENCODING 173
SWIDTH 325 0
DWIDTH 8 0
BBX 6 2 1 7
BITMAP
FC
FC
ENDCHAR
STARTCHAR registered
ENCODING 174
SWIDTH 633 0
DWIDTH 16 0
BBX 11 12 3 7
BITMAP
1F00
3F80
71C0
FFE0
DB60
DF60
DE60
DF60
FBE0
71C0
3F80
1F00
ENDCHAR
STARTCHAR macron
ENCODING 175
SWIDTH 614 0
DWIDTH 16 0
BBX 7 2 4 17
BITMAP
FE
FE
ENDCHAR
STARTCHAR degree
ENCODING 176
SWIDTH 277 0
DWIDTH 7 0
BBX 4 5 2 14
BITMAP
60
90
90
90
60
ENDCHAR
STARTCHAR plusminus
ENCODING 177
SWIDTH 633 0
DWIDTH 16 0
BBX 16 16 0 0
BITMAP
0180
0180
0180
0180
0180
FFFF
FFFF
0180
0180
0180
0180
0180
0000
0000
FFFF
FFFF
ENDCHAR
STARTCHAR twosuperior
ENCODING 178
SWIDTH 422 0
DWIDTH 10 0
BBX 7 11 -16 8
BITMAP
7C
FE
8E
06
0E
1C
38
70
60
FE
FE
ENDCHAR
STARTCHAR threesuperior
ENCODING 179
SWIDTH 422 0
DWIDTH 10 0
BBX 7 11 -16 8
BITMAP
7C
FE
86
06
78
78
06
06
8E
FE
F8
ENDCHAR
STARTCHAR acute
ENCODING 180
SWIDTH 614 0
DWIDTH 16 0
BBX 6 4 6 15
BITMAP
1C
38
70
E0
ENDCHAR
STARTCHAR mu
ENCODING 181
SWIDTH 627 0
DWIDTH 16 0
BBX 11 18 3 -4
BITMAP
E0E0
E0E0
E0E0
E0E0
E0E0
E0E0
E0E0
E0E0
E0E0
E0E0
E1E0
E3E0
FEE0
FCE0
E000
E000
E000
E000
ENDCHAR
STARTCHAR paragraph
ENCODING 182
SWIDTH 633 0
DWIDTH 16 0
BBX 10 23 3 -4
BITMAP
3FC0
7FC0
FEC0
FEC0
FEC0
FEC0
FEC0
7EC0
3EC0
0EC0
06C0
06C0
06C0
06C0
06C0
06C0
06C0
06C0
06C0
06C0
06C0
06C0
06C0
ENDCHAR
STARTCHAR periodcentered
ENCODING 183
SWIDTH 316 0
DWIDTH 16 0
BBX 3 3 7 7
BITMAP
E0
E0
E0
ENDCHAR
STARTCHAR cedilla
ENCODING 184
SWIDTH 614 0
DWIDTH 16 0
BBX 4 6 6 -5
BITMAP
60
40
70
30
30
E0
ENDCHAR
STARTCHAR onesuperior
ENCODING 185
SWIDTH 422 0
DWIDTH 10 0
BBX 4 11 -17 8
BITMAP
F0
F0
30
30
30
30
30
30
30
30
30
ENDCHAR
STARTCHAR ordmasculine
ENCODING 186
SWIDTH 422 0
DWIDTH 11 0
BBX 9 10 1 9
BITMAP
3E00
7F00
6700
C380
C380
C380
C380
6700
7F00
3E00
ENDCHAR
STARTCHAR guillemotright
ENCODING 187
SWIDTH 524 0
DWIDTH 14 0
BBX 11 12 1 1
BITMAP
4600
E600
6300
3180
39C0
1CE0
1CE0
39C0
3180
6300
E600
4600
ENDCHAR
STARTCHAR onequarter
ENCODING 188
SWIDTH 801 0
DWIDTH 21 0
BBX 19 19 6 0
BITMAP
F00380
F00700
300600
300E00
301C00
301800
303000
307000
30E380
30C780
31C780
038D80
031D80
063980
0E3FE0
1C3FE0
180180
380180
700180
ENDCHAR
STARTCHAR onehalf
ENCODING 189
SWIDTH 801 0
DWIDTH 21 0
BBX 17 19 6 0
BITMAP
F00380
F00700
300600
300E00
301C00
301800
303000
307000
30FF00
30FF80
31E380
038180
030380
060700
0E0E00
1C1C00
181800
383F80
703F80
ENDCHAR
STARTCHAR threequarters
ENCODING 190
SWIDTH 873 0
DWIDTH 21 0
BBX 19 19 6 0
BITMAP
7C0380
FE0700
860600
060E00
781C00
781800
063000
067000
8EE380
FEC780
F9C780
038D80
031D80
063980
0E3FE0
1C3FE0
180180
380180
700180
ENDCHAR
STARTCHAR questiondown
ENCODING 191
SWIDTH 422 0
DWIDTH 11 0
BBX 10 19 0 -5
BITMAP
0E00
0E00
0E00
0000
0000
0E00
0E00
0E00
0C00
1C00
3800
7000
6000
E000
E000
E000
F040
7FC0
1F80
ENDCHAR
STARTCHAR Agrave
ENCODING 192
SWIDTH 690 0
DWIDTH 18 0
BBX 17 24 0 0
BITMAP
070000
038000
01C000
00E000
000000
01C000
01E000
03E000
03E000
037000
067000
067000
063800
0C3800
0C3C00
1C1C00
181C00
1FFE00
3FFE00
300E00
700700
600700
600380
C00380
ENDCHAR
STARTCHAR Aacute
ENCODING 193
SWIDTH 690 0
DWIDTH 18 0
BBX 17 24 0 0
BITMAP
007000
00E000
01C000
038000
000000
01C000
01E000
03E000
03E000
037000
067000
067000
063800
0C3800
0C3C00
1C1C00
181C00
1FFE00
3FFE00
300E00
700700
600700
600380
C00380
ENDCHAR
STARTCHAR Acircumflex
ENCODING 194
SWIDTH 690 0
DWIDTH 18 0
BBX 17 24 0 0
BITMAP
01E000
01E000
033000
061800
000000
01C000
01E000
03E000
03E000
037000
067000
067000
063800
0C3800
0C3C00
1C1C00
181C00
1FFE00
3FFE00
300E00
700700
600700
600380
C00380
ENDCHAR
STARTCHAR Atilde
ENCODING 195
SWIDTH 690 0
DWIDTH 18 0
BBX 17 23 0 0
BITMAP
038800
07F800
067000
000000
01C000
01E000
03E000
03E000
037000
067000
067000
063800
0C3800
0C3C00
1C1C00
181C00
1FFE00
3FFE00
300E00
700700
600700
600380
C00380
ENDCHAR
STARTCHAR Adieresis
ENCODING 196
SWIDTH 690 0
DWIDTH 18 0
BBX 17 22 0 0
BITMAP
063000
063000
000000
01C000
01E000
03E000
03E000
037000
067000
067000
063800
0C3800
0C3C00
1C1C00
181C00
1FFE00
3FFE00
300E00
700700
600700
600380
C00380
ENDCHAR
STARTCHAR Aring
ENCODING 197
SWIDTH 690 0
DWIDTH 18 0
BBX 17 24 0 0
BITMAP
00C000
012000
012000
00C000
000000
01C000
01E000
03E000
03E000
037000
067000
067000
063800
0C3800
0C3C00
1C1C00
181C00
1FFE00
3FFE00
300E00
700700
600700
600380
C00380
ENDCHAR
STARTCHAR AE
ENCODING 198
SWIDTH 907 0
DWIDTH 24 0
BBX 23 19 0 0
BITMAP
001FFC
003FFC
003E00
006E00
006E00
00CE00
00CE00
018E00
038FF8
030FF8
060E00
060E00
0FFE00
1FFE00
180E00
380E00
300E00
600FFE
E00FFE
ENDCHAR
STARTCHAR Ccedilla
ENCODING 199
SWIDTH 692 0
DWIDTH 18 0
BBX 15 24 1 -5
BITMAP
03FC
0FFE
3E06
3800
7000
7000
E000
E000
E000
E000
E000
E000
E000
7000
7000
3802
3E0E
1FFE
03F8
0100
01C0
00C0
00C0
0380
ENDCHAR
STARTCHAR Egrave
ENCODING 200
SWIDTH 542 0
DWIDTH 14 0
BBX 11 24 2 0
BITMAP
7000
3800
1C00
0E00
0000
FFC0
FFC0
E000
E000
E000
E000
E000
E000
FF80
FF80
E000
E000
E000
E000
E000
E000
E000
FFE0
FFE0
ENDCHAR
STARTCHAR Eacute
ENCODING 201
SWIDTH 542 0
DWIDTH 14 0
BBX 11 24 2 0
BITMAP
0700
0E00
1C00
3800
0000
FFC0
FFC0
E000
E000
E000
E000
E000
E000
FF80
FF80
E000
E000
E000
E000
E000
E000
E000
FFE0
FFE0
ENDCHAR
STARTCHAR Ecircumflex
ENCODING 202
SWIDTH 542 0
DWIDTH 14 0
BBX 11 24 2 0
BITMAP
1E00
1E00
3300
6180
0000
FFC0
FFC0
E000
E000
E000
E000
E000
E000
FF80
FF80
E000
E000
E000
E000
E000
E000
E000
FFE0
FFE0
ENDCHAR
STARTCHAR Edieresis
ENCODING 203
SWIDTH 542 0
DWIDTH 14 0
BBX 11 22 2 0
BITMAP
6300
6300
0000
FFC0
FFC0
E000
E000
E000
E000
E000
E000
FF80
FF80
E000
E000
E000
E000
E000
E000
E000
FFE0
FFE0
ENDCHAR
STARTCHAR Igrave
ENCODING 204
SWIDTH 288 0
DWIDTH 7 0
BBX 6 24 0 0
BITMAP
E0
70
38
1C
00
38
38
38
38
38
38
38
38
38
38
38
38
38
38
38
38
38
38
38
ENDCHAR
STARTCHAR Iacute
ENCODING 205
SWIDTH 288 0
DWIDTH 7 0
BBX 6 24 1 0
BITMAP
1C
38
70
E0
00
70
70
70
70
70
70
70
70
70
70
70
70
70
70
70
70
70
70
70
ENDCHAR
STARTCHAR Icircumflex
ENCODING 206
SWIDTH 288 0
DWIDTH 7 0
BBX 8 24 0 0
BITMAP
3C
3C
66
C3
00
38
38
38
38
38
38
38
38
38
38
38
38
38
38
38
38
38
38
38
ENDCHAR
STARTCHAR Idieresis
ENCODING 207
SWIDTH 288 0
DWIDTH 7 0
BBX 7 22 0 0
BITMAP
C6
C6
00
38
38
38
38
38
38
38
38
38
38
38
38
38
38
38
38
38
38
38
ENDCHAR
STARTCHAR Eth
ENCODING 208
SWIDTH 749 0
DWIDTH 19 0
BBX 19 19 0 0
BITMAP
1FF800
1FFE00
1C0F80
1C0380
1C01C0
1C01C0
1C00E0
1C00E0
FFC0E0
FFC0E0
1C00E0
1C00E0
1C00E0
1C01C0
1C01C0
1C0380
1C0F00
1FFE00
1FF800
ENDCHAR
STARTCHAR Ntilde
ENCODING 209
SWIDTH 741 0
DWIDTH 19 0
BBX 14 23 3 0
BITMAP
0E20
1FE0
19C0
0000
E00C
F00C
F00C
F80C
FC0C
DC0C
DE0C
CF0C
C70C
C78C
C38C
C1CC
C1EC
C0EC
C0FC
C07C
C03C
C03C
C01C
ENDCHAR
STARTCHAR Ograve
ENCODING 210
SWIDTH 777 0
DWIDTH 20 0
BBX 18 24 1 0
BITMAP
070000
038000
01C000
00E000
000000
03F000
0FFC00
1E1E00
380700
700380
700380
E001C0
E001C0
E001C0
E001C0
E001C0
E001C0
E001C0
700380
700380
380700
1C0E00
0FFC00
03F000
ENDCHAR
STARTCHAR Oacute
ENCODING 211
SWIDTH 777 0
DWIDTH 20 0
BBX 18 24 1 0
BITMAP
003800
007000
00E000
01C000
000000
03F000
0FFC00
1E1E00
380700
700380
700380
E001C0
E001C0
E001C0
E001C0
E001C0
E001C0
E001C0
700380
700380
380700
1C0E00
0FFC00
03F000
ENDCHAR
STARTCHAR Ocircumflex
ENCODING 212
SWIDTH 777 0
DWIDTH 20 0
BBX 18 24 1 0
BITMAP
01E000
01E000
033000
061800
000000
03F000
0FFC00
1E1E00
380700
700380
700380
E001C0
E001C0
E001C0
E001C0
E001C0
E001C0
E001C0
700380
700380
380700
1C0E00
0FFC00
03F000
ENDCHAR
STARTCHAR Otilde
ENCODING 213
SWIDTH 777 0
DWIDTH 20 0
BBX 18 23 1 0
BITMAP
038800
07F800
067000
000000
03F000
0FFC00
1E1E00
380700
700380
700380
E001C0
E001C0
E001C0
E001C0
E001C0
E001C0
E001C0
700380
700380
380700
1C0E00
0FFC00
03F000
ENDCHAR
STARTCHAR Odieresis
ENCODING 214
SWIDTH 777 0
DWIDTH 20 0
BBX 18 22 1 0
BITMAP
063000
063000
000000
03F000
0FFC00
1E1E00
380700
700380
700380
E001C0
E001C0
E001C0
E001C0
E001C0
E001C0
E001C0
700380
700380
380700
1C0E00
0FFC00
03F000
ENDCHAR
STARTCHAR multiply
ENCODING 215
SWIDTH 633 0
DWIDTH 16 0
BBX 15 16 1 0
BITMAP
4004
E00E
701C
3838
1C70
0EE0
06C0
0380
0380
06C0
0EE0
1C70
3838
701C
E00E
4004
ENDCHAR
STARTCHAR Oslash
ENCODING 216
SWIDTH 777 0
DWIDTH 20 0
BBX 18 19 1 0
BITMAP
03F1C0
0FFF80
1E1F00
380700
700F80
701F80
E039C0
E071C0
E061C0
E0C1C0
E181C0
E381C0
E701C0
7E0380
7C0380
380700
3C0E00
7FFC00
E3F000
ENDCHAR
STARTCHAR Ugrave
ENCODING 217
SWIDTH 693 0
DWIDTH 18 0
BBX 13 24 3 0
BITMAP
1C00
0E00
0700
0380
0000
E018
E018
E018
E018
E018
E018
E018
E018
E018
E018
E018
E018
E018
E018
E018
7038
7870
3FE0
1FC0
ENDCHAR
STARTCHAR Uacute
ENCODING 218
SWIDTH 693 0
DWIDTH 18 0
BBX 13 24 3 0
BITMAP
01C0
0380
0700
0E00
0000
E018
E018
E018
E018
E018
E018
E018
E018
E018
E018
E018
E018
E018
E018
E018
7038
7870
3FE0
1FC0
ENDCHAR
STARTCHAR Ucircumflex
ENCODING 219
SWIDTH 693 0
DWIDTH 18 0
BBX 13 24 3 0
BITMAP
0780
0780
0CC0
1860
0000
E018
E018
E018
E018
E018
E018
E018
E018
E018
E018
E018
E018
E018
E018
E018
7038
7870
3FE0
1FC0
ENDCHAR
STARTCHAR Udieresis
ENCODING 220
SWIDTH 693 0
DWIDTH 18 0
BBX 13 22 3 0
BITMAP
18C0
18C0
0000
E018
E018
E018
E018
E018
E018
E018
E018
E018
E018
E018
E018
E018
E018
E018
7038
7870
3FE0
1FC0
ENDCHAR
STARTCHAR Yacute
ENCODING 221
SWIDTH 623 0
DWIDTH 16 0
BBX 16 24 0 0
BITMAP
0070
00E0
01C0
0380
0000
E007
7006
780C
381C
3C18
1C30
1E30
0F60
07E0
07C0
0380
0380
0380
0380
0380
0380
0380
0380
0380
ENDCHAR
STARTCHAR Thorn
ENCODING 222
SWIDTH 553 0
DWIDTH 14 0
BBX 11 19 3 0
BITMAP
E000
E000
E000
E000
FF80
FFC0
E1E0
E0E0
E0E0
E0E0
E0E0
E1E0
E3C0
FF80
FE00
E000
E000
E000
E000
ENDCHAR
STARTCHAR germandbls
ENCODING 223
SWIDTH 598 0
DWIDTH 16 0
BBX 13 20 2 0
BITMAP
3F00
7F80
F3C0
E1C0
E1C0
E180
E300
E700
E600
E700
E780
E3C0
E1F0
E0F0
E038
E018
E018
E438
E7F0
E3E0
ENDCHAR
STARTCHAR agrave
ENCODING 224
SWIDTH 552 0
DWIDTH 14 0
BBX 12 19 2 0
BITMAP
3800
1C00
0E00
0700
0000
1F80
7FC0
41C0
01C0
01C0
01C0
1FC0
7FC0
F1C0
E1C0
E1C0
E3C0
7EF0
3C70
ENDCHAR
STARTCHAR aacute
ENCODING 225
SWIDTH 552 0
DWIDTH 14 0
BBX 12 19 2 0
BITMAP
0380
0700
0E00
1C00
0000
1F80
7FC0
41C0
01C0
01C0
01C0
1FC0
7FC0
F1C0
E1C0
E1C0
E3C0
7EF0
3C70
ENDCHAR
STARTCHAR acircumflex
ENCODING 226
SWIDTH 552 0
DWIDTH 14 0
BBX 12 19 2 0
BITMAP
0F00
0F00
1980
30C0
0000
1F80
7FC0
41C0
01C0
01C0
01C0
1FC0
7FC0
F1C0
E1C0
E1C0
E3C0
7EF0
3C70
ENDCHAR
STARTCHAR atilde
ENCODING 227
SWIDTH 552 0
DWIDTH 14 0
BBX 12 18 2 0
BITMAP
1C40
3FC0
3380
0000
1F80
7FC0
41C0
01C0
01C0
01C0
1FC0
7FC0
F1C0
E1C0
E1C0
E3C0
7EF0
3C70
ENDCHAR
STARTCHAR adieresis
ENCODING 228
SWIDTH 552 0
DWIDTH 14 0
BBX 12 17 2 0
BITMAP
3180
3180
0000
1F80
7FC0
41C0
01C0
01C0
01C0
1FC0
7FC0
F1C0
E1C0
E1C0
E3C0
7EF0
3C70
ENDCHAR
STARTCHAR aring
ENCODING 229
SWIDTH 552 0
DWIDTH 14 0
BBX 12 19 2 0
BITMAP
0600
0900
0900
0600
0000
1F80
7FC0
41C0
01C0
01C0
01C0
1FC0
7FC0
F1C0
E1C0
E1C0
E3C0
7EF0
3C70
ENDCHAR
STARTCHAR ae
ENCODING 230
SWIDTH 853 0
DWIDTH 22 0
BBX 19 14 1 0
BITMAP
1F9F00
7FFF80
60F1C0
00F0C0
00E0E0
00E0E0
0FFFE0
7FFFE0
70E000
E0E000
E0F000
F17820
7E3FE0
3C0FC0
ENDCHAR
STARTCHAR ccedilla
ENCODING 231
SWIDTH 518 0
DWIDTH 13 0
BBX 11 19 1 -5
BITMAP
0FE0
3FE0
7820
7000
E000
E000
E000
E000
E000
E000
7000
7820
3FE0
0FC0
0400
0700
0300
0300
0E00
ENDCHAR
STARTCHAR egrave
ENCODING 232
SWIDTH 557 0
DWIDTH 14 0
BBX 12 19 1 0
BITMAP
1C00
0E00
0700
0380
0000
0F80
3FC0
70E0
7060
E070
E070
FFF0
FFF0
E000
E000
7000
7C10
1FF0
0FE0
ENDCHAR
STARTCHAR eacute
ENCODING 233
SWIDTH 557 0
DWIDTH 14 0
BBX 12 19 1 0
BITMAP
01C0
0380
0700
0E00
0000
0F80
3FC0
70E0
7060
E070
E070
FFF0
FFF0
E000
E000
7000
7C10
1FF0
0FE0
ENDCHAR
STARTCHAR ecircumflex
ENCODING 234
SWIDTH 557 0
DWIDTH 14 0
BBX 12 19 1 0
BITMAP
0F00
0F00
1980
30C0
0000
0F80
3FC0
70E0
7060
E070
E070
FFF0
FFF0
E000
E000
7000
7C10
1FF0
0FE0
ENDCHAR
STARTCHAR edieresis
ENCODING 235
SWIDTH 557 0
DWIDTH 14 0
BBX 12 17 1 0
BITMAP
18C0
18C0
0000
0F80
3FC0
70E0
7060
E070
E070
FFF0
FFF0
E000
E000
7000
7C10
1FF0
0FE0
ENDCHAR
STARTCHAR igrave
ENCODING 236
SWIDTH 289 0
DWIDTH 8 0
BBX 6 19 0 0
BITMAP
E0
70
38
1C
00
38
38
38
38
38
38
38
38
38
38
38
38
38
38
ENDCHAR
STARTCHAR iacute
ENCODING 237
SWIDTH 289 0
DWIDTH 8 0
BBX 6 19 1 0
BITMAP
1C
38
70
E0
00
70
70
70
70
70
70
70
70
70
70
70
70
70
70
ENDCHAR
STARTCHAR icircumflex
ENCODING 238
SWIDTH 289 0
DWIDTH 8 0
BBX 8 19 0 0
BITMAP
3C
3C
66
C3
00
38
38
38
38
38
38
38
38
38
38
38
38
38
38
ENDCHAR
STARTCHAR idieresis
ENCODING 239
SWIDTH 289 0
DWIDTH 8 0
BBX 7 17 0 0
BITMAP
C6
C6
00
38
38
38
38
38
38
38
38
38
38
38
38
38
38
ENDCHAR
STARTCHAR eth
ENCODING 240
SWIDTH 602 0
DWIDTH 16 0
BBX 13 19 1 0
BITMAP
FF00
8F80
3E00
3980
21C0
0FE0
3FE0
78F0
7070
E038
E038
E038
E038
E038
E038
7070
78F0
3FE0
0F80
ENDCHAR
STARTCHAR ntilde
ENCODING 241
SWIDTH 620 0
DWIDTH 16 0
BBX 11 18 3 0
BITMAP
3880
7F80
6700
0000
E780
EFC0
F8E0
F0E0
E0E0
E0E0
E0E0
E0E0
E0E0
E0E0
E0E0
E0E0
E0E0
E0E0
ENDCHAR
STARTCHAR ograve
ENCODING 242
SWIDTH 614 0
DWIDTH 16 0
BBX 13 19 1 0
BITMAP
1C00
0E00
0700
0380
0000
0F80
3FE0
78F0
7070
E038
E038
E038
E038
E038
E038
7070
78F0
3FE0
0F80
ENDCHAR
STARTCHAR oacute
ENCODING 243
SWIDTH 614 0
DWIDTH 16 0
BBX 13 19 1 0
BITMAP
01C0
0380
0700
0E00
0000
0F80
3FE0
78F0
7070
E038
E038
E038
E038
E038
E038
7070
78F0
3FE0
0F80
ENDCHAR
STARTCHAR ocircumflex
ENCODING 244
SWIDTH 614 0
DWIDTH 16 0
BBX 13 19 1 0
BITMAP
0780
0780
0CC0
1860
0000
0F80
3FE0
78F0
7070
E038
E038
E038
E038
E038
E038
7070
78F0
3FE0
0F80
ENDCHAR
STARTCHAR otilde
ENCODING 245
SWIDTH 614 0
DWIDTH 16 0
BBX 13 18 1 0
BITMAP
0E20
1FE0
19C0
0000
0F80
3FE0
78F0
7070
E038
E038
E038
E038
E038
E038
7070
78F0
3FE0
0F80
ENDCHAR
STARTCHAR odieresis
ENCODING 246
SWIDTH 614 0
DWIDTH 16 0
BBX 13 17 1 0
BITMAP
18C0
18C0
0000
0F80
3FE0
78F0
7070
E038
E038
E038
E038
E038
E038
7070
78F0
3FE0
0F80
ENDCHAR
STARTCHAR divide
ENCODING 247
SWIDTH 633 0
DWIDTH 16 0
BBX 15 14 1 0
BITMAP
0380
0380
0380
0000
0000
0000
FFFE
FFFE
0000
0000
0000
0380
0380
0380
ENDCHAR
STARTCHAR oslash
ENCODING 248
SWIDTH 614 0
DWIDTH 16 0
BBX 13 14 1 0
BITMAP
0FB8
3FF0
78F0
70F0
E1F8
E3B8
E338
E638
EE38
FC38
7870
78F0
7FE0
EF80
ENDCHAR
STARTCHAR ugrave
ENCODING 249
SWIDTH 620 0
DWIDTH 16 0
BBX 11 19 2 0
BITMAP
3800
1C00
0E00
0700
0000
E0E0
E0E0
E0E0
E0E0
E0E0
E0E0
E0E0
E0E0
E0E0
E0E0
E1E0
E3E0
7EE0
3CE0
ENDCHAR
STARTCHAR uacute
ENCODING 250
SWIDTH 620 0
DWIDTH 16 0
BBX 11 19 2 0
BITMAP
0380
0700
0E00
1C00
0000
E0E0
E0E0
E0E0
E0E0
E0E0
E0E0
E0E0
E0E0
E0E0
E0E0
E1E0
E3E0
7EE0
3CE0
ENDCHAR
STARTCHAR ucircumflex
ENCODING 251
SWIDTH 620 0
DWIDTH 16 0
BBX 11 19 2 0
BITMAP
0F00
0F00
1980
30C0
0000
E0E0
E0E0
E0E0
E0E0
E0E0
E0E0
E0E0
E0E0
E0E0
E0E0
E1E0
E3E0
7EE0
3CE0
ENDCHAR
STARTCHAR udieresis
ENCODING 252
SWIDTH 620 0
DWIDTH 16 0
BBX 11 17 2 0
BITMAP
3180
3180
0000
E0E0
E0E0
E0E0
E0E0
E0E0
E0E0
E0E0
E0E0
E0E0
E0E0
E1E0
E3E0
7EE0
3CE0
ENDCHAR
STARTCHAR yacute
ENCODING 253
SWIDTH 568 0
DWIDTH 14 0
BBX 13 24 0 -5
BITMAP
01C0
0380
0700
0E00
0000
E018
F030
7030
7070
7860
3860
38C0
1CC0
1DC0
1D80
0F80
0F00
0F00
0700
0600
0600
0E00
0C00
1C00
ENDCHAR
STARTCHAR thorn
ENCODING 254
SWIDTH 630 0
DWIDTH 16 0
BBX 12 23 3 -5
BITMAP
E000
E000
E000
E000
E780
EFE0
F8E0
F0F0
E070
E070
E070
E070
E070
E070
E0E0
F1E0
FFC0
EF80
E000
E000
E000
E000
E000
ENDCHAR
STARTCHAR ydieresis
ENCODING 255
SWIDTH 568 0
DWIDTH 14 0
BBX 13 22 0 -5
BITMAP
18C0
18C0
0000
E018
F030
7030
7070
7860
3860
38C0
1CC0
1DC0
1D80
0F80
0F00
0F00
0700
0600
0600
0E00
0C00
1C00
ENDCHAR
STARTCHAR Amacron
ENCODING 256
SWIDTH 690 0
DWIDTH 18 0
BBX 17 22 0 0
BITMAP
07F000
07F000
000000
01C000
01E000
03E000
03E000
037000
067000
067000
063800
0C3800
0C3C00
1C1C00
181C00
1FFE00
3FFE00
300E00
700700
600700
600380
C00380
ENDCHAR
STARTCHAR amacron
ENCODING 257
SWIDTH 552 0
DWIDTH 14 0
BBX 12 17 2 0
BITMAP
1FC0
1FC0
0000
1F80
7FC0
41C0
01C0
01C0
01C0
1FC0
7FC0
F1C0
E1C0
E1C0
E3C0
7EF0
3C70
ENDCHAR
STARTCHAR Abreve
ENCODING 258
SWIDTH 690 0
DWIDTH 18 0
BBX 17 24 0 0
BITMAP
061800
061800
03F000
01E000
000000
01C000
01E000
03E000
03E000
037000
067000
067000
063800
0C3800
0C3C00
1C1C00
181C00
1FFE00
3FFE00
300E00
700700
600700
600380
C00380
ENDCHAR
STARTCHAR abreve
ENCODING 259
SWIDTH 552 0
DWIDTH 14 0
BBX 12 19 2 0
BITMAP
30C0
30C0
1F80
0F00
0000
1F80
7FC0
41C0
01C0
01C0
01C0
1FC0
7FC0
F1C0
E1C0
E1C0
E3C0
7EF0
3C70
ENDCHAR
STARTCHAR Aogonek
ENCODING 260
SWIDTH 690 0
DWIDTH 18 0
BBX 17 23 0 -4
BITMAP
01C000
01E000
03E000
03E000
037000
067000
067000
063800
0C3800
0C3C00
1C1C00
181C00
1FFE00
3FFE00
300E00
700700
600700
600380
C00380
00C000
018000
018000
00E000
ENDCHAR
STARTCHAR aogonek
ENCODING 261
SWIDTH 552 0
DWIDTH 14 0
BBX 12 18 2 -4
BITMAP
1F80
7FC0
41C0
01C0
01C0
01C0
1FC0
7FC0
F1C0
E1C0
E1C0
E3C0
7EF0
3C70
0600
0C00
0C00
0700
ENDCHAR
STARTCHAR Cacute
ENCODING 262
SWIDTH 692 0
DWIDTH 18 0
BBX 15 24 1 0
BITMAP
00E0
01C0
0380
0700
0000
03FC
0FFE
3E06
3800
7000
7000
E000
E000
E000
E000
E000
E000
E000
7000
7000
3802
3E0E
1FFE
03F8
ENDCHAR
STARTCHAR cacute
ENCODING 263
SWIDTH 518 0
DWIDTH 13 0
BBX 11 19 1 0
BITMAP
0380
0700
0E00
1C00
0000
0FE0
3FE0
7820
7000
E000
E000
E000
E000
E000
E000
7000
7820
3FE0
0FC0
ENDCHAR
STARTCHAR Ccircumflex
ENCODING 264
SWIDTH 692 0
DWIDTH 18 0
BBX 15 24 1 0
BITMAP
03C0
03C0
0660
0C30
0000
03FC
0FFE
3E06
3800
7000
7000
E000
E000
E000
E000
E000
E000
E000
7000
7000
3802
3E0E
1FFE
03F8
ENDCHAR
STARTCHAR ccircumflex
ENCODING 265
SWIDTH 518 0
DWIDTH 13 0
BBX 11 19 1 0
BITMAP
0F00
0F00
1980
30C0
0000
0FE0
3FE0
7820
7000
E000
E000
E000
E000
E000
E000
7000
7820
3FE0
0FC0
ENDCHAR
STARTCHAR Cdotaccent
ENCODING 266
SWIDTH 692 0
DWIDTH 18 0
BBX 15 23 1 0
BITMAP
0180
0180
0180
0000
03FC
0FFE
3E06
3800
7000
7000
E000
E000
E000
E000
E000
E000
E000
7000
7000
3802
3E0E
1FFE
03F8
ENDCHAR
STARTCHAR cdotaccent
ENCODING 267
SWIDTH 518 0
DWIDTH 13 0
BBX 11 18 1 0
BITMAP
0600
0600
0600
0000
0FE0
3FE0
7820
7000
E000
E000
E000
E000
E000
E000
7000
7820
3FE0
0FC0
ENDCHAR
STARTCHAR Ccaron
ENCODING 268
SWIDTH 692 0
DWIDTH 18 0
BBX 15 24 1 0
BITMAP
0C30
0660
03C0
03C0
0000
03FC
0FFE
3E06
3800
7000
7000
E000
E000
E000
E000
E000
E000
E000
7000
7000
3802
3E0E
1FFE
03F8
ENDCHAR
STARTCHAR ccaron
ENCODING 269
SWIDTH 518 0
DWIDTH 13 0
BBX 11 19 1 0
BITMAP
30C0
1980
0F00
0F00
0000
0FE0
3FE0
7820
7000
E000
E000
E000
E000
E000
E000
7000
7820
3FE0
0FC0
ENDCHAR
STARTCHAR Dcaron
ENCODING 270
SWIDTH 749 0
DWIDTH 19 0
BBX 16 24 2 0
BITMAP
1860
0CC0
0780
0780
0000
FFC0
FFF0
E07C
E01C
E00E
E00E
E007
E007
E007
E007
E007
E007
E007
E00E
E00E
E01C
E078
FFF0
FFC0
ENDCHAR
STARTCHAR dcaron
ENCODING 271
SWIDTH 828 0
DWIDTH 21 0
BBX 17 19 2 0
BITMAP
007380
007380
007380
007180
007180
1E7180
3FF300
78F000
707000
E07000
E07000
E07000
E07000
E07000
E07000
F0F000
71F000
7F7000
1E7000
ENDCHAR
STARTCHAR Dcroat
ENCODING 272
SWIDTH 749 0
DWIDTH 19 0
BBX 19 19 0 0
BITMAP
1FF800
1FFE00
1C0F80
1C0380
1C01C0
1C01C0
1C00E0
1C00E0
FFC0E0
FFC0E0
1C00E0
1C00E0
1C00E0
1C01C0
1C01C0
1C0380
1C0F00
1FFE00
1FF800
ENDCHAR
STARTCHAR dcroat
ENCODING 273
SWIDTH 630 0
DWIDTH 16 0
BBX 12 19 2 0
BITMAP
0070
0070
0070
00F0
00F0
1E70
3FF0
78F0
7070
E070
E070
E070
E070
E070
E070
F0F0
71F0
7F70
1E70
ENDCHAR
STARTCHAR Emacron
ENCODING 274
SWIDTH 542 0
DWIDTH 14 0
BBX 11 22 2 0
BITMAP
7F00
7F00
0000
FFC0
FFC0
E000
E000
E000
E000
E000
E000
FF80
FF80
E000
E000
E000
E000
E000
E000
E000
FFE0
FFE0
ENDCHAR
STARTCHAR emacron
ENCODING 275
SWIDTH 557 0
DWIDTH 14 0
BBX 12 17 1 0
BITMAP
1FC0
1FC0
0000
0F80
3FC0
70E0
7060
E070
E070
FFF0
FFF0
E000
E000
7000
7C10
1FF0
0FE0
ENDCHAR
STARTCHAR Ebreve
ENCODING 276
SWIDTH 542 0
DWIDTH 14 0
BBX 11 24 2 0
BITMAP
C300
C300
7E00
3C00
0000
FFC0
FFC0
E000
E000
E000
E000
E000
E000
FF80
FF80
E000
E000
E000
E000
E000
E000
E000
FFE0
FFE0
ENDCHAR
STARTCHAR ebreve
ENCODING 277
SWIDTH 557 0
DWIDTH 14 0
BBX 12 19 1 0
BITMAP
30C0
30C0
1F80
0F00
0000
0F80
3FC0
70E0
7060
E070
E070
FFF0
FFF0
E000
E000
7000
7C10
1FF0
0FE0
ENDCHAR
STARTCHAR Edotaccent
ENCODING 278
SWIDTH 542 0
DWIDTH 14 0
BBX 11 23 2 0
BITMAP
1800
1800
1800
0000
FFC0
FFC0
E000
E000
E000
E000
E000
E000
FF80
FF80
E000
E000
E000
E000
E000
E000
E000
FFE0
FFE0
ENDCHAR
STARTCHAR edotaccent
ENCODING 279
SWIDTH 557 0
DWIDTH 14 0
BBX 12 18 1 0
BITMAP
0600
0600
0600
0000
0F80
3FC0
70E0
7060
E070
E070
FFF0
FFF0
E000
E000
7000
7C10
1FF0
0FE0
ENDCHAR
STARTCHAR Eogonek
ENCODING 280
SWIDTH 542 0
DWIDTH 14 0
BBX 11 23 2 -4
BITMAP
FFC0
FFC0
E000
E000
E000
E000
E000
E000
FF80
FF80
E000
E000
E000
E000
E000
E000
E000
FFE0
FFE0
0C00
1800
1800
0E00
ENDCHAR
STARTCHAR eogonek
ENCODING 281
SWIDTH 557 0
DWIDTH 14 0
BBX 12 18 1 -4
BITMAP
0F80
3FC0
70E0
7060
E070
E070
FFF0
FFF0
E000
E000
7000
7C10
1FF0
0FE0
0300
0600
0600
0380
ENDCHAR
STARTCHAR Ecaron
ENCODING 282
SWIDTH 542 0
DWIDTH 14 0
BBX 11 24 2 0
BITMAP
C300
6600
3C00
3C00
0000
FFC0
FFC0
E000
E000
E000
E000
E000
E000
FF80
FF80
E000
E000
E000
E000
E000
E000
E000
FFE0
FFE0
ENDCHAR
STARTCHAR ecaron
ENCODING 283
SWIDTH 557 0
DWIDTH 14 0
BBX 12 19 1 0
BITMAP
30C0
1980
0F00
0F00
0000
0F80
3FC0
70E0
7060
E070
E070
FFF0
FFF0
E000
E000
7000
7C10
1FF0
0FE0
ENDCHAR
STARTCHAR Gcircumflex
ENCODING 284
SWIDTH 723 0
DWIDTH 19 0
BBX 15 24 1 0
BITMAP
03C0
03C0
0660
0C30
0000
03FC
0FFE
3E06
3800
7000
7000
E000
E000
E000
E000
E00E
E00E
E00E
700E
700E
380E
3E0E
1FFE
07F8
ENDCHAR
STARTCHAR gcircumflex
ENCODING 285
SWIDTH 623 0
DWIDTH 16 0
BBX 12 24 2 -5
BITMAP
0F00
0F00
1980
30C0
0000
1E70
3FF0
78F0
7070
E070
E070
E070
E070
E070
E070
F0F0
71F0
3F70
1E70
0070
0060
40E0
7FC0
3F80
ENDCHAR
STARTCHAR Gbreve
ENCODING 286
SWIDTH 723 0
DWIDTH 19 0
BBX 15 24 1 0
BITMAP
0C30
0C30
07E0
03C0
0000
03FC
0FFE
3E06
3800
7000
7000
E000
E000
E000
E000
E00E
E00E
E00E
700E
700E
380E
3E0E
1FFE
07F8
ENDCHAR
STARTCHAR gbreve
ENCODING 287
SWIDTH 623 0
DWIDTH 16 0
BBX 12 24 2 -5
BITMAP
30C0
30C0
1F80
0F00
0000
1E70
3FF0
78F0
7070
E070
E070
E070
E070
E070
E070
F0F0
71F0
3F70
1E70
0070
0060
40E0
7FC0
3F80
ENDCHAR
STARTCHAR Gdotaccent
ENCODING 288
SWIDTH 723 0
DWIDTH 19 0
BBX 15 23 1 0
BITMAP
0180
0180
0180
0000
03FC
0FFE
3E06
3800
7000
7000
E000
E000
E000
E000
E00E
E00E
E00E
700E
700E
380E
3E0E
1FFE
07F8
ENDCHAR
STARTCHAR gdotaccent
ENCODING 289
SWIDTH 623 0
DWIDTH 16 0
BBX 12 23 2 -5
BITMAP
0600
0600
0600
0000
1E70
3FF0
78F0
7070
E070
E070
E070
E070
E070
E070
F0F0
71F0
3F70
1E70
0070
0060
40E0
7FC0
3F80
ENDCHAR
STARTCHAR Gcommaaccent
ENCODING 290
SWIDTH 723 0
DWIDTH 19 0
BBX 15 29 1 -10
BITMAP
03FC
0FFE
3E06
3800
7000
7000
E000
E000
E000
E000
E00E
E00E
E00E
700E
700E
380E
3E0E
1FFE
07F8
0000
01C0
01C0
01C0
01C0
00C0
00C0
00C0
0180
0100
ENDCHAR
STARTCHAR gcommaaccent
ENCODING 291
SWIDTH 623 0
DWIDTH 16 0
BBX 12 27 2 -5
BITMAP
0300
0600
0600
0600
0700
0700
0700
0000
1E70
3FF0
78F0
7070
E070
E070
E070
E070
E070
E070
F0F0
71F0
3F70
1E70
0070
0060
40E0
7FC0
3F80
ENDCHAR
STARTCHAR Hcircumflex
ENCODING 292
SWIDTH 735 0
DWIDTH 19 0
BBX 14 24 3 0
BITMAP
0780
0780
0CC0
1860
0000
E01C
E01C
E01C
E01C
E01C
E01C
E01C
E01C
FFFC
FFFC
E01C
E01C
E01C
E01C
E01C
E01C
E01C
E01C
E01C
ENDCHAR
STARTCHAR hcircumflex
ENCODING 293
SWIDTH 620 0
DWIDTH 16 0
BBX 12 24 2 0
BITMAP
3C00
3C00
6600
C300
0000
7000
7000
7000
7000
7000
73C0
77E0
7C70
7870
7070
7070
7070
7070
7070
7070
7070
7070
7070
7070
ENDCHAR
STARTCHAR Hbar
ENCODING 294
SWIDTH 735 0
DWIDTH 19 0
BBX 14 19 3 0
BITMAP
E01C
E01C
E01C
E01C
FFFC
FFFC
E01C
E01C
FFFC
FFFC
E01C
E01C
E01C
E01C
E01C
E01C
E01C
E01C
E01C
ENDCHAR
STARTCHAR hbar
ENCODING 295
SWIDTH 620 0
DWIDTH 16 0
BBX 11 19 3 0
BITMAP
E000
E000
E000
F800
F800
E780
EFC0
F8E0
F0E0
E0E0
E0E0
E0E0
E0E0
E0E0
E0E0
E0E0
E0E0
E0E0
E0E0
ENDCHAR
STARTCHAR Itilde
ENCODING 296
SWIDTH 288 0
DWIDTH 7 0
BBX 8 23 0 0
BITMAP
71
FF
CE
00
38
38
38
38
38
38
38
38
38
38
38
38
38
38
38
38
38
38
38
ENDCHAR
STARTCHAR itilde
ENCODING 297
SWIDTH 289 0
DWIDTH 8 0
BBX 8 18 0 0
BITMAP
71
FF
CE
00
38
38
38
38
38
38
38
38
38
38
38
38
38
38
ENDCHAR
STARTCHAR Imacron
ENCODING 298
SWIDTH 288 0
DWIDTH 7 0
BBX 7 22 0 0
BITMAP
FE
FE
00
38
38
38
38
38
38
38
38
38
38
38
38
38
38
38
38
38
38
38
ENDCHAR
STARTCHAR imacron
ENCODING 299
SWIDTH 289 0
DWIDTH 8 0
BBX 7 17 0 0
BITMAP
FE
FE
00
38
38
38
38
38
38
38
38
38
38
38
38
38
38
ENDCHAR
STARTCHAR Ibreve
ENCODING 300
SWIDTH 288 0
DWIDTH 7 0
BBX 8 24 0 0
BITMAP
C3
C3
7E
3C
00
38
38
38
38
38
38
38
38
38
38
38
38
38
38
38
38
38
38
38
ENDCHAR
STARTCHAR ibreve
ENCODING 301
SWIDTH 289 0
DWIDTH 8 0
BBX 8 19 0 0
BITMAP
C3
C3
7E
3C
00
38
38
38
38
38
38
38
38
38
38
38
38
38
38
ENDCHAR
STARTCHAR Iogonek
ENCODING 302
SWIDTH 288 0
DWIDTH 7 0
BBX 4 23 2 -4
BITMAP
E0
E0
E0
E0
E0
E0
E0
E0
E0
E0
E0
E0
E0
E0
E0
E0
E0
E0
E0
60
C0
C0
70
ENDCHAR
STARTCHAR iogonek
ENCODING 303
SWIDTH 289 0
DWIDTH 8 0
BBX 4 23 2 -4
BITMAP
E0
E0
E0
00
00
E0
E0
E0
E0
E0
E0
E0
E0
E0
E0
E0
E0
E0
E0
60
C0
C0
70
ENDCHAR
STARTCHAR Idotaccent
ENCODING 304
SWIDTH 288 0
DWIDTH 7 0
BBX 3 23 2 0
BITMAP
60
60
60
00
E0
E0
E0
E0
E0
E0
E0
E0
E0
E0
E0
E0
E0
E0
E0
E0
E0
E0
E0
ENDCHAR
STARTCHAR dotlessi
ENCODING 305
SWIDTH 289 0
DWIDTH 8 0
BBX 3 14 2 0
BITMAP
E0
E0
E0
E0
E0
E0
E0
E0
E0
E0
E0
E0
E0
E0
ENDCHAR
STARTCHAR IJ
ENCODING 306
SWIDTH 585 0
DWIDTH 15 0
BBX 12 23 2 -4
BITMAP
E070
E070
E070
E070
E070
E070
E070
E070
E070
E070
E070
E070
E070
E070
E070
E070
E070
E070
E070
0070
08E0
0FC0
0F80
ENDCHAR
STARTCHAR ij
ENCODING 307
SWIDTH 579 0
DWIDTH 16 0
BBX 13 24 2 -5
BITMAP
E038
E038
E038
0000
0000
E038
E038
E038
E038
E038
E038
E038
E038
E038
E038
E038
E038
E038
E038
0038
0038
0470
07F0
07C0
ENDCHAR
STARTCHAR Jcircumflex
ENCODING 308
SWIDTH 311 0
DWIDTH 8 0
BBX 10 28 -1 -4
BITMAP
0F00
0F00
1980
30C0
0000
0700
0700
0700
0700
0700
0700
0700
0700
0700
0700
0700
0700
0700
0700
0700
0700
0700
0700
0700
0700
8E00
FC00
F800
ENDCHAR
STARTCHAR jcircumflex
ENCODING 309
SWIDTH 304 0
DWIDTH 8 0
BBX 10 24 -1 -5
BITMAP
0F00
0F00
1980
30C0
0000
0700
0700
0700
0700
0700
0700
0700
0700
0700
0700
0700
0700
0700
0700
0700
0700
8E00
FE00
F800
ENDCHAR
STARTCHAR Kcommaaccent
ENCODING 310
SWIDTH 653 0
DWIDTH 17 0
BBX 14 29 2 -10
BITMAP
E038
E070
E0E0
E0C0
E180
E380
E700
EE00
EC00
FE00
EE00
EF00
E780
E3C0
E1E0
E0E0
E0F0
E078
E03C
0000
0700
0700
0700
0700
0300
0300
0300
0600
0400
ENDCHAR
STARTCHAR kcommaaccent
ENCODING 311
SWIDTH 585 0
DWIDTH 15 0
BBX 13 29 2 -10
BITMAP
E000
E000
E000
E000
E000
E070
E0C0
E1C0
E380
E700
EE00
FC00
FE00
EF00
E780
E3C0
E1E0
E0F0
E078
0000
0700
0700
0700
0700
0300
0300
0300
0600
0400
ENDCHAR
STARTCHAR kgreenlandic
ENCODING 312
SWIDTH 585 0
DWIDTH 15 0
BBX 13 14 2 0
BITMAP
E070
E0C0
E1C0
E380
E700
EE00
FC00
FE00
EF00
E780
E3C0
E1E0
E0F0
E078
ENDCHAR
STARTCHAR Lacute
ENCODING 313
SWIDTH 533 0
DWIDTH 14 0
BBX 11 24 2 0
BITMAP
0E00
1C00
3800
7000
0000
E000
E000
E000
E000
E000
E000
E000
E000
E000
E000
E000
E000
E000
E000
E000
E000
E000
FFE0
FFE0
ENDCHAR
STARTCHAR lacute
ENCODING 314
SWIDTH 289 0
DWIDTH 8 0
BBX 6 24 1 0
BITMAP
1C
38
70
E0
00
70
70
70
70
70
70
70
70
70
70
70
70
70
70
70
70
70
70
70
ENDCHAR
STARTCHAR Lcommaaccent
ENCODING 315
SWIDTH 533 0
DWIDTH 14 0
BBX 11 29 2 -10
BITMAP
E000
E000
E000
E000
E000
E000
E000
E000
E000
E000
E000
E000
E000
E000
E000
E000
E000
FFE0
FFE0
0000
1C00
1C00
1C00
1C00
0C00
0C00
0C00
1800
1000
ENDCHAR
STARTCHAR lcommaaccent
ENCODING 316
SWIDTH 289 0
DWIDTH 8 0
BBX 3 29 2 -10
BITMAP
E0
E0
E0
E0
E0
E0
E0
E0
E0
E0
E0
E0
E0
E0
E0
E0
E0
E0
E0
00
E0
E0
E0
E0
60
60
60
C0
80
ENDCHAR
STARTCHAR Lcaron
ENCODING 317
SWIDTH 735 0
DWIDTH 19 0
BBX 15 19 2 0
BITMAP
E00E
E00E
E00E
E006
E006
E006
E00C
E000
E000
E000
E000
E000
E000
E000
E000
E000
E000
FFE0
FFE0
ENDCHAR
STARTCHAR lcaron
ENCODING 318
SWIDTH 504 0
DWIDTH 14 0
BBX 10 19 2 0
BITMAP
E1C0
E1C0
E1C0
E0C0
E0C0
E0C0
E180
E000
E000
E000
E000
E000
E000
E000
E000
E000
E000
E000
E000
ENDCHAR
STARTCHAR Ldot
ENCODING 319
SWIDTH 822 0
DWIDTH 29 0
BBX 21 19 2 0
BITMAP
E00000
E00000
E00000
E00000
E00000
E00000
E00000
E00000
E00000
E00038
E00038
E00038
E00000
E00000
E00000
E00000
E00000
FFE000
FFE000
ENDCHAR
STARTCHAR ldot
ENCODING 320
SWIDTH 591 0
DWIDTH 24 0
BBX 16 19 2 0
BITMAP
E000
E000
E000
E000
E000
E000
E000
E000
E000
E007
E007
E007
E000
E000
E000
E000
E000
E000
E000
ENDCHAR
STARTCHAR Lslash
ENCODING 321
SWIDTH 533 0
DWIDTH 14 0
BBX 14 19 0 0
BITMAP
1C00
1C00
1C00
1C00
1C00
1C00
1C80
1F80
1F00
3C00
FC00
DC00
9C00
1C00
1C00
1C00
1C00
1FFC
1FFC
ENDCHAR
STARTCHAR lslash
ENCODING 322
SWIDTH 289 0
DWIDTH 8 0
BBX 9 19 0 0
BITMAP
1C00
1C00
1C00
1C00
1C00
1C80
1F80
1F00
1C00
7C00
DC00
9C00
1C00
1C00
1C00
1C00
1C00
1C00
1C00
ENDCHAR
STARTCHAR Nacute
ENCODING 323
SWIDTH 741 0
DWIDTH 19 0
BBX 14 24 3 0
BITMAP
01C0
0380
0700
0E00
0000
E00C
F00C
F00C
F80C
FC0C
DC0C
DE0C
CF0C
C70C
C78C
C38C
C1CC
C1EC
C0EC
C0FC
C07C
C03C
C03C
C01C
ENDCHAR
STARTCHAR nacute
ENCODING 324
SWIDTH 620 0
DWIDTH 16 0
BBX 11 19 3 0
BITMAP
0380
0700
0E00
1C00
0000
E780
EFC0
F8E0
F0E0
E0E0
E0E0
E0E0
E0E0
E0E0
E0E0
E0E0
E0E0
E0E0
E0E0
ENDCHAR
STARTCHAR Ncommaaccent
ENCODING 325
SWIDTH 741 0
DWIDTH 19 0
BBX 14 29 3 -10
BITMAP
E00C
F00C
F00C
F80C
FC0C
DC0C
DE0C
CF0C
C70C
C78C
C38C
C1CC
C1EC
C0EC
C0FC
C07C
C03C
C03C
C01C
0000
0380
0380
0380
0380
0180
0180
0180
0300
0200
ENDCHAR
STARTCHAR ncommaaccent
ENCODING 326
SWIDTH 620 0
DWIDTH 16 0
BBX 11 24 3 -10
BITMAP
E780
EFC0
F8E0
F0E0
E0E0
E0E0
E0E0
E0E0
E0E0
E0E0
E0E0
E0E0
E0E0
E0E0
0000
0E00
0E00
0E00
0E00
0600
0600
0600
0C00
0800
ENDCHAR
STARTCHAR Ncaron
ENCODING 327
SWIDTH 741 0
DWIDTH 19 0
BBX 14 24 3 0
BITMAP
30C0
1980
0F00
0F00
0000
E00C
F00C
F00C
F80C
FC0C
DC0C
DE0C
CF0C
C70C
C78C
C38C
C1CC
C1EC
C0EC
C0FC
C07C
C03C
C03C
C01C
ENDCHAR
STARTCHAR ncaron
ENCODING 328
SWIDTH 620 0
DWIDTH 16 0
BBX 11 19 3 0
BITMAP
6180
3300
1E00
1E00
0000
E780
EFC0
F8E0
F0E0
E0E0
E0E0
E0E0
E0E0
E0E0
E0E0
E0E0
E0E0
E0E0
E0E0
ENDCHAR
STARTCHAR napostrophe
ENCODING 329
SWIDTH 838 0
DWIDTH 22 0
BBX 19 19 1 0
BITMAP
E00000
E00000
E00000
600000
600000
60E780
C0EFC0
00F8E0
00F0E0
00E0E0
00E0E0
00E0E0
00E0E0
00E0E0
00E0E0
00E0E0
00E0E0
00E0E0
00E0E0
ENDCHAR
STARTCHAR Eng
ENCODING 330
SWIDTH 741 0
DWIDTH 19 0
BBX 14 24 3 -5
BITMAP
E00C
F00C
F00C
F80C
FC0C
DC0C
DE0C
CF0C
C70C
C78C
C38C
C1CC
C1EC
C0FC
C0FC
C07C
C03C
C03C
C01C
001C
001C
0238
03F8
03E0
ENDCHAR
STARTCHAR eng
ENCODING 331
SWIDTH 620 0
DWIDTH 16 0
BBX 11 19 3 -5
BITMAP
E780
EFC0
F8E0
F0E0
E0E0
E0E0
E0E0
E0E0
E0E0
E0E0
E0E0
E0E0
E0E0
E0E0
00E0
00E0
11C0
1FC0
1F00
ENDCHAR
STARTCHAR Omacron
ENCODING 332
SWIDTH 777 0
DWIDTH 20 0
BBX 18 22 1 0
BITMAP
03F800
03F800
000000
03F000
0FFC00
1E1E00
380700
700380
700380
E001C0
E001C0
E001C0
E001C0
E001C0
E001C0
E001C0
700380
700380
380700
1C0E00
0FFC00
03F000
ENDCHAR
STARTCHAR omacron
ENCODING 333
SWIDTH 614 0
DWIDTH 16 0
BBX 13 17 1 0
BITMAP
1FC0
1FC0
0000
0F80
3FE0
78F0
7070
E038
E038
E038
E038
E038
E038
7070
78F0
3FE0
0F80
ENDCHAR
STARTCHAR Obreve
ENCODING 334
SWIDTH 777 0
DWIDTH 20 0
BBX 18 24 1 0
BITMAP
061800
061800
03F000
01E000
000000
03F000
0FFC00
1E1E00
380700
700380
700380
E001C0
E001C0
E001C0
E001C0
E001C0
E001C0
E001C0
700380
700380
380700
1C0E00
0FFC00
03F000
ENDCHAR
STARTCHAR obreve
ENCODING 335
SWIDTH 614 0
DWIDTH 16 0
BBX 13 19 1 0
BITMAP
1860
1860
0FC0
0780
0000
0F80
3FE0
78F0
7070
E038
E038
E038
E038
E038
E038
7070
78F0
3FE0
0F80
ENDCHAR
STARTCHAR Ohungarumlaut
ENCODING 336
SWIDTH 777 0
DWIDTH 20 0
BBX 18 24 1 0
BITMAP
006C00
00D800
01B000
036000
000000
03F000
0FFC00
1E1E00
380700
700380
700380
E001C0
E001C0
E001C0
E001C0
E001C0
E001C0
E001C0
700380
700380
380700
1C0E00
0FFC00
03F000
ENDCHAR
STARTCHAR ohungarumlaut
ENCODING 337
SWIDTH 614 0
DWIDTH 16 0
BBX 13 19 1 0
BITMAP
0360
06C0
0D80
1B00
0000
0F80
3FE0
78F0
7070
E038
E038
E038
E038
E038
E038
7070
78F0
3FE0
0F80
ENDCHAR
STARTCHAR OE
ENCODING 338
SWIDTH 1000 0
DWIDTH 26 0
BBX 24 19 1 0
BITMAP
03F7FE
0FFFFE
3C1F00
380F00
700700
700700
E00700
E00700
E007FC
E007FC
E00700
E00700
E00700
700700
700700
380F00
3C1F00
0FFFFF
03F7FF
ENDCHAR
STARTCHAR oe
ENCODING 339
SWIDTH 930 0
DWIDTH 24 0
BBX 20 14 2 0
BITMAP
0F8F80
3FDFE0
78D8E0
70F870
E07070
E07070
E07FF0
E07FF0
E07000
E07000
70F800
78DC10
3FDFF0
0F87E0
ENDCHAR
STARTCHAR Racute
ENCODING 340
SWIDTH 633 0
DWIDTH 16 0
BBX 13 24 3 0
BITMAP
0380
0700
0E00
1C00
0000
FF00
FFC0
E1E0
E0E0
E0E0
E0E0
E0E0
E1C0
E380
FF00
FF00
E700
E380
E3C0
E1C0
E1E0
E0F0
E070
E078
ENDCHAR
STARTCHAR racute
ENCODING 341
SWIDTH 409 0
DWIDTH 11 0
BBX 8 19 2 0
BITMAP
0E
1C
38
70
00
E7
EF
F8
F0
E0
E0
E0
E0
E0
E0
E0
E0
E0
E0
ENDCHAR
STARTCHAR Rcommaaccent
ENCODING 342
SWIDTH 633 0
DWIDTH 16 0
BBX 13 29 3 -10
BITMAP
FF00
FFC0
E1E0
E0E0
E0E0
E0E0
E0E0
E1C0
E380
FF00
FF00
E700
E380
E3C0
E1C0
E1E0
E0F0
E070
E078
0000
0700
0700
0700
0700
0300
0300
0300
0600
0400
ENDCHAR
STARTCHAR rcommaaccent
ENCODING 343
SWIDTH 409 0
DWIDTH 11 0
BBX 8 24 2 -10
BITMAP
E7
EF
F8
F0
E0
E0
E0
E0
E0
E0
E0
E0
E0
E0
00
70
70
70
70
30
30
30
60
40
ENDCHAR
STARTCHAR Rcaron
ENCODING 344
SWIDTH 633 0
DWIDTH 16 0
BBX 13 24 3 0
BITMAP
30C0
1980
0F00
0F00
0000
FF00
FFC0
E1E0
E0E0
E0E0
E0E0
E0E0
E1C0
E380
FF00
FF00
E700
E380
E3C0
E1C0
E1E0
E0F0
E070
E078
ENDCHAR
STARTCHAR rcaron
ENCODING 345
SWIDTH 409 0
DWIDTH 11 0
BBX 8 19 2 0
BITMAP
C3
66
3C
3C
00
E7
EF
F8
F0
E0
E0
E0
E0
E0
E0
E0
E0
E0
E0
ENDCHAR
STARTCHAR Sacute
ENCODING 346
SWIDTH 539 0
DWIDTH 14 0
BBX 11 24 1 0
BITMAP
0380
0700
0E00
1C00
0000
1F80
7FC0
70C0
E000
E000
E000
F000
7C00
3E00
1F80
07C0
03C0
01E0
00E0
00E0
00E0
C1C0
FF80
7F00
ENDCHAR
STARTCHAR sacute
ENCODING 347
SWIDTH 510 0
DWIDTH 13 0
BBX 9 19 2 0
BITMAP
0700
0E00
1C00
3800
0000
3F00
7F00
F100
E000
E000
F800
7E00
3F00
0780
0380
0380
8780
FF00
7E00
ENDCHAR
STARTCHAR Scircumflex
ENCODING 348
SWIDTH 539 0
DWIDTH 14 0
BBX 11 24 1 0
BITMAP
1E00
1E00
3300
6180
0000
1F80
7FC0
70C0
E000
E000
E000
F000
7C00
3E00
1F80
07C0
03C0
01E0
00E0
00E0
00E0
C1C0
FF80
7F00
ENDCHAR
STARTCHAR scircumflex
ENCODING 349
SWIDTH 510 0
DWIDTH 13 0
BBX 9 19 2 0
BITMAP
3C00
3C00
6600
C300
0000
3F00
7F00
F100
E000
E000
F800
7E00
3F00
0780
0380
0380
8780
FF00
7E00
ENDCHAR
STARTCHAR Scedilla
ENCODING 350
SWIDTH 539 0
DWIDTH 14 0
BBX 11 24 1 -5
BITMAP
1F80
7FC0
70C0
E000
E000
E000
F000
7C00
3E00
1F80
07C0
03C0
01E0
00E0
00E0
00E0
C1C0
FF80
7F00
0400
0700
0300
0300
0E00
ENDCHAR
STARTCHAR scedilla
ENCODING 351
SWIDTH 510 0
DWIDTH 13 0
BBX 9 19 2 -5
BITMAP
3F00
7F00
F100
E000
E000
F800
7E00
3F00
0780
0380
0380
8780
FF00
7E00
0800
0E00
0600
0600
1C00
ENDCHAR
STARTCHAR Scaron
ENCODING 352
SWIDTH 539 0
DWIDTH 14 0
BBX 11 24 1 0
BITMAP
30C0
1980
0F00
0F00
0000
1F80
7FC0
70C0
E000
E000
E000
F000
7C00
3E00
1F80
07C0
03C0
01E0
00E0
00E0
00E0
C1C0
FF80
7F00
ENDCHAR
STARTCHAR scaron
ENCODING 353
SWIDTH 510 0
DWIDTH 13 0
BBX 9 19 2 0
BITMAP
6180
3300
1E00
1E00
0000
3F00
7F00
F100
E000
E000
F800
7E00
3F00
0780
0380
0380
8780
FF00
7E00
ENDCHAR
STARTCHAR Tcommaaccent
ENCODING 354
SWIDTH 633 0
DWIDTH 16 0
BBX 17 24 0 -5
BITMAP
FFFF80
FFFF80
01C000
01C000
01C000
01C000
01C000
01C000
01C000
01C000
01C000
01C000
01C000
01C000
01C000
01C000
01C000
01C000
01C000
008000
00E000
006000
006000
01C000
ENDCHAR
STARTCHAR tcommaaccent
ENCODING 355
SWIDTH 374 0
DWIDTH 10 0
BBX 9 22 0 -5
BITMAP
3800
3800
3800
FF80
FF80
3800
3800
3800
3800
3800
3800
3800
3800
3800
3C00
1F80
0F80
0800
0E00
0600
0600
1C00
ENDCHAR
STARTCHAR Tcaron
ENCODING 356
SWIDTH 633 0
DWIDTH 16 0
BBX 17 24 0 0
BITMAP
061800
033000
01E000
01E000
000000
FFFF80
FFFF80
01C000
01C000
01C000
01C000
01C000
01C000
01C000
01C000
01C000
01C000
01C000
01C000
01C000
01C000
01C000
01C000
01C000
ENDCHAR
STARTCHAR tcaron
ENCODING 357
SWIDTH 584 0
DWIDTH 16 0
BBX 14 19 0 0
BITMAP
001C
001C
381C
380C
380C
FF8C
FF98
3800
3800
3800
3800
3800
3800
3800
3800
3800
3C00
1F80
0F80
ENDCHAR
STARTCHAR Tbar
ENCODING 358
SWIDTH 633 0
DWIDTH 16 0
BBX 17 19 0 0
BITMAP
FFFF80
FFFF80
01C000
01C000
01C000
01C000
01C000
01C000
01C000
01C000
01C000
01C000
01C000
01C000
01C000
01C000
01C000
01C000
01C000
ENDCHAR
STARTCHAR tbar
ENCODING 359
SWIDTH 374 0
DWIDTH 10 0
BBX 9 17 0 0
BITMAP
3800
3800
3800
FF80
FF80
3800
3800
3800
3800
3C00
3C00
3800
3800
3800
3C00
1F80
0F80
ENDCHAR
STARTCHAR Utilde
ENCODING 360
SWIDTH 693 0
DWIDTH 18 0
BBX 13 23 3 0
BITMAP
1C40
3FC0
3380
0000
E018
E018
E018
E018
E018
E018
E018
E018
E018
E018
E018
E018
E018
E018
E018
7038
7870
3FE0
1FC0
ENDCHAR
STARTCHAR utilde
ENCODING 361
SWIDTH 620 0
DWIDTH 16 0
BBX 11 18 2 0
BITMAP
1C40
3FC0
3380
0000
E0E0
E0E0
E0E0
E0E0
E0E0
E0E0
E0E0
E0E0
E0E0
E0E0
E1E0
E3E0
7EE0
3CE0
ENDCHAR
STARTCHAR Umacron
ENCODING 362
SWIDTH 693 0
DWIDTH 18 0
BBX 13 22 3 0
BITMAP
3F80
3F80
0000
E018
E018
E018
E018
E018
E018
E018
E018
E018
E018
E018
E018
E018
E018
E018
7038
7870
3FE0
1FC0
ENDCHAR
STARTCHAR umacron
ENCODING 363
SWIDTH 620 0
DWIDTH 16 0
BBX 11 17 2 0
BITMAP
3F80
3F80
0000
E0E0
E0E0
E0E0
E0E0
E0E0
E0E0
E0E0
E0E0
E0E0
E0E0
E1E0
E3E0
7EE0
3CE0
ENDCHAR
STARTCHAR Ubreve
ENCODING 364
SWIDTH 693 0
DWIDTH 18 0
BBX 13 24 3 0
BITMAP
30C0
30C0
1F80
0F00
0000
E018
E018
E018
E018
E018
E018
E018
E018
E018
E018
E018
E018
E018
E018
E018
7038
7870
3FE0
1FC0
ENDCHAR
STARTCHAR ubreve
ENCODING 365
SWIDTH 620 0
DWIDTH 16 0
BBX 11 19 2 0
BITMAP
30C0
30C0
1F80
0F00
0000
E0E0
E0E0
E0E0
E0E0
E0E0
E0E0
E0E0
E0E0
E0E0
E0E0
E1E0
E3E0
7EE0
3CE0
ENDCHAR
STARTCHAR Uring
ENCODING 366
SWIDTH 693 0
DWIDTH 18 0
BBX 13 24 3 0
BITMAP
0600
0900
0900
0600
0000
E018
E018
E018
E018
E018
E018
E018
E018
E018
E018
E018
E018
E018
E018
E018
7038
7870
3FE0
1FC0
ENDCHAR
STARTCHAR uring
ENCODING 367
SWIDTH 620 0
DWIDTH 16 0
BBX 11 19 2 0
BITMAP
0600
0900
0900
0600
0000
E0E0
E0E0
E0E0
E0E0
E0E0
E0E0
E0E0
E0E0
E0E0
E0E0
E1E0
E3E0
7EE0
3CE0
ENDCHAR
STARTCHAR Uhungarumlaut
ENCODING 368
SWIDTH 693 0
DWIDTH 18 0
BBX 13 24 3 0
BITMAP
0360
06C0
0D80
1B00
0000
E018
E018
E018
E018
E018
E018
E018
E018
E018
E018
E018
E018
E018
E018
E018
7038
7870
3FE0
1FC0
ENDCHAR
STARTCHAR uhungarumlaut
ENCODING 369
SWIDTH 620 0
DWIDTH 16 0
BBX 11 19 2 0
BITMAP
06C0
0D80
1B00
3600
0000
E0E0
E0E0
E0E0
E0E0
E0E0
E0E0
E0E0
E0E0
E0E0
E0E0
E1E0
E3E0
7EE0
3CE0
ENDCHAR
STARTCHAR Uogonek
ENCODING 370
SWIDTH 693 0
DWIDTH 18 0
BBX 13 23 3 -4
BITMAP
E018
E018
E018
E018
E018
E018
E018
E018
E018
E018
E018
E018
E018
E018
E018
7038
7870
3FE0
1FC0
0300
0600
0600
0380
ENDCHAR
STARTCHAR uogonek
ENCODING 371
SWIDTH 620 0
DWIDTH 16 0
BBX 11 18 2 -4
BITMAP
E0E0
E0E0
E0E0
E0E0
E0E0
E0E0
E0E0
E0E0
E0E0
E0E0
E1E0
E3E0
7EE0
3CE0
0600
0C00
0C00
0700
ENDCHAR
STARTCHAR Wcircumflex
ENCODING 372
SWIDTH 855 0
DWIDTH 22 0
BBX 22 24 0 0
BITMAP
007800
007800
00CC00
018600
000000
E0380C
E0781C
E07818
707818
707C18
707C30
70DC30
38DC30
38DE30
38CE60
398E60
1D8E60
1D8EE0
1D87C0
1F87C0
0F07C0
0F0780
0F0380
0F0380
ENDCHAR
STARTCHAR wcircumflex
ENCODING 373
SWIDTH 840 0
DWIDTH 20 0
BBX 20 19 0 0
BITMAP
00F000
00F000
019800
030C00
000000
C06030
60F060
60F060
60F060
71F0C0
3198C0
3198C0
319980
1B1D80
1B0D80
1B0F00
1E0F00
0E0F00
0E0600
ENDCHAR
STARTCHAR Ycircumflex
ENCODING 374
SWIDTH 623 0
DWIDTH 16 0
BBX 16 24 0 0
BITMAP
0780
0780
0CC0
1860
0000
E007
7006
780C
381C
3C18
1C30
1E30
0F60
07E0
07C0
0380
0380
0380
0380
0380
0380
0380
0380
0380
ENDCHAR
STARTCHAR ycircumflex
ENCODING 375
SWIDTH 568 0
DWIDTH 14 0
BBX 13 24 0 -5
BITMAP
0F00
0F00
1980
30C0
0000
E018
F030
7030
7070
7860
3860
38C0
1CC0
1DC0
1D80
0F80
0F00
0F00
0700
0600
0600
0E00
0C00
1C00
ENDCHAR
STARTCHAR Ydieresis
ENCODING 376
SWIDTH 623 0
DWIDTH 16 0
BBX 16 22 0 0
BITMAP
0630
0630
0000
E007
7006
780C
381C
3C18
1C30
1E30
0F60
07E0
07C0
0380
0380
0380
0380
0380
0380
0380
0380
0380
ENDCHAR
STARTCHAR Zacute
ENCODING 377
SWIDTH 605 0
DWIDTH 16 0
BBX 13 24 1 0
BITMAP
00E0
01C0
0380
0700
0000
7FF8
7FF8
0078
0070
00F0
01E0
01C0
03C0
0780
0700
0F00
1E00
1C00
3C00
7800
7000
F000
FFF8
FFF8
ENDCHAR
STARTCHAR zacute
ENCODING 378
SWIDTH 573 0
DWIDTH 15 0
BBX 12 19 1 0
BITMAP
01C0
0380
0700
0E00
0000
FFF0
FFF0
0060
00C0
0180
0380
0700
0E00
1C00
3800
3000
6000
FFF0
FFF0
ENDCHAR
STARTCHAR Zdotaccent
ENCODING 379
SWIDTH 605 0
DWIDTH 16 0
BBX 13 23 1 0
BITMAP
0180
0180
0180
0000
7FF8
7FF8
0078
0070
00F0
01E0
01C0
03C0
0780
0700
0F00
1E00
1C00
3C00
7800
7000
F000
FFF8
FFF8
ENDCHAR
STARTCHAR zdotaccent
ENCODING 380
SWIDTH 573 0
DWIDTH 15 0
BBX 12 18 1 0
BITMAP
0600
0600
0600
0000
FFF0
FFF0
0060
00C0
0180
0380
0700
0E00
1C00
3800
3000
6000
FFF0
FFF0
ENDCHAR
STARTCHAR Zcaron
ENCODING 381
SWIDTH 605 0
DWIDTH 16 0
BBX 13 24 1 0
BITMAP
1860
0CC0
0780
0780
0000
7FF8
7FF8
0078
0070
00F0
01E0
01C0
03C0
0780
0700
0F00
1E00
1C00
3C00
7800
7000
F000
FFF8
FFF8
ENDCHAR
STARTCHAR zcaron
ENCODING 382
SWIDTH 573 0
DWIDTH 15 0
BBX 12 19 1 0
BITMAP
30C0
1980
0F00
0F00
0000
FFF0
FFF0
0060
00C0
0180
0380
0700
0E00
1C00
3800
3000
6000
FFF0
FFF0
ENDCHAR
STARTCHAR uni0186
ENCODING 390
SWIDTH 692 0
DWIDTH 18 0
BBX 15 19 1 0
BITMAP
3F80
FFF0
E0F8
8038
001C
001C
000E
000E
000E
000E
000E
000E
000E
001C
001C
0038
C0F8
FFE0
7F80
ENDCHAR
STARTCHAR uni0189
ENCODING 393
SWIDTH 749 0
DWIDTH 19 0
BBX 19 19 0 0
BITMAP
1FF800
1FFE00
1C0F80
1C0380
1C01C0
1C01C0
1C00E0
1C00E0
FFC0E0
FFC0E0
1C00E0
1C00E0
1C00E0
1C01C0
1C01C0
1C0380
1C0F00
1FFE00
1FF800
ENDCHAR
STARTCHAR uni018E
ENCODING 398
SWIDTH 542 0
DWIDTH 14 0
BBX 11 19 2 0
BITMAP
FFE0
FFE0
00E0
00E0
00E0
00E0
00E0
00E0
00E0
3FE0
3FE0
00E0
00E0
00E0
00E0
00E0
00E0
7FE0
7FE0
ENDCHAR
STARTCHAR florin
ENCODING 402
SWIDTH 633 0
DWIDTH 16 0
BBX 12 23 3 -4
BITMAP
01F0
07F0
0600
0E00
0E00
1C00
1C00
1C00
FF00
FF00
1C00
1C00
3800
3800
3800
3800
7800
7000
7000
7000
7000
E000
E000
ENDCHAR
STARTCHAR uni0197
ENCODING 407
SWIDTH 288 0
DWIDTH 7 0
BBX 3 19 2 0
BITMAP
E0
E0
E0
E0
E0
E0
E0
E0
E0
E0
E0
E0
E0
E0
E0
E0
E0
E0
E0
ENDCHAR
STARTCHAR uni019A
ENCODING 410
SWIDTH 289 0
DWIDTH 8 0
BBX 3 19 2 0
BITMAP
E0
E0
E0
E0
E0
E0
E0
E0
E0
E0
E0
E0
E0
E0
E0
E0
E0
E0
E0
ENDCHAR
STARTCHAR uni019D
ENCODING 413
SWIDTH 741 0
DWIDTH 19 0
BBX 19 24 -2 -5
BITMAP
070060
078060
078060
07C060
07E060
06E060
06F060
067860
063860
063C60
061C60
060E60
060F60
070760
0707E0
0703E0
0701E0
0701E0
0700E0
070000
070000
8E0000
FE0000
F80000
ENDCHAR
STARTCHAR uni019F
ENCODING 415
SWIDTH 777 0
DWIDTH 20 0
BBX 18 19 1 0
BITMAP
03F000
0FFC00
1E1E00
380700
700380
700380
E001C0
E001C0
FFFFC0
FFFFC0
E001C0
E001C0
E001C0
700380
700380
380700
1C0E00
0FFC00
03F000
ENDCHAR
STARTCHAR Ohorn
ENCODING 416
SWIDTH 777 0
DWIDTH 20 0
BBX 19 19 1 0
BITMAP
03F0E0
0FFCE0
1E1EE0
380760
7003E0
7003E0
E001C0
E001C0
E001C0
E001C0
E001C0
E001C0
E001C0
700380
700380
380700
1C0E00
0FFC00
03F000
ENDCHAR
STARTCHAR ohorn
ENCODING 417
SWIDTH 614 0
DWIDTH 16 0
BBX 15 14 1 0
BITMAP
0F8E
3FEE
78FE
7076
E03E
E03E
E03C
E038
E038
E038
7070
78F0
3FE0
0F80
ENDCHAR
STARTCHAR uni01A7
ENCODING 423
SWIDTH 539 0
DWIDTH 14 0
BBX 11 19 1 0
BITMAP
3F00
7FC0
61C0
00E0
00E0
00E0
01E0
07C0
0F80
3F00
7C00
7800
F000
E000
E000
E000
7060
3FE0
1FC0
ENDCHAR
STARTCHAR uni01A8
ENCODING 424
SWIDTH 510 0
DWIDTH 13 0
BBX 9 14 2 0
BITMAP
7E00
7F00
4780
0380
0380
0F80
3F00
7E00
F000
E000
E000
F080
7F80
3F00
ENDCHAR
STARTCHAR uni01AE
ENCODING 430
SWIDTH 633 0
DWIDTH 16 0
BBX 17 24 0 -5
BITMAP
FFFF80
FFFF80
01C000
01C000
01C000
01C000
01C000
01C000
01C000
01C000
01C000
01C000
01C000
01C000
01C000
01C000
01C000
01C000
01C000
01C000
01C000
00E200
00FE00
003E00
ENDCHAR
STARTCHAR Uhorn
ENCODING 431
SWIDTH 693 0
DWIDTH 18 0
BBX 15 19 3 0
BITMAP
E01E
E01E
E01E
E01E
E01E
E01E
E01C
E018
E018
E018
E018
E018
E018
E018
E018
7038
7870
3FE0
1FC0
ENDCHAR
STARTCHAR uhorn
ENCODING 432
SWIDTH 620 0
DWIDTH 16 0
BBX 13 14 2 0
BITMAP
E0F8
E0F8
E0F8
E0F8
E0F8
E0F8
E0F0
E0E0
E0E0
E0E0
E1E0
E3E0
7EE0
3CE0
ENDCHAR
STARTCHAR uni01B5
ENCODING 437
SWIDTH 605 0
DWIDTH 16 0
BBX 13 19 1 0
BITMAP
7FF8
7FF8
0078
0070
00F0
01E0
01C0
03C0
0780
0700
0F00
1E00
1C00
3C00
7800
7000
F000
FFF8
FFF8
ENDCHAR
STARTCHAR uni01B6
ENCODING 438
SWIDTH 573 0
DWIDTH 15 0
BBX 12 14 1 0
BITMAP
FFF0
FFF0
0060
00C0
0180
0380
0700
0F00
1C00
3800
3000
6000
FFF0
FFF0
ENDCHAR
STARTCHAR uni01BB
ENCODING 443
SWIDTH 633 0
DWIDTH 16 0
BBX 12 19 2 0
BITMAP
3F80
FFC0
E1E0
8070
0070
0070
0070
0060
FFF0
FFF0
0380
0F00
1C00
3800
3000
7000
E000
FFF0
FFF0
ENDCHAR
STARTCHAR uni01BC
ENCODING 444
SWIDTH 633 0
DWIDTH 16 0
BBX 10 19 3 0
BITMAP
FFC0
FFC0
C000
C000
C000
C000
C000
FC00
FF00
0780
03C0
01C0
01C0
01C0
01C0
03C0
8780
FF00
FC00
ENDCHAR
STARTCHAR uni01C0
ENCODING 448
SWIDTH 265 0
DWIDTH 7 0
BBX 2 23 2 -4
BITMAP
C0
C0
C0
C0
C0
C0
C0
C0
C0
C0
C0
C0
C0
C0
C0
C0
C0
C0
C0
C0
C0
C0
C0
ENDCHAR
STARTCHAR uni01C2
ENCODING 450
SWIDTH 633 0
DWIDTH 16 0
BBX 15 23 1 -4
BITMAP
0180
0180
0180
0180
0180
0180
0180
0180
FFFE
FFFE
0180
0180
0180
FFFE
FFFE
0180
0180
0180
0180
0180
0180
0180
0180
ENDCHAR
STARTCHAR uni01C3
ENCODING 451
SWIDTH 205 0
DWIDTH 8 0
BBX 2 19 3 0
BITMAP
C0
C0
C0
C0
C0
C0
C0
C0
C0
C0
C0
C0
C0
C0
00
00
C0
C0
C0
ENDCHAR
STARTCHAR uni01CD
ENCODING 461
SWIDTH 690 0
DWIDTH 18 0
BBX 17 24 0 0
BITMAP
061800
033000
01E000
01E000
000000
01C000
01E000
03E000
03E000
037000
067000
067000
063800
0C3800
0C3C00
1C1C00
181C00
1FFE00
3FFE00
300E00
700700
600700
600380
C00380
ENDCHAR
STARTCHAR uni01CE
ENCODING 462
SWIDTH 552 0
DWIDTH 14 0
BBX 12 19 2 0
BITMAP
30C0
1980
0F00
0F00
0000
1F80
7FC0
41C0
01C0
01C0
01C0
1FC0
7FC0
F1C0
E1C0
E1C0
E3C0
7EF0
3C70
ENDCHAR
STARTCHAR uni01CF
ENCODING 463
SWIDTH 288 0
DWIDTH 7 0
BBX 8 24 0 0
BITMAP
C3
66
3C
3C
00
38
38
38
38
38
38
38
38
38
38
38
38
38
38
38
38
38
38
38
ENDCHAR
STARTCHAR uni01D0
ENCODING 464
SWIDTH 289 0
DWIDTH 8 0
BBX 8 19 0 0
BITMAP
C3
66
3C
3C
00
38
38
38
38
38
38
38
38
38
38
38
38
38
38
ENDCHAR
STARTCHAR uni01D1
ENCODING 465
SWIDTH 777 0
DWIDTH 20 0
BBX 18 24 1 0
BITMAP
061800
033000
01E000
01E000
000000
03F000
0FFC00
1E1E00
380700
700380
700380
E001C0
E001C0
E001C0
E001C0
E001C0
E001C0
E001C0
700380
700380
380700
1C0E00
0FFC00
03F000
ENDCHAR
STARTCHAR uni01D2
ENCODING 466
SWIDTH 614 0
DWIDTH 16 0
BBX 13 19 1 0
BITMAP
1860
0CC0
0780
0780
0000
0F80
3FE0
78F0
7070
E038
E038
E038
E038
E038
E038
7070
78F0
3FE0
0F80
ENDCHAR
STARTCHAR uni01D3
ENCODING 467
SWIDTH 693 0
DWIDTH 18 0
BBX 13 24 3 0
BITMAP
30C0
1980
0F00
0F00
0000
E018
E018
E018
E018
E018
E018
E018
E018
E018
E018
E018
E018
E018
E018
E018
7038
7870
3FE0
1FC0
ENDCHAR
STARTCHAR uni01D4
ENCODING 468
SWIDTH 620 0
DWIDTH 16 0
BBX 11 19 2 0
BITMAP
30C0
1980
0F00
0F00
0000
E0E0
E0E0
E0E0
E0E0
E0E0
E0E0
E0E0
E0E0
E0E0
E0E0
E1E0
E3E0
7EE0
3CE0
ENDCHAR
STARTCHAR uni01D5
ENCODING 469
SWIDTH 693 0
DWIDTH 18 0
BBX 13 25 3 0
BITMAP
1FC0
1FC0
0000
18C0
18C0
0000
E018
E018
E018
E018
E018
E018
E018
E018
E018
E018
E018
E018
E018
E018
E018
7038
7870
3FE0
1FC0
ENDCHAR
STARTCHAR uni01D6
ENCODING 470
SWIDTH 620 0
DWIDTH 16 0
BBX 11 20 2 0
BITMAP
3F80
3F80
0000
3180
3180
0000
E0E0
E0E0
E0E0
E0E0
E0E0
E0E0
E0E0
E0E0
E0E0
E0E0
E1E0
E3E0
7EE0
3CE0
ENDCHAR
STARTCHAR uni01D7
ENCODING 471
SWIDTH 693 0
DWIDTH 18 0
BBX 13 27 3 0
BITMAP
01C0
0380
0700
0E00
0000
18C0
18C0
0000
E018
E018
E018
E018
E018
E018
E018
E018
E018
E018
E018
E018
E018
E018
E018
7038
7870
3FE0
1FC0
ENDCHAR
STARTCHAR uni01D8
ENCODING 472
SWIDTH 620 0
DWIDTH 16 0
BBX 11 22 2 0
BITMAP
0380
0700
0E00
1C00
0000
3180
3180
0000
E0E0
E0E0
E0E0
E0E0
E0E0
E0E0
E0E0
E0E0
E0E0
E0E0
E1E0
E3E0
7EE0
3CE0
ENDCHAR
STARTCHAR uni01D9
ENCODING 473
SWIDTH 693 0
DWIDTH 18 0
BBX 13 27 3 0
BITMAP
30C0
1980
0F00
0F00
0000
18C0
18C0
0000
E018
E018
E018
E018
E018
E018
E018
E018
E018
E018
E018
E018
E018
E018
E018
7038
7870
3FE0
1FC0
ENDCHAR
STARTCHAR uni01DA
ENCODING 474
SWIDTH 620 0
DWIDTH 16 0
BBX 11 22 2 0
BITMAP
30C0
1980
0F00
0F00
0000
3180
3180
0000
E0E0
E0E0
E0E0
E0E0
E0E0
E0E0
E0E0
E0E0
E0E0
E0E0
E1E0
E3E0
7EE0
3CE0
ENDCHAR
STARTCHAR uni01DB
ENCODING 475
SWIDTH 693 0
DWIDTH 18 0
BBX 13 27 3 0
BITMAP
3800
1C00
0E00
0700
0000
18C0
18C0
0000
E018
E018
E018
E018
E018
E018
E018
E018
E018
E018
E018
E018
E018
E018
E018
7038
7870
3FE0
1FC0
ENDCHAR
STARTCHAR uni01DC
ENCODING 476
SWIDTH 620 0
DWIDTH 16 0
BBX 11 22 2 0
BITMAP
3800
1C00
0E00
0700
0000
3180
3180
0000
E0E0
E0E0
E0E0
E0E0
E0E0
E0E0
E0E0
E0E0
E0E0
E0E0
E1E0
E3E0
7EE0
3CE0
ENDCHAR
STARTCHAR uni01DD
ENCODING 477
SWIDTH 557 0
DWIDTH 14 0
BBX 12 14 1 0
BITMAP
7F00
FF80
83E0
00E0
0070
0070
FFF0
FFF0
E070
E070
60E0
70E0
3FC0
1F00
ENDCHAR
STARTCHAR uni01DE
ENCODING 478
SWIDTH 690 0
DWIDTH 18 0
BBX 17 25 0 0
BITMAP
07F000
07F000
000000
063000
063000
000000
01C000
01E000
03E000
03E000
037000
067000
067000
063800
0C3800
0C3C00
1C1C00
181C00
1FFE00
3FFE00
300E00
700700
600700
600380
C00380
ENDCHAR
STARTCHAR uni01DF
ENCODING 479
SWIDTH 552 0
DWIDTH 14 0
BBX 12 20 2 0
BITMAP
3F80
3F80
0000
3180
3180
0000
1F80
7FC0
41C0
01C0
01C0
01C0
1FC0
7FC0
F1C0
E1C0
E1C0
E3C0
7EF0
3C70
ENDCHAR
STARTCHAR uni01E0
ENCODING 480
SWIDTH 690 0
DWIDTH 18 0
BBX 17 26 0 0
BITMAP
07F000
07F000
000000
00C000
00C000
00C000
000000
01C000
01E000
03E000
03E000
037000
067000
067000
063800
0C3800
0C3C00
1C1C00
181C00
1FFE00
3FFE00
300E00
700700
600700
600380
C00380
ENDCHAR
STARTCHAR uni01E1
ENCODING 481
SWIDTH 552 0
DWIDTH 14 0
BBX 12 21 2 0
BITMAP
1FC0
1FC0
0000
0600
0600
0600
0000
1F80
7FC0
41C0
01C0
01C0
01C0
1FC0
7FC0
F1C0
E1C0
E1C0
E3C0
7EF0
3C70
ENDCHAR
STARTCHAR uni01E2
ENCODING 482
SWIDTH 907 0
DWIDTH 24 0
BBX 23 22 0 0
BITMAP
003F80
003F80
000000
001FFC
003FFC
003E00
006E00
006E00
00CE00
00CE00
018E00
038FF8
030FF8
060E00
060E00
0FFE00
1FFE00
180E00
380E00
300E00
600FFE
E00FFE
ENDCHAR
STARTCHAR uni01E3
ENCODING 483
SWIDTH 853 0
DWIDTH 22 0
BBX 19 17 1 0
BITMAP
03F800
03F800
000000
1F9F00
7FFF80
60F1C0
00F0C0
00E0E0
00E0E0
0FFFE0
7FFFE0
70E000
E0E000
E0F000
F17820
7E3FE0
3C0FC0
ENDCHAR
STARTCHAR uni01E4
ENCODING 484
SWIDTH 723 0
DWIDTH 19 0
BBX 15 19 1 0
BITMAP
03FC
0FFE
3E06
3800
7000
7000
E000
E000
E000
E000
E00E
E00E
E00E
700E
700E
380E
3E0E
1FFE
07F8
ENDCHAR
STARTCHAR uni01E5
ENCODING 485
SWIDTH 623 0
DWIDTH 16 0
BBX 12 19 2 -5
BITMAP
1E70
3FF0
78F0
7070
E070
E070
E070
E070
E070
E070
F0F0
71F0
3F70
FFF0
FFF0
0060
40E0
7FC0
3F80
ENDCHAR
STARTCHAR Gcaron
ENCODING 486
SWIDTH 723 0
DWIDTH 19 0
BBX 15 24 1 0
BITMAP
0C30
0660
03C0
03C0
0000
03FC
0FFE
3E06
3800
7000
7000
E000
E000
E000
E000
E00E
E00E
E00E
700E
700E
380E
3E0E
1FFE
07F8
ENDCHAR
STARTCHAR gcaron
ENCODING 487
SWIDTH 623 0
DWIDTH 16 0
BBX 12 24 2 -5
BITMAP
30C0
1980
0F00
0F00
0000
1E70
3FF0
78F0
7070
E070
E070
E070
E070
E070
E070
F0F0
71F0
3F70
1E70
0070
0060
40E0
7FC0
3F80
ENDCHAR
STARTCHAR uni01E8
ENCODING 488
SWIDTH 653 0
DWIDTH 17 0
BBX 14 24 2 0
BITMAP
30C0
1980
0F00
0F00
0000
E038
E070
E0E0
E0C0
E180
E380
E700
EE00
EC00
FE00
EE00
EF00
E780
E3C0
E1E0
E0E0
E0F0
E078
E03C
ENDCHAR
STARTCHAR uni01E9
ENCODING 489
SWIDTH 585 0
DWIDTH 15 0
BBX 14 24 1 0
BITMAP
C300
6600
3C00
3C00
0000
7000
7000
7000
7000
7000
7038
7060
70E0
71C0
7380
7700
7E00
7F00
7780
73C0
71E0
70F0
7078
703C
ENDCHAR
STARTCHAR uni01EA
ENCODING 490
SWIDTH 777 0
DWIDTH 20 0
BBX 18 23 1 -4
BITMAP
03F000
0FFC00
1E1E00
380700
700380
700380
E001C0
E001C0
E001C0
E001C0
E001C0
E001C0
E001C0
700380
700380
380700
1C0E00
0FFC00
03F000
00C000
018000
018000
00E000
ENDCHAR
STARTCHAR uni01EB
ENCODING 491
SWIDTH 614 0
DWIDTH 16 0
BBX 13 18 1 -4
BITMAP
0F80
3FE0
78F0
7070
E038
E038
E038
E038
E038
E038
7070
78F0
3FE0
0F80
0300
0600
0600
0380
ENDCHAR
STARTCHAR uni01EC
ENCODING 492
SWIDTH 777 0
DWIDTH 20 0
BBX 18 26 1 -4
BITMAP
03F800
03F800
000000
03F000
0FFC00
1E1E00
380700
700380
700380
E001C0
E001C0
E001C0
E001C0
E001C0
E001C0
E001C0
700380
700380
380700
1C0E00
0FFC00
03F000
00C000
018000
018000
00E000
ENDCHAR
STARTCHAR uni01ED
ENCODING 493
SWIDTH 614 0
DWIDTH 16 0
BBX 13 21 1 -4
BITMAP
1FC0
1FC0
0000
0F80
3FE0
78F0
7070
E038
E038
E038
E038
E038
E038
7070
78F0
3FE0
0F80
0300
0600
0600
0380
ENDCHAR
STARTCHAR uni01F0
ENCODING 496
SWIDTH 304 0
DWIDTH 8 0
BBX 10 24 -1 -5
BITMAP
30C0
1980
0F00
0F00
0000
0700
0700
0700
0700
0700
0700
0700
0700
0700
0700
0700
0700
0700
0700
0700
0700
8E00
FE00
F800
ENDCHAR
STARTCHAR uni01F4
ENCODING 500
SWIDTH 723 0
DWIDTH 19 0
BBX 15 24 1 0
BITMAP
00E0
01C0
0380
0700
0000
03FC
0FFE
3E06
3800
7000
7000
E000
E000
E000
E000
E00E
E00E
E00E
700E
700E
380E
3E0E
1FFE
07F8
ENDCHAR
STARTCHAR uni01F5
ENCODING 501
SWIDTH 623 0
DWIDTH 16 0
BBX 12 24 2 -5
BITMAP
01C0
0380
0700
0E00
0000
1E70
3FF0
78F0
7070
E070
E070
E070
E070
E070
E070
F0F0
71F0
3F70
1E70
0070
0060
40E0
7FC0
3F80
ENDCHAR
STARTCHAR uni01F8
ENCODING 504
SWIDTH 741 0
DWIDTH 19 0
BBX 14 24 3 0
BITMAP
3800
1C00
0E00
0700
0000
E00C
F00C
F00C
F80C
FC0C
DC0C
DE0C
CF0C
C70C
C78C
C38C
C1CC
C1EC
C0EC
C0FC
C07C
C03C
C03C
C01C
ENDCHAR
STARTCHAR uni01F9
ENCODING 505
SWIDTH 620 0
DWIDTH 16 0
BBX 11 19 3 0
BITMAP
3800
1C00
0E00
0700
0000
E780
EFC0
F8E0
F0E0
E0E0
E0E0
E0E0
E0E0
E0E0
E0E0
E0E0
E0E0
E0E0
E0E0
ENDCHAR
STARTCHAR Aringacute
ENCODING 506
SWIDTH 690 0
DWIDTH 18 0
BBX 17 29 0 0
BITMAP
007000
00E000
01C000
038000
000000
00C000
012000
012000
00C000
000000
01C000
01E000
03E000
03E000
037000
067000
067000
063800
0C3800
0C3C00
1C1C00
181C00
1FFE00
3FFE00
300E00
700700
600700
600380
C00380
ENDCHAR
STARTCHAR aringacute
ENCODING 507
SWIDTH 552 0
DWIDTH 14 0
BBX 12 24 2 0
BITMAP
01C0
0380
0700
0E00
0000
0600
0900
0900
0600
0000
1F80
7FC0
41C0
01C0
01C0
01C0
1FC0
7FC0
F1C0
E1C0
E1C0
E3C0
7EF0
3C70
ENDCHAR
STARTCHAR AEacute
ENCODING 508
SWIDTH 907 0
DWIDTH 24 0
BBX 23 24 0 0
BITMAP
000380
000700
000E00
001C00
000000
001FFC
003FFC
003E00
006E00
006E00
00CE00
00CE00
018E00
038FF8
030FF8
060E00
060E00
0FFE00
1FFE00
180E00
380E00
300E00
600FFE
E00FFE
ENDCHAR
STARTCHAR aeacute
ENCODING 509
SWIDTH 853 0
DWIDTH 22 0
BBX 19 19 1 0
BITMAP
003800
007000
00E000
01C000
000000
1F9F00
7FFF80
60F1C0
00F0C0
00E0E0
00E0E0
0FFFE0
7FFFE0
70E000
E0E000
E0F000
F17820
7E3FE0
3C0FC0
ENDCHAR
STARTCHAR Oslashacute
ENCODING 510
SWIDTH 777 0
DWIDTH 20 0
BBX 18 24 1 0
BITMAP
001C00
003800
007000
00E000
000000
03F1C0
0FFF80
1E1F00
380700
700F80
701F80
E039C0
E071C0
E061C0
E0C1C0
E181C0
E381C0
E701C0
7E0380
7C0380
380700
3C0E00
7FFC00
E3F000
ENDCHAR
STARTCHAR oslashacute
ENCODING 511
SWIDTH 614 0
DWIDTH 16 0
BBX 13 19 1 0
BITMAP
00E0
01C0
0380
0700
0000
0FB8
3FF0
78F0
70F0
E1F8
E3B8
E338
E638
EE38
FC38
7870
78F0
7FE0
EF80
ENDCHAR
STARTCHAR uni0200
ENCODING 512
SWIDTH 690 0
DWIDTH 18 0
BBX 17 24 0 0
BITMAP
0D8000
06C000
036000
01B000
000000
01C000
01E000
03E000
03E000
037000
067000
067000
063800
0C3800
0C3C00
1C1C00
181C00
1FFE00
3FFE00
300E00
700700
600700
600380
C00380
ENDCHAR
STARTCHAR uni0201
ENCODING 513
SWIDTH 552 0
DWIDTH 14 0
BBX 12 19 2 0
BITMAP
3600
1B00
0D80
06C0
0000
1F80
7FC0
41C0
01C0
01C0
01C0
1FC0
7FC0
F1C0
E1C0
E1C0
E3C0
7EF0
3C70
ENDCHAR
STARTCHAR uni0202
ENCODING 514
SWIDTH 690 0
DWIDTH 18 0
BBX 17 24 0 0
BITMAP
01E000
03F000
061800
061800
000000
01C000
01E000
03E000
03E000
037000
067000
067000
063800
0C3800
0C3C00
1C1C00
181C00
1FFE00
3FFE00
300E00
700700
600700
600380
C00380
ENDCHAR
STARTCHAR uni0203
ENCODING 515
SWIDTH 552 0
DWIDTH 14 0
BBX 12 19 2 0
BITMAP
0F00
1F80
30C0
30C0
0000
1F80
7FC0
41C0
01C0
01C0
01C0
1FC0
7FC0
F1C0
E1C0
E1C0
E3C0
7EF0
3C70
ENDCHAR
STARTCHAR uni0204
ENCODING 516
SWIDTH 542 0
DWIDTH 14 0
BBX 11 24 2 0
BITMAP
D800
6C00
3600
1B00
0000
FFC0
FFC0
E000
E000
E000
E000
E000
E000
FF80
FF80
E000
E000
E000
E000
E000
E000
E000
FFE0
FFE0
ENDCHAR
STARTCHAR uni0205
ENCODING 517
SWIDTH 557 0
DWIDTH 14 0
BBX 12 19 1 0
BITMAP
6C00
3600
1B00
0D80
0000
0F80
3FC0
70E0
7060
E070
E070
FFF0
FFF0
E000
E000
7000
7C10
1FF0
0FE0
ENDCHAR
STARTCHAR uni0206
ENCODING 518
SWIDTH 542 0
DWIDTH 14 0
BBX 11 24 2 0
BITMAP
3C00
7E00
C300
C300
0000
FFC0
FFC0
E000
E000
E000
E000
E000
E000
FF80
FF80
E000
E000
E000
E000
E000
E000
E000
FFE0
FFE0
ENDCHAR
STARTCHAR uni0207
ENCODING 519
SWIDTH 557 0
DWIDTH 14 0
BBX 12 19 1 0
BITMAP
0F00
1F80
30C0
30C0
0000
0F80
3FC0
70E0
7060
E070
E070
FFF0
FFF0
E000
E000
7000
7C10
1FF0
0FE0
ENDCHAR
STARTCHAR uni0208
ENCODING 520
SWIDTH 288 0
DWIDTH 7 0
BBX 8 24 -1 0
BITMAP
D8
6C
36
1B
00
1C
1C
1C
1C
1C
1C
1C
1C
1C
1C
1C
1C
1C
1C
1C
1C
1C
1C
1C
ENDCHAR
STARTCHAR uni0209
ENCODING 521
SWIDTH 289 0
DWIDTH 8 0
BBX 8 19 -1 0
BITMAP
D8
6C
36
1B
00
1C
1C
1C
1C
1C
1C
1C
1C
1C
1C
1C
1C
1C
1C
ENDCHAR
STARTCHAR uni020A
ENCODING 522
SWIDTH 288 0
DWIDTH 7 0
BBX 8 24 0 0
BITMAP
3C
7E
C3
C3
00
38
38
38
38
38
38
38
38
38
38
38
38
38
38
38
38
38
38
38
ENDCHAR
STARTCHAR uni020B
ENCODING 523
SWIDTH 289 0
DWIDTH 8 0
BBX 8 19 0 0
BITMAP
3C
7E
C3
C3
00
38
38
38
38
38
38
38
38
38
38
38
38
38
38
ENDCHAR
STARTCHAR uni020C
ENCODING 524
SWIDTH 777 0
DWIDTH 20 0
BBX 18 24 1 0
BITMAP
0D8000
06C000
036000
01B000
000000
03F000
0FFC00
1E1E00
380700
700380
700380
E001C0
E001C0
E001C0
E001C0
E001C0
E001C0
E001C0
700380
700380
380700
1C0E00
0FFC00
03F000
ENDCHAR
STARTCHAR uni020D
ENCODING 525
SWIDTH 614 0
DWIDTH 16 0
BBX 13 19 1 0
BITMAP
3600
1B00
0D80
06C0
0000
0F80
3FE0
78F0
7070
E038
E038
E038
E038
E038
E038
7070
78F0
3FE0
0F80
ENDCHAR
STARTCHAR uni020E
ENCODING 526
SWIDTH 777 0
DWIDTH 20 0
BBX 18 24 1 0
BITMAP
01E000
03F000
061800
061800
000000
03F000
0FFC00
1E1E00
380700
700380
700380
E001C0
E001C0
E001C0
E001C0
E001C0
E001C0
E001C0
700380
700380
380700
1C0E00
0FFC00
03F000
ENDCHAR
STARTCHAR uni020F
ENCODING 527
SWIDTH 614 0
DWIDTH 16 0
BBX 13 19 1 0
BITMAP
0780
0FC0
1860
1860
0000
0F80
3FE0
78F0
7070
E038
E038
E038
E038
E038
E038
7070
78F0
3FE0
0F80
ENDCHAR
STARTCHAR uni0210
ENCODING 528
SWIDTH 633 0
DWIDTH 16 0
BBX 13 24 3 0
BITMAP
6C00
3600
1B00
0D80
0000
FF00
FFC0
E1E0
E0E0
E0E0
E0E0
E0E0
E1C0
E380
FF00
FF00
E700
E380
E3C0
E1C0
E1E0
E0F0
E070
E078
ENDCHAR
STARTCHAR uni0211
ENCODING 529
SWIDTH 409 0
DWIDTH 11 0
BBX 9 19 1 0
BITMAP
D800
6C00
3600
1B00
0000
7380
7780
7C00
7800
7000
7000
7000
7000
7000
7000
7000
7000
7000
7000
ENDCHAR
STARTCHAR uni0212
ENCODING 530
SWIDTH 633 0
DWIDTH 16 0
BBX 13 24 3 0
BITMAP
0F00
1F80
30C0
30C0
0000
FF00
FFC0
E1E0
E0E0
E0E0
E0E0
E0E0
E1C0
E380
FF00
FF00
E700
E380
E3C0
E1C0
E1E0
E0F0
E070
E078
ENDCHAR
STARTCHAR uni0213
ENCODING 531
SWIDTH 409 0
DWIDTH 11 0
BBX 8 19 2 0
BITMAP
3C
7E
C3
C3
00
E7
EF
F8
F0
E0
E0
E0
E0
E0
E0
E0
E0
E0
E0
ENDCHAR
STARTCHAR uni0214
ENCODING 532
SWIDTH 693 0
DWIDTH 18 0
BBX 13 24 3 0
BITMAP
6C00
3600
1B00
0D80
0000
E018
E018
E018
E018
E018
E018
E018
E018
E018
E018
E018
E018
E018
E018
E018
7038
7870
3FE0
1FC0
ENDCHAR
STARTCHAR uni0215
ENCODING 533
SWIDTH 620 0
DWIDTH 16 0
BBX 11 19 2 0
BITMAP
6C00
3600
1B00
0D80
0000
E0E0
E0E0
E0E0
E0E0
E0E0
E0E0
E0E0
E0E0
E0E0
E0E0
E1E0
E3E0
7EE0
3CE0
ENDCHAR
STARTCHAR uni0216
ENCODING 534
SWIDTH 693 0
DWIDTH 18 0
BBX 13 24 3 0
BITMAP
0F00
1F80
30C0
30C0
0000
E018
E018
E018
E018
E018
E018
E018
E018
E018
E018
E018
E018
E018
E018
E018
7038
7870
3FE0
1FC0
ENDCHAR
STARTCHAR uni0217
ENCODING 535
SWIDTH 620 0
DWIDTH 16 0
BBX 11 19 2 0
BITMAP
0F00
1F80
30C0
30C0
0000
E0E0
E0E0
E0E0
E0E0
E0E0
E0E0
E0E0
E0E0
E0E0
E0E0
E1E0
E3E0
7EE0
3CE0
ENDCHAR
STARTCHAR Scommaaccent
ENCODING 536
SWIDTH 539 0
DWIDTH 14 0
BBX 11 29 1 -10
BITMAP
1F80
7FC0
70C0
E000
E000
E000
F000
7C00
3E00
1F80
07C0
03C0
01E0
00E0
00E0
00E0
C1C0
FF80
7F00
0000
0E00
0E00
0E00
0E00
0600
0600
0600
0C00
0800
ENDCHAR
STARTCHAR scommaaccent
ENCODING 537
SWIDTH 510 0
DWIDTH 13 0
BBX 9 24 2 -10
BITMAP
3F00
7F00
F100
E000
E000
F800
7E00
3F00
0780
0380
0380
8780
FF00
7E00
0000
1C00
1C00
1C00
1C00
0C00
0C00
0C00
1800
1000
ENDCHAR
STARTCHAR Tcommaaccent
ENCODING 538
SWIDTH 633 0
DWIDTH 16 0
BBX 17 29 0 -10
BITMAP
FFFF80
FFFF80
01C000
01C000
01C000
01C000
01C000
01C000
01C000
01C000
01C000
01C000
01C000
01C000
01C000
01C000
01C000
01C000
01C000
000000
01C000
01C000
01C000
01C000
00C000
00C000
00C000
018000
010000
ENDCHAR
STARTCHAR tcommaaccent
ENCODING 539
SWIDTH 374 0
DWIDTH 10 0
BBX 9 27 0 -10
BITMAP
3800
3800
3800
FF80
FF80
3800
3800
3800
3800
3800
3800
3800
3800
3800
3C00
1F80
0F80
0000
1C00
1C00
1C00
1C00
0C00
0C00
0C00
1800
1000
ENDCHAR
STARTCHAR uni021E
ENCODING 542
SWIDTH 735 0
DWIDTH 19 0
BBX 14 24 3 0
BITMAP
1860
0CC0
0780
0780
0000
E01C
E01C
E01C
E01C
E01C
E01C
E01C
E01C
FFFC
FFFC
E01C
E01C
E01C
E01C
E01C
E01C
E01C
E01C
E01C
ENDCHAR
STARTCHAR uni021F
ENCODING 543
SWIDTH 620 0
DWIDTH 16 0
BBX 12 24 2 0
BITMAP
C300
6600
3C00
3C00
0000
7000
7000
7000
7000
7000
73C0
77E0
7C70
7870
7070
7070
7070
7070
7070
7070
7070
7070
7070
7070
ENDCHAR
STARTCHAR uni0226
ENCODING 550
SWIDTH 690 0
DWIDTH 18 0
BBX 17 23 0 0
BITMAP
00C000
00C000
00C000
000000
01C000
01E000
03E000
03E000
037000
067000
067000
063800
0C3800
0C3C00
1C1C00
181C00
1FFE00
3FFE00
300E00
700700
600700
600380
C00380
ENDCHAR
STARTCHAR uni0227
ENCODING 551
SWIDTH 552 0
DWIDTH 14 0
BBX 12 18 2 0
BITMAP
0600
0600
0600
0000
1F80
7FC0
41C0
01C0
01C0
01C0
1FC0
7FC0
F1C0
E1C0
E1C0
E3C0
7EF0
3C70
ENDCHAR
STARTCHAR uni0228
ENCODING 552
SWIDTH 542 0
DWIDTH 14 0
BBX 11 24 2 -5
BITMAP
FFC0
FFC0
E000
E000
E000
E000
E000
E000
FF80
FF80
E000
E000
E000
E000
E000
E000
E000
FFE0
FFE0
0800
0E00
0600
0600
1C00
ENDCHAR
STARTCHAR uni0229
ENCODING 553
SWIDTH 557 0
DWIDTH 14 0
BBX 12 19 1 -5
BITMAP
0F80
3FC0
70E0
7060
E070
E070
FFF0
FFF0
E000
E000
7000
7C10
1FF0
0FE0
0400
0700
0300
0300
0E00
ENDCHAR
STARTCHAR uni022A
ENCODING 554
SWIDTH 777 0
DWIDTH 20 0
BBX 18 25 1 0
BITMAP
07F000
07F000
000000
063000
063000
000000
03F000
0FFC00
1E1E00
380700
700380
700380
E001C0
E001C0
E001C0
E001C0
E001C0
E001C0
E001C0
700380
700380
380700
1C0E00
0FFC00
03F000
ENDCHAR
STARTCHAR uni022B
ENCODING 555
SWIDTH 614 0
DWIDTH 16 0
BBX 13 20 1 0
BITMAP
1FC0
1FC0
0000
18C0
18C0
0000
0F80
3FE0
78F0
7070
E038
E038
E038
E038
E038
E038
7070
78F0
3FE0
0F80
ENDCHAR
STARTCHAR uni022C
ENCODING 556
SWIDTH 777 0
DWIDTH 20 0
BBX 18 26 1 0
BITMAP
07F000
07F000
000000
038800
07F800
067000
000000
03F000
0FFC00
1E1E00
380700
700380
700380
E001C0
E001C0
E001C0
E001C0
E001C0
E001C0
E001C0
700380
700380
380700
1C0E00
0FFC00
03F000
ENDCHAR
STARTCHAR uni022D
ENCODING 557
SWIDTH 614 0
DWIDTH 16 0
BBX 13 21 1 0
BITMAP
1FC0
1FC0
0000
0E20
1FE0
19C0
0000
0F80
3FE0
78F0
7070
E038
E038
E038
E038
E038
E038
7070
78F0
3FE0
0F80
ENDCHAR
STARTCHAR uni022E
ENCODING 558
SWIDTH 777 0
DWIDTH 20 0
BBX 18 23 1 0
BITMAP
00C000
00C000
00C000
000000
03F000
0FFC00
1E1E00
380700
700380
700380
E001C0
E001C0
E001C0
E001C0
E001C0
E001C0
E001C0
700380
700380
380700
1C0E00
0FFC00
03F000
ENDCHAR
STARTCHAR uni022F
ENCODING 559
SWIDTH 614 0
DWIDTH 16 0
BBX 13 18 1 0
BITMAP
0300
0300
0300
0000
0F80
3FE0
78F0
7070
E038
E038
E038
E038
E038
E038
7070
78F0
3FE0
0F80
ENDCHAR
STARTCHAR uni0230
ENCODING 560
SWIDTH 777 0
DWIDTH 20 0
BBX 18 26 1 0
BITMAP
03F800
03F800
000000
00C000
00C000
00C000
000000
03F000
0FFC00
1E1E00
380700
700380
700380
E001C0
E001C0
E001C0
E001C0
E001C0
E001C0
E001C0
700380
700380
380700
1C0E00
0FFC00
03F000
ENDCHAR
STARTCHAR uni0231
ENCODING 561
SWIDTH 614 0
DWIDTH 16 0
BBX 13 21 1 0
BITMAP
1FC0
1FC0
0000
0300
0300
0300
0000
0F80
3FE0
78F0
7070
E038
E038
E038
E038
E038
E038
7070
78F0
3FE0
0F80
ENDCHAR
STARTCHAR uni0232
ENCODING 562
SWIDTH 623 0
DWIDTH 16 0
BBX 16 22 0 0
BITMAP
0FE0
0FE0
0000
E007
7006
780C
381C
3C18
1C30
1E30
0F60
07E0
07C0
0380
0380
0380
0380
0380
0380
0380
0380
0380
ENDCHAR
STARTCHAR uni0233
ENCODING 563
SWIDTH 568 0
DWIDTH 14 0
BBX 13 22 0 -5
BITMAP
3F80
3F80
0000
E018
F030
7030
7070
7860
3860
38C0
1CC0
1DC0
1D80
0F80
0F00
0F00
0700
0600
0600
0E00
0C00
1C00
ENDCHAR
STARTCHAR uni0250
ENCODING 592
SWIDTH 552 0
DWIDTH 14 0
BBX 12 14 2 0
BITMAP
E3C0
F7E0
3C70
3870
3870
38F0
3FE0
3F80
3800
3800
3800
3820
3FE0
1F80
ENDCHAR
STARTCHAR uni0254
ENCODING 596
SWIDTH 518 0
DWIDTH 13 0
BBX 11 14 1 0
BITMAP
FE00
FF80
83C0
01C0
00E0
00E0
00E0
00E0
00E0
00E0
01C0
83C0
FF80
7E00
ENDCHAR
STARTCHAR uni0258
ENCODING 600
SWIDTH 557 0
DWIDTH 14 0
BBX 12 14 1 0
BITMAP
1F00
3FC0
70E0
60E0
E070
E070
FFF0
FFF0
0070
0070
00E0
83E0
FF80
7F00
ENDCHAR
STARTCHAR uni0259
ENCODING 601
SWIDTH 557 0
DWIDTH 14 0
BBX 12 14 1 0
BITMAP
7F00
FF80
83E0
00E0
0070
0070
FFF0
FFF0
E070
E070
60E0
70E0
3FC0
1F00
ENDCHAR
STARTCHAR uni025F
ENCODING 607
SWIDTH 367 0
DWIDTH 10 0
BBX 10 20 1 -6
BITMAP
0700
0700
0700
0700
0700
0700
0700
0700
0700
0700
0700
0700
3FC0
3FC0
0700
0700
0700
8700
FE00
FC00
ENDCHAR
STARTCHAR uni0265
ENCODING 613
SWIDTH 620 0
DWIDTH 16 0
BBX 11 19 3 -5
BITMAP
E0E0
E0E0
E0E0
E0E0
E0E0
E0E0
E0E0
E0E0
E0E0
E0E0
E1E0
E3E0
7EE0
3CE0
00E0
00E0
00E0
00E0
00E0
ENDCHAR
STARTCHAR uni0275
ENCODING 629
SWIDTH 614 0
DWIDTH 16 0
BBX 13 14 1 0
BITMAP
0F80
3FE0
78F0
7070
E038
E038
FFF8
FFF8
E038
E038
7070
78F0
3FE0
0F80
ENDCHAR
STARTCHAR uni0279
ENCODING 633
SWIDTH 409 0
DWIDTH 11 0
BBX 8 14 2 0
BITMAP
07
07
07
07
07
07
07
07
07
07
0F
1F
F7
E7
ENDCHAR
STARTCHAR uni0287
ENCODING 647
SWIDTH 374 0
DWIDTH 10 0
BBX 9 17 0 0
BITMAP
F800
FC00
1E00
0E00
0E00
0E00
0E00
0E00
0E00
0E00
0E00
0E00
FF80
FF80
0E00
0E00
0E00
ENDCHAR
STARTCHAR uni0288
ENCODING 648
SWIDTH 374 0
DWIDTH 10 0
BBX 10 22 0 -5
BITMAP
3800
3800
3800
FF80
FF80
3800
3800
3800
3800
3800
3800
3800
3800
3800
3800
3800
3800
3800
3800
1C40
1FC0
07C0
ENDCHAR
STARTCHAR uni0289
ENCODING 649
SWIDTH 620 0
DWIDTH 16 0
BBX 11 14 2 0
BITMAP
E0E0
E0E0
E0E0
E0E0
E0E0
E0E0
FFE0
FFE0
E0E0
E0E0
E1E0
E3E0
7EE0
3CE0
ENDCHAR
STARTCHAR uni028C
ENCODING 652
SWIDTH 572 0
DWIDTH 13 0
BBX 13 14 0 0
BITMAP
0700
0780
0780
0FC0
0DC0
1DC0
19E0
18E0
30E0
3070
7070
6070
6038
C038
ENDCHAR
STARTCHAR uni028D
ENCODING 653
SWIDTH 840 0
DWIDTH 20 0
BBX 20 14 0 0
BITMAP
060700
0F0700
0F0780
0F0D80
1B0D80
1B8D80
1998C0
3198C0
3198C0
30F8E0
60F060
60F060
60F060
C06030
ENDCHAR
STARTCHAR uni028E
ENCODING 654
SWIDTH 568 0
DWIDTH 14 0
BBX 13 19 0 0
BITMAP
01C0
0180
0380
0300
0300
0700
0780
0780
0F80
0DC0
1DC0
19C0
18E0
30E0
30F0
7070
6070
6078
C038
ENDCHAR
STARTCHAR uni029E
ENCODING 670
SWIDTH 585 0
DWIDTH 15 0
BBX 13 19 2 -5
BITMAP
F038
7838
3C38
1E38
0F38
07B8
03F8
01F8
03B8
0738
0E38
1C38
1838
7038
0038
0038
0038
0038
0038
ENDCHAR
STARTCHAR uni02BB
ENCODING 699
SWIDTH 229 0
DWIDTH 6 0
BBX 3 7 1 12
BITMAP
60
C0
C0
C0
E0
E0
E0
ENDCHAR
STARTCHAR afii57929
ENCODING 700
SWIDTH 229 0
DWIDTH 6 0
BBX 3 7 1 12
BITMAP
E0
E0
E0
60
60
60
C0
ENDCHAR
STARTCHAR afii64937
ENCODING 701
SWIDTH 229 0
DWIDTH 6 0
BBX 3 7 1 12
BITMAP
E0
E0
E0
C0
C0
C0
60
ENDCHAR
STARTCHAR circumflex
ENCODING 710
SWIDTH 614 0
DWIDTH 16 0
BBX 8 4 4 15
BITMAP
3C
3C
66
C3
ENDCHAR
STARTCHAR caron
ENCODING 711
SWIDTH 614 0
DWIDTH 16 0
BBX 8 4 4 15
BITMAP
C3
66
3C
3C
ENDCHAR
STARTCHAR uni02C8
ENCODING 712
SWIDTH 229 0
DWIDTH 6 0
BBX 4 6 1 13
BITMAP
F0
F0
F0
60
60
60
ENDCHAR
STARTCHAR macron
ENCODING 713
SWIDTH 614 0
DWIDTH 16 0
BBX 7 2 4 17
BITMAP
FE
FE
ENDCHAR
STARTCHAR uni02CA
ENCODING 714
SWIDTH 614 0
DWIDTH 16 0
BBX 6 4 6 15
BITMAP
1C
38
70
E0
ENDCHAR
STARTCHAR uni02CB
ENCODING 715
SWIDTH 614 0
DWIDTH 16 0
BBX 6 4 4 15
BITMAP
E0
70
38
1C
ENDCHAR
STARTCHAR uni02CD
ENCODING 717
SWIDTH 614 0
DWIDTH 16 0
BBX 7 2 4 -3
BITMAP
FE
FE
ENDCHAR
STARTCHAR uni02CE
ENCODING 718
SWIDTH 614 0
DWIDTH 16 0
BBX 6 4 4 -5
BITMAP
E0
70
38
1C
ENDCHAR
STARTCHAR uni02CF
ENCODING 719
SWIDTH 614 0
DWIDTH 16 0
BBX 6 4 6 -5
BITMAP
1C
38
70
E0
ENDCHAR
STARTCHAR breve
ENCODING 728
SWIDTH 614 0
DWIDTH 16 0
BBX 8 4 4 15
BITMAP
C3
C3
7E
3C
ENDCHAR
STARTCHAR dotaccent
ENCODING 729
SWIDTH 614 0
DWIDTH 16 0
BBX 2 3 7 16
BITMAP
C0
C0
C0
ENDCHAR
STARTCHAR ring
ENCODING 730
SWIDTH 614 0
DWIDTH 16 0
BBX 4 4 6 16
BITMAP
60
90
90
60
ENDCHAR
STARTCHAR ogonek
ENCODING 731
SWIDTH 614 0
DWIDTH 16 0
BBX 4 4 6 -4
BITMAP
60
C0
C0
70
ENDCHAR
STARTCHAR tilde
ENCODING 732
SWIDTH 614 0
DWIDTH 16 0
BBX 8 3 4 16
BITMAP
71
FF
CE
ENDCHAR
STARTCHAR hungarumlaut
ENCODING 733
SWIDTH 614 0
DWIDTH 16 0
BBX 8 4 5 15
BITMAP
1B
36
6C
D8
ENDCHAR
STARTCHAR uni02EE
ENCODING 750
SWIDTH 373 0
DWIDTH 10 0
BBX 7 6 1 13
BITMAP
EE
EE
EE
66
66
CC
ENDCHAR
STARTCHAR uni037E
ENCODING 894
SWIDTH 316 0
DWIDTH 8 0
BBX 3 19 3 -5
BITMAP
E0
E0
E0
00
00
00
00
00
00
00
00
E0
E0
E0
60
60
60
C0
80
ENDCHAR
STARTCHAR tonos
ENCODING 900
SWIDTH 614 0
DWIDTH 16 0
BBX 6 4 6 15
BITMAP
1C
38
70
E0
ENDCHAR
STARTCHAR dieresistonos
ENCODING 901
SWIDTH 614 0
DWIDTH 16 0
BBX 7 7 4 17
BITMAP
0E
1C
38
70
00
C6
C6
ENDCHAR
STARTCHAR anoteleia
ENCODING 903
SWIDTH 316 0
DWIDTH 16 0
BBX 3 3 7 7
BITMAP
E0
E0
E0
ENDCHAR
STARTCHAR mu
ENCODING 956
SWIDTH 627 0
DWIDTH 16 0
BBX 11 18 3 -4
BITMAP
E0E0
E0E0
E0E0
E0E0
E0E0
E0E0
E0E0
E0E0
E0E0
E0E0
E1E0
E3E0
FEE0
FCE0
E000
E000
E000
E000
ENDCHAR
STARTCHAR uni1E00
ENCODING 7680
SWIDTH 690 0
DWIDTH 18 0
BBX 17 24 0 -5
BITMAP
01C000
01E000
03E000
03E000
037000
067000
067000
063800
0C3800
0C3C00
1C1C00
181C00
1FFE00
3FFE00
300E00
700700
600700
600380
C00380
000000
00C000
012000
012000
00C000
ENDCHAR
STARTCHAR uni1E01
ENCODING 7681
SWIDTH 552 0
DWIDTH 14 0
BBX 12 19 2 -5
BITMAP
1F80
7FC0
41C0
01C0
01C0
01C0
1FC0
7FC0
F1C0
E1C0
E1C0
E3C0
7EF0
3C70
0000
0600
0900
0900
0600
ENDCHAR
STARTCHAR uni1E02
ENCODING 7682
SWIDTH 575 0
DWIDTH 15 0
BBX 11 23 3 0
BITMAP
0C00
0C00
0C00
0000
FE00
FF80
E3C0
E1C0
E1C0
E1C0
E380
E380
FE00
FE00
E380
E1C0
E0E0
E0E0
E0E0
E0E0
E1C0
FFC0
FF00
ENDCHAR
STARTCHAR uni1E03
ENCODING 7683
SWIDTH 630 0
DWIDTH 16 0
BBX 12 23 3 0
BITMAP
3000
3000
3000
0000
E000
E000
E000
E000
E000
E780
EFE0
F8E0
F0F0
E070
E070
E070
E070
E070
E070
E0E0
F1E0
FFC0
CF80
ENDCHAR
STARTCHAR uni1E04
ENCODING 7684
SWIDTH 575 0
DWIDTH 15 0
BBX 11 23 3 -4
BITMAP
FE00
FF80
E3C0
E1C0
E1C0
E1C0
E380
E380
FE00
FE00
E380
E1C0
E0E0
E0E0
E0E0
E0E0
E1C0
FFC0
FF00
0000
0C00
0C00
0C00
ENDCHAR
STARTCHAR uni1E05
ENCODING 7685
SWIDTH 630 0
DWIDTH 16 0
BBX 12 23 3 -4
BITMAP
E000
E000
E000
E000
E000
E780
EFE0
F8E0
F0F0
E070
E070
E070
E070
E070
E070
E0E0
F1E0
FFC0
CF80
0000
0600
0600
0600
ENDCHAR
STARTCHAR uni1E06
ENCODING 7686
SWIDTH 575 0
DWIDTH 15 0
BBX 11 22 3 -3
BITMAP
FE00
FF80
E3C0
E1C0
E1C0
E1C0
E380
E380
FE00
FE00
E380
E1C0
E0E0
E0E0
E0E0
E0E0
E1C0
FFC0
FF00
0000
3F80
3F80
ENDCHAR
STARTCHAR uni1E07
ENCODING 7687
SWIDTH 630 0
DWIDTH 16 0
BBX 12 22 3 -3
BITMAP
E000
E000
E000
E000
E000
E780
EFE0
F8E0
F0F0
E070
E070
E070
E070
E070
E070
E0E0
F1E0
FFC0
CF80
0000
3F80
3F80
ENDCHAR
STARTCHAR uni1E08
ENCODING 7688
SWIDTH 692 0
DWIDTH 18 0
BBX 15 29 1 -5
BITMAP
00E0
01C0
0380
0700
0000
03FC
0FFE
3E06
3800
7000
7000
E000
E000
E000
E000
E000
E000
E000
7000
7000
3802
3E0E
1FFE
03F8
0100
01C0
00C0
00C0
0380
ENDCHAR
STARTCHAR uni1E09
ENCODING 7689
SWIDTH 518 0
DWIDTH 13 0
BBX 11 24 1 -5
BITMAP
0380
0700
0E00
1C00
0000
0FE0
3FE0
7820
7000
E000
E000
E000
E000
E000
E000
7000
7820
3FE0
0FC0
0400
0700
0300
0300
0E00
ENDCHAR
STARTCHAR uni1E0A
ENCODING 7690
SWIDTH 749 0
DWIDTH 19 0
BBX 16 23 2 0
BITMAP
0300
0300
0300
0000
FFC0
FFF0
E07C
E01C
E00E
E00E
E007
E007
E007
E007
E007
E007
E007
E00E
E00E
E01C
E078
FFF0
FFC0
ENDCHAR
STARTCHAR uni1E0B
ENCODING 7691
SWIDTH 630 0
DWIDTH 16 0
BBX 12 23 2 0
BITMAP
00C0
00C0
00C0
0000
0070
0070
0070
0070
0070
1E70
3FF0
78F0
7070
E070
E070
E070
E070
E070
E070
F0F0
71F0
7F70
1E70
ENDCHAR
STARTCHAR uni1E0C
ENCODING 7692
SWIDTH 749 0
DWIDTH 19 0
BBX 16 23 2 -4
BITMAP
FFC0
FFF0
E07C
E01C
E00E
E00E
E007
E007
E007
E007
E007
E007
E007
E00E
E00E
E01C
E078
FFF0
FFC0
0000
0300
0300
0300
ENDCHAR
STARTCHAR uni1E0D
ENCODING 7693
SWIDTH 630 0
DWIDTH 16 0
BBX 12 23 2 -4
BITMAP
0070
0070
0070
0070
0070
1E70
3FF0
78F0
7070
E070
E070
E070
E070
E070
E070
F0F0
71F0
7F70
1E70
0000
0600
0600
0600
ENDCHAR
STARTCHAR uni1E0E
ENCODING 7694
SWIDTH 749 0
DWIDTH 19 0
BBX 16 22 2 -3
BITMAP
FFC0
FFF0
E07C
E01C
E00E
E00E
E007
E007
E007
E007
E007
E007
E007
E00E
E00E
E01C
E078
FFF0
FFC0
0000
1FC0
1FC0
ENDCHAR
STARTCHAR uni1E0F
ENCODING 7695
SWIDTH 630 0
DWIDTH 16 0
BBX 12 22 2 -3
BITMAP
0070
0070
0070
0070
0070
1E70
3FF0
78F0
7070
E070
E070
E070
E070
E070
E070
F0F0
71F0
7F70
1E70
0000
1FC0
1FC0
ENDCHAR
STARTCHAR uni1E10
ENCODING 7696
SWIDTH 749 0
DWIDTH 19 0
BBX 16 24 2 -5
BITMAP
FFC0
FFF0
E07C
E01C
E00E
E00E
E007
E007
E007
E007
E007
E007
E007
E00E
E00E
E01C
E078
FFF0
FFC0
0200
0380
0180
0180
0700
ENDCHAR
STARTCHAR uni1E11
ENCODING 7697
SWIDTH 630 0
DWIDTH 16 0
BBX 12 24 2 -5
BITMAP
0070
0070
0070
0070
0070
1E70
3FF0
78F0
7070
E070
E070
E070
E070
E070
E070
F0F0
71F0
7F70
1E70
0400
0700
0300
0300
0E00
ENDCHAR
STARTCHAR uni1E12
ENCODING 7698
SWIDTH 749 0
DWIDTH 19 0
BBX 16 24 2 -5
BITMAP
FFC0
FFF0
E07C
E01C
E00E
E00E
E007
E007
E007
E007
E007
E007
E007
E00E
E00E
E01C
E078
FFF0
FFC0
0000
0780
0780
0CC0
1860
ENDCHAR
STARTCHAR uni1E13
ENCODING 7699
SWIDTH 630 0
DWIDTH 16 0
BBX 12 24 2 -5
BITMAP
0070
0070
0070
0070
0070
1E70
3FF0
78F0
7070
E070
E070
E070
E070
E070
E070
F0F0
71F0
7F70
1E70
0000
0F00
0F00
1980
30C0
ENDCHAR
STARTCHAR uni1E14
ENCODING 7700
SWIDTH 542 0
DWIDTH 14 0
BBX 11 27 2 0
BITMAP
7000
3800
1C00
0E00
0000
7F00
7F00
0000
FFC0
FFC0
E000
E000
E000
E000
E000
E000
FF80
FF80
E000
E000
E000
E000
E000
E000
E000
FFE0
FFE0
ENDCHAR
STARTCHAR uni1E15
ENCODING 7701
SWIDTH 557 0
DWIDTH 14 0
BBX 12 22 1 0
BITMAP
1C00
0E00
0700
0380
0000
1FC0
1FC0
0000
0F80
3FC0
70E0
7060
E070
E070
FFF0
FFF0
E000
E000
7000
7C10
1FF0
0FE0
ENDCHAR
STARTCHAR uni1E16
ENCODING 7702
SWIDTH 542 0
DWIDTH 14 0
BBX 11 27 2 0
BITMAP
0380
0700
0E00
1C00
0000
7F00
7F00
0000
FFC0
FFC0
E000
E000
E000
E000
E000
E000
FF80
FF80
E000
E000
E000
E000
E000
E000
E000
FFE0
FFE0
ENDCHAR
STARTCHAR uni1E17
ENCODING 7703
SWIDTH 557 0
DWIDTH 14 0
BBX 12 22 1 0
BITMAP
01C0
0380
0700
0E00
0000
1FC0
1FC0
0000
0F80
3FC0
70E0
7060
E070
E070
FFF0
FFF0
E000
E000
7000
7C10
1FF0
0FE0
ENDCHAR
STARTCHAR uni1E18
ENCODING 7704
SWIDTH 542 0
DWIDTH 14 0
BBX 11 24 2 -5
BITMAP
FFC0
FFC0
E000
E000
E000
E000
E000
E000
FF80
FF80
E000
E000
E000
E000
E000
E000
E000
FFE0
FFE0
0000
1E00
1E00
3300
6180
ENDCHAR
STARTCHAR uni1E19
ENCODING 7705
SWIDTH 557 0
DWIDTH 14 0
BBX 12 19 1 -5
BITMAP
0F80
3FC0
70E0
7060
E070
E070
FFF0
FFF0
E000
E000
7000
7C10
1FF0
0FE0
0000
0F00
0F00
1980
30C0
ENDCHAR
STARTCHAR uni1E1A
ENCODING 7706
SWIDTH 542 0
DWIDTH 14 0
BBX 11 23 2 -4
BITMAP
FFC0
FFC0
E000
E000
E000
E000
E000
E000
FF80
FF80
E000
E000
E000
E000
E000
E000
E000
FFE0
FFE0
0000
3880
7F80
6700
ENDCHAR
STARTCHAR uni1E1B
ENCODING 7707
SWIDTH 557 0
DWIDTH 14 0
BBX 12 18 1 -4
BITMAP
0F80
3FC0
70E0
7060
E070
E070
FFF0
FFF0
E000
E000
7000
7C10
1FF0
0FE0
0000
1C40
3FC0
3380
ENDCHAR
STARTCHAR uni1E1C
ENCODING 7708
SWIDTH 542 0
DWIDTH 14 0
BBX 11 29 2 -5
BITMAP
C300
C300
7E00
3C00
0000
FFC0
FFC0
E000
E000
E000
E000
E000
E000
FF80
FF80
E000
E000
E000
E000
E000
E000
E000
FFE0
FFE0
0800
0E00
0600
0600
1C00
ENDCHAR
STARTCHAR uni1E1D
ENCODING 7709
SWIDTH 557 0
DWIDTH 14 0
BBX 12 24 1 -5
BITMAP
30C0
30C0
1F80
0F00
0000
0F80
3FC0
70E0
7060
E070
E070
FFF0
FFF0
E000
E000
7000
7C10
1FF0
0FE0
0400
0700
0300
0300
0E00
ENDCHAR
STARTCHAR uni1E1E
ENCODING 7710
SWIDTH 536 0
DWIDTH 14 0
BBX 11 23 2 0
BITMAP
0C00
0C00
0C00
0000
FFE0
FFE0
E000
E000
E000
E000
E000
E000
FFC0
FFC0
E000
E000
E000
E000
E000
E000
E000
E000
E000
ENDCHAR
STARTCHAR uni1E1F
ENCODING 7711
SWIDTH 367 0
DWIDTH 10 0
BBX 10 24 1 0
BITMAP
0C00
0C00
0C00
0000
0FC0
1FC0
3840
3800
3800
3800
FF00
FF00
3800
3800
3800
3800
3800
3800
3800
3800
3800
3800
3800
3800
ENDCHAR
STARTCHAR uni1E20
ENCODING 7712
SWIDTH 723 0
DWIDTH 19 0
BBX 15 22 1 0
BITMAP
0FE0
0FE0
0000
03FC
0FFE
3E06
3800
7000
7000
E000
E000
E000
E000
E00E
E00E
E00E
700E
700E
380E
3E0E
1FFE
07F8
ENDCHAR
STARTCHAR uni1E21
ENCODING 7713
SWIDTH 623 0
DWIDTH 16 0
BBX 12 22 2 -5
BITMAP
1FC0
1FC0
0000
1E70
3FF0
78F0
7070
E070
E070
E070
E070
E070
E070
F0F0
71F0
3F70
1E70
0070
0060
40E0
7FC0
3F80
ENDCHAR
STARTCHAR uni1E22
ENCODING 7714
SWIDTH 735 0
DWIDTH 19 0
BBX 14 23 3 0
BITMAP
0300
0300
0300
0000
E01C
E01C
E01C
E01C
E01C
E01C
E01C
E01C
FFFC
FFFC
E01C
E01C
E01C
E01C
E01C
E01C
E01C
E01C
E01C
ENDCHAR
STARTCHAR uni1E23
ENCODING 7715
SWIDTH 620 0
DWIDTH 16 0
BBX 11 23 3 0
BITMAP
3000
3000
3000
0000
E000
E000
E000
E000
E000
E780
EFC0
F8E0
F0E0
E0E0
E0E0
E0E0
E0E0
E0E0
E0E0
E0E0
E0E0
E0E0
E0E0
ENDCHAR
STARTCHAR uni1E24
ENCODING 7716
SWIDTH 735 0
DWIDTH 19 0
BBX 14 23 3 -4
BITMAP
E01C
E01C
E01C
E01C
E01C
E01C
E01C
E01C
FFFC
FFFC
E01C
E01C
E01C
E01C
E01C
E01C
E01C
E01C
E01C
0000
0300
0300
0300
ENDCHAR
STARTCHAR uni1E25
ENCODING 7717
SWIDTH 620 0
DWIDTH 16 0
BBX 11 23 3 -4
BITMAP
E000
E000
E000
E000
E000
E780
EFC0
F8E0
F0E0
E0E0
E0E0
E0E0
E0E0
E0E0
E0E0
E0E0
E0E0
E0E0
E0E0
0000
0600
0600
0600
ENDCHAR
STARTCHAR uni1E26
ENCODING 7718
SWIDTH 735 0
DWIDTH 19 0
BBX 14 22 3 0
BITMAP
0C60
0C60
0000
E01C
E01C
E01C
E01C
E01C
E01C
E01C
E01C
FFFC
FFFC
E01C
E01C
E01C
E01C
E01C
E01C
E01C
E01C
E01C
ENDCHAR
STARTCHAR uni1E27
ENCODING 7719
SWIDTH 620 0
DWIDTH 16 0
BBX 12 22 2 0
BITMAP
C600
C600
0000
7000
7000
7000
7000
7000
73C0
77E0
7C70
7870
7070
7070
7070
7070
7070
7070
7070
7070
7070
7070
ENDCHAR
STARTCHAR uni1E28
ENCODING 7720
SWIDTH 735 0
DWIDTH 19 0
BBX 14 24 3 -5
BITMAP
E01C
E01C
E01C
E01C
E01C
E01C
E01C
E01C
FFFC
FFFC
E01C
E01C
E01C
E01C
E01C
E01C
E01C
E01C
E31C
0200
0380
0180
0180
0700
ENDCHAR
STARTCHAR uni1E29
ENCODING 7721
SWIDTH 620 0
DWIDTH 16 0
BBX 11 24 3 -5
BITMAP
E000
E000
E000
E000
E000
E780
EFC0
F8E0
F0E0
E0E0
E0E0
E0E0
E0E0
E0E0
E0E0
E0E0
E0E0
E0E0
E6E0
0400
0700
0300
0300
0E00
ENDCHAR
STARTCHAR uni1E2A
ENCODING 7722
SWIDTH 735 0
DWIDTH 19 0
BBX 14 24 3 -5
BITMAP
E01C
E01C
E01C
E01C
E01C
E01C
E01C
E01C
FFFC
FFFC
E01C
E01C
E01C
E01C
E01C
E01C
E01C
E01C
E01C
0000
1860
1860
0FC0
0780
ENDCHAR
STARTCHAR uni1E2B
ENCODING 7723
SWIDTH 620 0
DWIDTH 16 0
BBX 11 24 3 -5
BITMAP
E000
E000
E000
E000
E000
E780
EFC0
F8E0
F0E0
E0E0
E0E0
E0E0
E0E0
E0E0
E0E0
E0E0
E0E0
E0E0
E0E0
0000
30C0
30C0
1F80
0F00
ENDCHAR
STARTCHAR uni1E2C
ENCODING 7724
SWIDTH 288 0
DWIDTH 7 0
BBX 8 23 0 -4
BITMAP
38
38
38
38
38
38
38
38
38
38
38
38
38
38
38
38
38
38
38
00
71
FF
CE
ENDCHAR
STARTCHAR uni1E2D
ENCODING 7725
SWIDTH 289 0
DWIDTH 8 0
BBX 8 23 0 -4
BITMAP
38
38
38
00
00
38
38
38
38
38
38
38
38
38
38
38
38
38
38
00
71
FF
CE
ENDCHAR
STARTCHAR uni1E2E
ENCODING 7726
SWIDTH 288 0
DWIDTH 7 0
BBX 7 27 0 0
BITMAP
0E
1C
38
70
00
C6
C6
00
38
38
38
38
38
38
38
38
38
38
38
38
38
38
38
38
38
38
38
ENDCHAR
STARTCHAR uni1E2F
ENCODING 7727
SWIDTH 289 0
DWIDTH 8 0
BBX 7 22 0 0
BITMAP
0E
1C
38
70
00
C6
C6
00
38
38
38
38
38
38
38
38
38
38
38
38
38
38
ENDCHAR
STARTCHAR uni1E30
ENCODING 7728
SWIDTH 653 0
DWIDTH 17 0
BBX 14 24 2 0
BITMAP
01C0
0380
0700
0E00
0000
E038
E070
E0E0
E0C0
E180
E380
E700
EE00
EC00
FE00
EE00
EF00
E780
E3C0
E1E0
E0E0
E0F0
E078
E03C
ENDCHAR
STARTCHAR uni1E31
ENCODING 7729
SWIDTH 585 0
DWIDTH 15 0
BBX 13 24 2 0
BITMAP
0E00
1C00
3800
7000
0000
E000
E000
E000
E000
E000
E070
E0C0
E1C0
E380
E700
EE00
FC00
FE00
EF00
E780
E3C0
E1E0
E0F0
E078
ENDCHAR
STARTCHAR uni1E32
ENCODING 7730
SWIDTH 653 0
DWIDTH 17 0
BBX 14 23 2 -4
BITMAP
E038
E070
E0E0
E0C0
E180
E380
E700
EE00
EC00
FE00
EE00
EF00
E780
E3C0
E1E0
E0E0
E0F0
E078
E03C
0000
0300
0300
0300
ENDCHAR
STARTCHAR uni1E33
ENCODING 7731
SWIDTH 585 0
DWIDTH 15 0
BBX 13 23 2 -4
BITMAP
E000
E000
E000
E000
E000
E070
E0C0
E1C0
E380
E700
EE00
FC00
FE00
EF00
E780
E3C0
E1E0
E0F0
E078
0000
0600
0600
0600
ENDCHAR
STARTCHAR uni1E34
ENCODING 7732
SWIDTH 653 0
DWIDTH 17 0
BBX 14 22 2 -3
BITMAP
E038
E070
E0E0
E0C0
E180
E380
E700
EE00
EC00
FE00
EE00
EF00
E780
E3C0
E1E0
E0E0
E0F0
E078
E03C
0000
1FC0
1FC0
ENDCHAR
STARTCHAR uni1E35
ENCODING 7733
SWIDTH 585 0
DWIDTH 15 0
BBX 13 22 2 -3
BITMAP
E000
E000
E000
E000
E000
E070
E0C0
E1C0
E380
E700
EE00
FC00
FE00
EF00
E780
E3C0
E1E0
E0F0
E078
0000
1FC0
1FC0
ENDCHAR
STARTCHAR uni1E36
ENCODING 7734
SWIDTH 533 0
DWIDTH 14 0
BBX 11 23 2 -4
BITMAP
E000
E000
E000
E000
E000
E000
E000
E000
E000
E000
E000
E000
E000
E000
E000
E000
E000
FFE0
FFE0
0000
0C00
0C00
0C00
ENDCHAR
STARTCHAR uni1E37
ENCODING 7735
SWIDTH 289 0
DWIDTH 8 0
BBX 3 23 2 -4
BITMAP
E0
E0
E0
E0
E0
E0
E0
E0
E0
E0
E0
E0
E0
E0
E0
E0
E0
E0
E0
00
60
60
60
ENDCHAR
STARTCHAR uni1E38
ENCODING 7736
SWIDTH 533 0
DWIDTH 14 0
BBX 12 26 1 -4
BITMAP
FE00
FE00
0000
7000
7000
7000
7000
7000
7000
7000
7000
7000
7000
7000
7000
7000
7000
7000
7000
7000
7FF0
7FF0
0000
0600
0600
0600
ENDCHAR
STARTCHAR uni1E39
ENCODING 7737
SWIDTH 289 0
DWIDTH 8 0
BBX 7 26 0 -4
BITMAP
FE
FE
00
38
38
38
38
38
38
38
38
38
38
38
38
38
38
38
38
38
38
38
00
18
18
18
ENDCHAR
STARTCHAR uni1E3A
ENCODING 7738
SWIDTH 533 0
DWIDTH 14 0
BBX 11 22 2 -3
BITMAP
E000
E000
E000
E000
E000
E000
E000
E000
E000
E000
E000
E000
E000
E000
E000
E000
E000
FFE0
FFE0
0000
7F00
7F00
ENDCHAR
STARTCHAR uni1E3B
ENCODING 7739
SWIDTH 289 0
DWIDTH 8 0
BBX 7 22 0 -3
BITMAP
38
38
38
38
38
38
38
38
38
38
38
38
38
38
38
38
38
38
38
00
FE
FE
ENDCHAR
STARTCHAR uni1E3C
ENCODING 7740
SWIDTH 533 0
DWIDTH 14 0
BBX 11 24 2 -5
BITMAP
E000
E000
E000
E000
E000
E000
E000
E000
E000
E000
E000
E000
E000
E000
E000
E000
E000
FFE0
FFE0
0000
1E00
1E00
3300
6180
ENDCHAR
STARTCHAR uni1E3D
ENCODING 7741
SWIDTH 289 0
DWIDTH 8 0
BBX 8 24 0 -5
BITMAP
38
38
38
38
38
38
38
38
38
38
38
38
38
38
38
38
38
38
38
00
3C
3C
66
C3
ENDCHAR
STARTCHAR uni1E3E
ENCODING 7742
SWIDTH 861 0
DWIDTH 22 0
BBX 18 24 2 0
BITMAP
003800
007000
00E000
01C000
000000
F003C0
F003C0
F807C0
F807C0
F807C0
DC0DC0
DC0DC0
DE0DC0
CE19C0
CE19C0
CF39C0
C731C0
C731C0
C3E1C0
C3E1C0
C3E1C0
C1C1C0
C1C1C0
C001C0
ENDCHAR
STARTCHAR uni1E3F
ENCODING 7743
SWIDTH 934 0
DWIDTH 24 0
BBX 19 19 3 0
BITMAP
003800
007000
00E000
01C000
000000
E7C780
EFCFC0
F8F9E0
F0F0E0
E0E0E0
E0E0E0
E0E0E0
E0E0E0
E0E0E0
E0E0E0
E0E0E0
E0E0E0
E0E0E0
E0E0E0
ENDCHAR
STARTCHAR uni1E40
ENCODING 7744
SWIDTH 861 0
DWIDTH 22 0
BBX 18 23 2 0
BITMAP
00C000
00C000
00C000
000000
F003C0
F003C0
F807C0
F807C0
F807C0
DC0DC0
DC0DC0
DE0DC0
CE19C0
CE19C0
CF39C0
C731C0
C731C0
C3E1C0
C3E1C0
C3E1C0
C1C1C0
C1C1C0
C001C0
ENDCHAR
STARTCHAR uni1E41
ENCODING 7745
SWIDTH 934 0
DWIDTH 24 0
BBX 19 18 3 0
BITMAP
00C000
00C000
00C000
000000
E7C780
EFCFC0
F8F9E0
F0F0E0
E0E0E0
E0E0E0
E0E0E0
E0E0E0
E0E0E0
E0E0E0
E0E0E0
E0E0E0
E0E0E0
E0E0E0
ENDCHAR
STARTCHAR uni1E42
ENCODING 7746
SWIDTH 861 0
DWIDTH 22 0
BBX 18 23 2 -4
BITMAP
F003C0
F003C0
F807C0
F807C0
F807C0
DC0DC0
DC0DC0
DE0DC0
CE19C0
CE19C0
CF39C0
C731C0
C731C0
C3E1C0
C3E1C0
C3E1C0
C1C1C0
C1C1C0
C001C0
000000
00C000
00C000
00C000
ENDCHAR
STARTCHAR uni1E43
ENCODING 7747
SWIDTH 934 0
DWIDTH 24 0
BBX 19 18 3 -4
BITMAP
E7C780
EFCFC0
F8F9E0
F0F0E0
E0E0E0
E0E0E0
E0E0E0
E0E0E0
E0E0E0
E0E0E0
E0E0E0
E0E0E0
E0E0E0
E0E0E0
000000
006000
006000
006000
ENDCHAR
STARTCHAR uni1E44
ENCODING 7748
SWIDTH 741 0
DWIDTH 19 0
BBX 14 23 3 0
BITMAP
0600
0600
0600
0000
E00C
F00C
F00C
F80C
FC0C
DC0C
DE0C
CF0C
C70C
C78C
C38C
C1CC
C1EC
C0EC
C0FC
C07C
C03C
C03C
C01C
ENDCHAR
STARTCHAR uni1E45
ENCODING 7749
SWIDTH 620 0
DWIDTH 16 0
BBX 11 18 3 0
BITMAP
0C00
0C00
0C00
0000
E780
EFC0
F8E0
F0E0
E0E0
E0E0
E0E0
E0E0
E0E0
E0E0
E0E0
E0E0
E0E0
E0E0
ENDCHAR
STARTCHAR uni1E46
ENCODING 7750
SWIDTH 741 0
DWIDTH 19 0
BBX 14 23 3 -4
BITMAP
E00C
F00C
F00C
F80C
FC0C
DC0C
DE0C
CF0C
C70C
C78C
C38C
C1CC
C1EC
C0EC
C0FC
C07C
C03C
C03C
C01C
0000
0180
0180
0180
ENDCHAR
STARTCHAR uni1E47
ENCODING 7751
SWIDTH 620 0
DWIDTH 16 0
BBX 11 18 3 -4
BITMAP
E780
EFC0
F8E0
F0E0
E0E0
E0E0
E0E0
E0E0
E0E0
E0E0
E0E0
E0E0
E0E0
E0E0
0000
0600
0600
0600
ENDCHAR
STARTCHAR uni1E48
ENCODING 7752
SWIDTH 741 0
DWIDTH 19 0
BBX 14 22 3 -3
BITMAP
E00C
F00C
F00C
F80C
FC0C
DC0C
DE0C
CF0C
C70C
C78C
C38C
C1CC
C1EC
C0EC
C0FC
C07C
C03C
C03C
C01C
0000
0FE0
0FE0
ENDCHAR
STARTCHAR uni1E49
ENCODING 7753
SWIDTH 620 0
DWIDTH 16 0
BBX 11 17 3 -3
BITMAP
E780
EFC0
F8E0
F0E0
E0E0
E0E0
E0E0
E0E0
E0E0
E0E0
E0E0
E0E0
E0E0
E0E0
0000
3F80
3F80
ENDCHAR
STARTCHAR uni1E4A
ENCODING 7754
SWIDTH 741 0
DWIDTH 19 0
BBX 14 24 3 -5
BITMAP
E00C
F00C
F00C
F80C
FC0C
DC0C
DE0C
CF0C
C70C
C78C
C38C
C1CC
C1EC
C0EC
C0FC
C07C
C03C
C03C
C01C
0000
03C0
03C0
0660
0C30
ENDCHAR
STARTCHAR uni1E4B
ENCODING 7755
SWIDTH 620 0
DWIDTH 16 0
BBX 11 19 3 -5
BITMAP
E780
EFC0
F8E0
F0E0
E0E0
E0E0
E0E0
E0E0
E0E0
E0E0
E0E0
E0E0
E0E0
E0E0
0000
0F00
0F00
1980
30C0
ENDCHAR
STARTCHAR uni1E4C
ENCODING 7756
SWIDTH 777 0
DWIDTH 20 0
BBX 18 28 1 0
BITMAP
003800
007000
00E000
01C000
000000
038800
07F800
067000
000000
03F000
0FFC00
1E1E00
380700
700380
700380
E001C0
E001C0
E001C0
E001C0
E001C0
E001C0
E001C0
700380
700380
380700
1C0E00
0FFC00
03F000
ENDCHAR
STARTCHAR uni1E4D
ENCODING 7757
SWIDTH 614 0
DWIDTH 16 0
BBX 13 23 1 0
BITMAP
01C0
0380
0700
0E00
0000
0E20
1FE0
19C0
0000
0F80
3FE0
78F0
7070
E038
E038
E038
E038
E038
E038
7070
78F0
3FE0
0F80
ENDCHAR
STARTCHAR uni1E4E
ENCODING 7758
SWIDTH 777 0
DWIDTH 20 0
BBX 18 26 1 0
BITMAP
063000
063000
000000
038800
07F800
067000
000000
03F000
0FFC00
1E1E00
380700
700380
700380
E001C0
E001C0
E001C0
E001C0
E001C0
E001C0
E001C0
700380
700380
380700
1C0E00
0FFC00
03F000
ENDCHAR
STARTCHAR uni1E4F
ENCODING 7759
SWIDTH 614 0
DWIDTH 16 0
BBX 13 21 1 0
BITMAP
18C0
18C0
0000
0E20
1FE0
19C0
0000
0F80
3FE0
78F0
7070
E038
E038
E038
E038
E038
E038
7070
78F0
3FE0
0F80
ENDCHAR
STARTCHAR uni1E50
ENCODING 7760
SWIDTH 777 0
DWIDTH 20 0
BBX 18 27 1 0
BITMAP
070000
038000
01C000
00E000
000000
03F800
03F800
000000
03F000
0FFC00
1E1E00
380700
700380
700380
E001C0
E001C0
E001C0
E001C0
E001C0
E001C0
E001C0
700380
700380
380700
1C0E00
0FFC00
03F000
ENDCHAR
STARTCHAR uni1E51
ENCODING 7761
SWIDTH 614 0
DWIDTH 16 0
BBX 13 22 1 0
BITMAP
1C00
0E00
0700
0380
0000
1FC0
1FC0
0000
0F80
3FE0
78F0
7070
E038
E038
E038
E038
E038
E038
7070
78F0
3FE0
0F80
ENDCHAR
STARTCHAR uni1E52
ENCODING 7762
SWIDTH 777 0
DWIDTH 20 0
BBX 18 27 1 0
BITMAP
003800
007000
00E000
01C000
000000
03F800
03F800
000000
03F000
0FFC00
1E1E00
380700
700380
700380
E001C0
E001C0
E001C0
E001C0
E001C0
E001C0
E001C0
700380
700380
380700
1C0E00
0FFC00
03F000
ENDCHAR
STARTCHAR uni1E53
ENCODING 7763
SWIDTH 614 0
DWIDTH 16 0
BBX 13 22 1 0
BITMAP
01C0
0380
0700
0E00
0000
1FC0
1FC0
0000
0F80
3FE0
78F0
7070
E038
E038
E038
E038
E038
E038
7070
78F0
3FE0
0F80
ENDCHAR
STARTCHAR uni1E54
ENCODING 7764
SWIDTH 553 0
DWIDTH 14 0
BBX 11 24 3 0
BITMAP
0380
0700
0E00
1C00
0000
FF80
FFC0
E1E0
E0E0
E0E0
E0E0
E0E0
E1E0
E3C0
FF80
FE00
E000
E000
E000
E000
E000
E000
E000
E000
ENDCHAR
STARTCHAR uni1E55
ENCODING 7765
SWIDTH 630 0
DWIDTH 16 0
BBX 12 24 3 -5
BITMAP
0380
0700
0E00
1C00
0000
E780
EFE0
F8E0
F0F0
E070
E070
E070
E070
E070
E070
E0E0
F1E0
FFC0
E780
E000
E000
E000
E000
E000
ENDCHAR
STARTCHAR uni1E56
ENCODING 7766
SWIDTH 553 0
DWIDTH 14 0
BBX 11 23 3 0
BITMAP
0C00
0C00
0C00
0000
FF80
FFC0
E1E0
E0E0
E0E0
E0E0
E0E0
E1E0
E3C0
FF80
FE00
E000
E000
E000
E000
E000
E000
E000
E000
ENDCHAR
STARTCHAR uni1E57
ENCODING 7767
SWIDTH 630 0
DWIDTH 16 0
BBX 12 23 3 -5
BITMAP
0600
0600
0600
0000
E780
EFE0
F8E0
F0F0
E070
E070
E070
E070
E070
E070
E0E0
F1E0
FFC0
E780
E000
E000
E000
E000
E000
ENDCHAR
STARTCHAR uni1E58
ENCODING 7768
SWIDTH 633 0
DWIDTH 16 0
BBX 13 23 3 0
BITMAP
0600
0600
0600
0000
FF00
FFC0
E1E0
E0E0
E0E0
E0E0
E0E0
E1C0
E380
FF00
FF00
E700
E380
E3C0
E1C0
E1E0
E0F0
E070
E078
ENDCHAR
STARTCHAR uni1E59
ENCODING 7769
SWIDTH 409 0
DWIDTH 11 0
BBX 8 18 2 0
BITMAP
18
18
18
00
E7
EF
F8
F0
E0
E0
E0
E0
E0
E0
E0
E0
E0
E0
ENDCHAR
STARTCHAR uni1E5A
ENCODING 7770
SWIDTH 633 0
DWIDTH 16 0
BBX 13 23 3 -4
BITMAP
FF00
FFC0
E1E0
E0E0
E0E0
E0E0
E0E0
E1C0
E380
FF00
FF00
E700
E380
E3C0
E1C0
E1E0
E0F0
E070
E078
0000
0600
0600
0600
ENDCHAR
STARTCHAR uni1E5B
ENCODING 7771
SWIDTH 409 0
DWIDTH 11 0
BBX 8 18 2 -4
BITMAP
E7
EF
F8
F0
E0
E0
E0
E0
E0
E0
E0
E0
E0
E0
00
60
60
60
ENDCHAR
STARTCHAR uni1E5C
ENCODING 7772
SWIDTH 633 0
DWIDTH 16 0
BBX 13 26 3 -4
BITMAP
3F80
3F80
0000
FF00
FFC0
E1E0
E0E0
E0E0
E0E0
E0E0
E1C0
E380
FF00
FF00
E700
E380
E3C0
E1C0
E1E0
E0F0
E070
E078
0000
0600
0600
0600
ENDCHAR
STARTCHAR uni1E5D
ENCODING 7773
SWIDTH 409 0
DWIDTH 11 0
BBX 8 21 2 -4
BITMAP
FE
FE
00
E7
EF
F8
F0
E0
E0
E0
E0
E0
E0
E0
E0
E0
E0
00
60
60
60
ENDCHAR
STARTCHAR uni1E5E
ENCODING 7774
SWIDTH 633 0
DWIDTH 16 0
BBX 13 22 3 -3
BITMAP
FF00
FFC0
E1E0
E0E0
E0E0
E0E0
E0E0
E1C0
E380
FF00
FF00
E700
E380
E3C0
E1C0
E1E0
E0F0
E070
E078
0000
1FC0
1FC0
ENDCHAR
STARTCHAR uni1E5F
ENCODING 7775
SWIDTH 409 0
DWIDTH 11 0
BBX 9 17 1 -3
BITMAP
7380
7780
7C00
7800
7000
7000
7000
7000
7000
7000
7000
7000
7000
7000
0000
FE00
FE00
ENDCHAR
STARTCHAR uni1E60
ENCODING 7776
SWIDTH 539 0
DWIDTH 14 0
BBX 11 23 1 0
BITMAP
0C00
0C00
0C00
0000
1F80
7FC0
70C0
E000
E000
E000
F000
7C00
3E00
1F80
07C0
03C0
01E0
00E0
00E0
00E0
C1C0
FF80
7F00
ENDCHAR
STARTCHAR uni1E61
ENCODING 7777
SWIDTH 510 0
DWIDTH 13 0
BBX 9 18 2 0
BITMAP
1800
1800
1800
0000
3F00
7F00
F100
E000
E000
F800
7E00
3F00
0780
0380
0380
8780
FF00
7E00
ENDCHAR
STARTCHAR uni1E62
ENCODING 7778
SWIDTH 539 0
DWIDTH 14 0
BBX 11 23 1 -4
BITMAP
1F80
7FC0
70C0
E000
E000
E000
F000
7C00
3E00
1F80
07C0
03C0
01E0
00E0
00E0
00E0
C1C0
FF80
7F00
0000
0600
0600
0600
ENDCHAR
STARTCHAR uni1E63
ENCODING 7779
SWIDTH 510 0
DWIDTH 13 0
BBX 9 18 2 -4
BITMAP
3F00
7F00
F100
E000
E000
F800
7E00
3F00
0780
0380
0380
8780
FF00
7E00
0000
0C00
0C00
0C00
ENDCHAR
STARTCHAR uni1E64
ENCODING 7780
SWIDTH 539 0
DWIDTH 14 0
BBX 11 28 1 0
BITMAP
0600
0600
0600
0000
0380
0700
0E00
1C00
0000
1F80
7FC0
70C0
E000
E000
E000
F000
7C00
3E00
1F80
07C0
03C0
01E0
00E0
00E0
00E0
C1C0
FF80
7F00
ENDCHAR
STARTCHAR uni1E65
ENCODING 7781
SWIDTH 510 0
DWIDTH 13 0
BBX 9 23 2 0
BITMAP
0C00
0C00
0C00
0000
0700
0E00
1C00
3800
0000
3F00
7F00
F100
E000
E000
F800
7E00
3F00
0780
0380
0380
8780
FF00
7E00
ENDCHAR
STARTCHAR uni1E66
ENCODING 7782
SWIDTH 539 0
DWIDTH 14 0
BBX 11 28 1 0
BITMAP
0600
0600
0600
0000
30C0
1980
0F00
0F00
0000
1F80
7FC0
70C0
E000
E000
E000
F000
7C00
3E00
1F80
07C0
03C0
01E0
00E0
00E0
00E0
C1C0
FF80
7F00
ENDCHAR
STARTCHAR uni1E67
ENCODING 7783
SWIDTH 510 0
DWIDTH 13 0
BBX 9 23 2 0
BITMAP
0C00
0C00
0C00
0000
6180
3300
1E00
1E00
0000
3F00
7F00
F100
E000
E000
F800
7E00
3F00
0780
0380
0380
8780
FF00
7E00
ENDCHAR
STARTCHAR uni1E68
ENCODING 7784
SWIDTH 539 0
DWIDTH 14 0
BBX 11 27 1 -4
BITMAP
0C00
0C00
0C00
0000
1F80
7FC0
70C0
E000
E000
E000
F000
7C00
3E00
1F80
07C0
03C0
01E0
00E0
00E0
00E0
C1C0
FF80
7F00
0000
0600
0600
0600
ENDCHAR
STARTCHAR uni1E69
ENCODING 7785
SWIDTH 510 0
DWIDTH 13 0
BBX 9 22 2 -4
BITMAP
1800
1800
1800
0000
3F00
7F00
F100
E000
E000
F800
7E00
3F00
0780
0380
0380
8780
FF00
7E00
0000
0C00
0C00
0C00
ENDCHAR
STARTCHAR uni1E6A
ENCODING 7786
SWIDTH 633 0
DWIDTH 16 0
BBX 17 23 0 0
BITMAP
00C000
00C000
00C000
000000
FFFF80
FFFF80
01C000
01C000
01C000
01C000
01C000
01C000
01C000
01C000
01C000
01C000
01C000
01C000
01C000
01C000
01C000
01C000
01C000
ENDCHAR
STARTCHAR uni1E6B
ENCODING 7787
SWIDTH 374 0
DWIDTH 10 0
BBX 9 21 0 0
BITMAP
1800
1800
1800
0000
3800
3800
3800
FF80
FF80
3800
3800
3800
3800
3800
3800
3800
3800
3800
3C00
1F80
0F80
ENDCHAR
STARTCHAR uni1E6C
ENCODING 7788
SWIDTH 633 0
DWIDTH 16 0
BBX 17 23 0 -4
BITMAP
FFFF80
FFFF80
01C000
01C000
01C000
01C000
01C000
01C000
01C000
01C000
01C000
01C000
01C000
01C000
01C000
01C000
01C000
01C000
01C000
000000
00C000
00C000
00C000
ENDCHAR
STARTCHAR uni1E6D
ENCODING 7789
SWIDTH 374 0
DWIDTH 10 0
BBX 9 21 0 -4
BITMAP
3800
3800
3800
FF80
FF80
3800
3800
3800
3800
3800
3800
3800
3800
3800
3C00
1F80
0F80
0000
0C00
0C00
0C00
ENDCHAR
STARTCHAR uni1E6E
ENCODING 7790
SWIDTH 633 0
DWIDTH 16 0
BBX 17 22 0 -3
BITMAP
FFFF80
FFFF80
01C000
01C000
01C000
01C000
01C000
01C000
01C000
01C000
01C000
01C000
01C000
01C000
01C000
01C000
01C000
01C000
01C000
000000
07F000
07F000
ENDCHAR
STARTCHAR uni1E6F
ENCODING 7791
SWIDTH 374 0
DWIDTH 10 0
BBX 9 20 0 -3
BITMAP
3800
3800
3800
FF80
FF80
3800
3800
3800
3800
3800
3800
3800
3800
3800
3C00
1F80
0F80
0000
7F00
7F00
ENDCHAR
STARTCHAR uni1E70
ENCODING 7792
SWIDTH 633 0
DWIDTH 16 0
BBX 17 24 0 -5
BITMAP
FFFF80
FFFF80
01C000
01C000
01C000
01C000
01C000
01C000
01C000
01C000
01C000
01C000
01C000
01C000
01C000
01C000
01C000
01C000
01C000
000000
01E000
01E000
033000
061800
ENDCHAR
STARTCHAR uni1E71
ENCODING 7793
SWIDTH 374 0
DWIDTH 10 0
BBX 9 22 0 -5
BITMAP
3800
3800
3800
FF80
FF80
3800
3800
3800
3800
3800
3800
3800
3800
3800
3C00
1F80
0F80
0000
1E00
1E00
3300
6180
ENDCHAR
STARTCHAR uni1E72
ENCODING 7794
SWIDTH 693 0
DWIDTH 18 0
BBX 13 22 3 -3
BITMAP
E018
E018
E018
E018
E018
E018
E018
E018
E018
E018
E018
E018
E018
E018
E018
7038
7870
3FE0
1FC0
0000
18C0
18C0
ENDCHAR
STARTCHAR uni1E73
ENCODING 7795
SWIDTH 620 0
DWIDTH 16 0
BBX 11 17 2 -3
BITMAP
E0E0
E0E0
E0E0
E0E0
E0E0
E0E0
E0E0
E0E0
E0E0
E0E0
E1E0
E3E0
7EE0
3CE0
0000
3180
3180
ENDCHAR
STARTCHAR uni1E74
ENCODING 7796
SWIDTH 693 0
DWIDTH 18 0
BBX 13 23 3 -4
BITMAP
E018
E018
E018
E018
E018
E018
E018
E018
E018
E018
E018
E018
E018
E018
E018
7038
7870
3FE0
1FC0
0000
0E20
1FE0
19C0
ENDCHAR
STARTCHAR uni1E75
ENCODING 7797
SWIDTH 620 0
DWIDTH 16 0
BBX 11 18 2 -4
BITMAP
E0E0
E0E0
E0E0
E0E0
E0E0
E0E0
E0E0
E0E0
E0E0
E0E0
E1E0
E3E0
7EE0
3CE0
0000
1C40
3FC0
3380
ENDCHAR
STARTCHAR uni1E76
ENCODING 7798
SWIDTH 693 0
DWIDTH 18 0
BBX 13 24 3 -5
BITMAP
E018
E018
E018
E018
E018
E018
E018
E018
E018
E018
E018
E018
E018
E018
E018
7038
7870
3FE0
1FC0
0000
0F00
0F00
1980
30C0
ENDCHAR
STARTCHAR uni1E77
ENCODING 7799
SWIDTH 620 0
DWIDTH 16 0
BBX 11 19 2 -5
BITMAP
E0E0
E0E0
E0E0
E0E0
E0E0
E0E0
E0E0
E0E0
E0E0
E0E0
E1E0
E3E0
7EE0
3CE0
0000
0F00
0F00
1980
30C0
ENDCHAR
STARTCHAR uni1E78
ENCODING 7800
SWIDTH 693 0
DWIDTH 18 0
BBX 13 28 3 0
BITMAP
01C0
0380
0700
0E00
0000
1C40
3FC0
3380
0000
E018
E018
E018
E018
E018
E018
E018
E018
E018
E018
E018
E018
E018
E018
E018
7038
7870
3FE0
1FC0
ENDCHAR
STARTCHAR uni1E79
ENCODING 7801
SWIDTH 620 0
DWIDTH 16 0
BBX 11 23 2 0
BITMAP
0380
0700
0E00
1C00
0000
1C40
3FC0
3380
0000
E0E0
E0E0
E0E0
E0E0
E0E0
E0E0
E0E0
E0E0
E0E0
E0E0
E1E0
E3E0
7EE0
3CE0
ENDCHAR
STARTCHAR uni1E7A
ENCODING 7802
SWIDTH 693 0
DWIDTH 18 0
BBX 13 25 3 0
BITMAP
3180
3180
0000
3F80
3F80
0000
E018
E018
E018
E018
E018
E018
E018
E018
E018
E018
E018
E018
E018
E018
E018
7038
7870
3FE0
1FC0
ENDCHAR
STARTCHAR uni1E7B
ENCODING 7803
SWIDTH 620 0
DWIDTH 16 0
BBX 11 20 2 0
BITMAP
3180
3180
0000
3F80
3F80
0000
E0E0
E0E0
E0E0
E0E0
E0E0
E0E0
E0E0
E0E0
E0E0
E0E0
E1E0
E3E0
7EE0
3CE0
ENDCHAR
STARTCHAR uni1E7C
ENCODING 7804
SWIDTH 654 0
DWIDTH 17 0
BBX 16 23 1 0
BITMAP
0E20
1FE0
19C0
0000
E003
E006
7006
7006
700C
380C
380C
3C18
1C18
1C18
1E30
0E30
0E70
0760
0760
07C0
03C0
03C0
0380
ENDCHAR
STARTCHAR uni1E7D
ENCODING 7805
SWIDTH 572 0
DWIDTH 13 0
BBX 13 18 0 0
BITMAP
1C40
3FC0
3380
0000
E018
E030
7030
7070
7060
3860
38C0
3CC0
1DC0
1D80
1F80
0F00
0F00
0700
ENDCHAR
STARTCHAR uni1E7E
ENCODING 7806
SWIDTH 654 0
DWIDTH 17 0
BBX 16 23 1 -4
BITMAP
E003
E006
7006
7006
700C
380C
380C
3C18
1C18
1C18
1E30
0E30
0E70
0760
0760
07C0
03C0
03C0
0380
0000
0180
0180
0180
ENDCHAR
STARTCHAR uni1E7F
ENCODING 7807
SWIDTH 572 0
DWIDTH 13 0
BBX 13 18 0 -4
BITMAP
E018
E030
7030
7070
7060
3860
38C0
3CC0
1DC0
1D80
1F80
0F00
0F00
0700
0000
0600
0600
0600
ENDCHAR
STARTCHAR Wgrave
ENCODING 7808
SWIDTH 855 0
DWIDTH 22 0
BBX 22 24 0 0
BITMAP
01C000
00E000
007000
003800
000000
E0380C
E0781C
E07818
707818
707C18
707C30
70DC30
38DC30
38DE30
38CE60
398E60
1D8E60
1D8EE0
1D87C0
1F87C0
0F07C0
0F0780
0F0380
0F0380
ENDCHAR
STARTCHAR wgrave
ENCODING 7809
SWIDTH 840 0
DWIDTH 20 0
BBX 20 19 0 0
BITMAP
038000
01C000
00E000
007000
000000
C06030
60F060
60F060
60F060
71F0C0
3198C0
3198C0
319980
1B1D80
1B0D80
1B0F00
1E0F00
0E0F00
0E0600
ENDCHAR
STARTCHAR Wacute
ENCODING 7810
SWIDTH 855 0
DWIDTH 22 0
BBX 22 24 0 0
BITMAP
001C00
003800
007000
00E000
000000
E0380C
E0781C
E07818
707818
707C18
707C30
70DC30
38DC30
38DE30
38CE60
398E60
1D8E60
1D8EE0
1D87C0
1F87C0
0F07C0
0F0780
0F0380
0F0380
ENDCHAR
STARTCHAR wacute
ENCODING 7811
SWIDTH 840 0
DWIDTH 20 0
BBX 20 19 0 0
BITMAP
001C00
003800
007000
00E000
000000
C06030
60F060
60F060
60F060
71F0C0
3198C0
3198C0
319980
1B1D80
1B0D80
1B0F00
1E0F00
0E0F00
0E0600
ENDCHAR
STARTCHAR Wdieresis
ENCODING 7812
SWIDTH 855 0
DWIDTH 22 0
BBX 22 22 0 0
BITMAP
018C00
018C00
000000
E0380C
E0781C
E07818
707818
707C18
707C30
70DC30
38DC30
38DE30
38CE60
398E60
1D8E60
1D8EE0
1D87C0
1F87C0
0F07C0
0F0780
0F0380
0F0380
ENDCHAR
STARTCHAR wdieresis
ENCODING 7813
SWIDTH 840 0
DWIDTH 20 0
BBX 20 17 0 0
BITMAP
018C00
018C00
000000
C06030
60F060
60F060
60F060
71F0C0
3198C0
3198C0
319980
1B1D80
1B0D80
1B0F00
1E0F00
0E0F00
0E0600
ENDCHAR
STARTCHAR uni1E86
ENCODING 7814
SWIDTH 855 0
DWIDTH 22 0
BBX 22 23 0 0
BITMAP
003000
003000
003000
000000
E0380C
E0781C
E07818
707818
707C18
707C30
70DC30
38DC30
38DE30
38CE60
398E60
1D8E60
1D8EE0
1D87C0
1F87C0
0F07C0
0F0780
0F0380
0F0380
ENDCHAR
STARTCHAR uni1E87
ENCODING 7815
SWIDTH 840 0
DWIDTH 20 0
BBX 20 18 0 0
BITMAP
006000
006000
006000
000000
C06030
60F060
60F060
60F060
71F0C0
3198C0
3198C0
319980
1B1D80
1B0D80
1B0F00
1E0F00
0E0F00
0E0600
ENDCHAR
STARTCHAR uni1E88
ENCODING 7816
SWIDTH 855 0
DWIDTH 22 0
BBX 22 23 0 -4
BITMAP
E0380C
E0781C
E07818
707818
707C18
707C30
70DC30
38DC30
38DE30
38CE60
398E60
1D8E60
1D8EE0
1D87C0
1F87C0
0F07C0
0F0780
0F0380
0F0380
000000
003000
003000
003000
ENDCHAR
STARTCHAR uni1E89
ENCODING 7817
SWIDTH 840 0
DWIDTH 20 0
BBX 20 18 0 -4
BITMAP
C06030
60F060
60F060
60F060
71F0C0
3198C0
3198C0
319980
1B1D80
1B0D80
1B0F00
1E0F00
0E0F00
0E0600
000000
006000
006000
006000
ENDCHAR
STARTCHAR uni1E8A
ENCODING 7818
SWIDTH 626 0
DWIDTH 16 0
BBX 15 23 0 0
BITMAP
0300
0300
0300
0000
F00E
701C
3818
3C38
1C30
1E60
0FE0
07C0
0780
03C0
07C0
07E0
0EE0
0CF0
1878
3838
303C
601C
E01E
ENDCHAR
STARTCHAR uni1E8B
ENCODING 7819
SWIDTH 613 0
DWIDTH 16 0
BBX 14 18 1 0
BITMAP
0300
0300
0300
0000
E01C
3030
3870
1C60
0CC0
07C0
0780
0780
0F80
1CC0
1860
3070
7038
E01C
ENDCHAR
STARTCHAR uni1E8C
ENCODING 7820
SWIDTH 626 0
DWIDTH 16 0
BBX 15 22 0 0
BITMAP
0C60
0C60
0000
F00E
701C
3818
3C38
1C30
1E60
0FE0
07C0
0780
03C0
07C0
07E0
0EE0
0CF0
1878
3838
303C
601C
E01E
ENDCHAR
STARTCHAR uni1E8D
ENCODING 7821
SWIDTH 613 0
DWIDTH 16 0
BBX 14 17 1 0
BITMAP
18C0
18C0
0000
E01C
3030
3870
1C60
0CC0
07C0
0780
0780
0F80
1CC0
1860
3070
7038
E01C
ENDCHAR
STARTCHAR uni1E8E
ENCODING 7822
SWIDTH 623 0
DWIDTH 16 0
BBX 16 23 0 0
BITMAP
0300
0300
0300
0000
E007
7006
780C
381C
3C18
1C30
1E30
0F60
07E0
07C0
0380
0380
0380
0380
0380
0380
0380
0380
0380
ENDCHAR
STARTCHAR uni1E8F
ENCODING 7823
SWIDTH 568 0
DWIDTH 14 0
BBX 13 23 0 -5
BITMAP
0600
0600
0600
0000
E018
F030
7030
7070
7860
3860
38C0
1CC0
1DC0
1D80
0F80
0F00
0F00
0700
0600
0600
0E00
0C00
1C00
ENDCHAR
STARTCHAR uni1E90
ENCODING 7824
SWIDTH 605 0
DWIDTH 16 0
BBX 13 24 1 0
BITMAP
03C0
03C0
0660
0C30
0000
7FF8
7FF8
0078
0070
00F0
01E0
01C0
03C0
0780
0700
0F00
1E00
1C00
3C00
7800
7000
F000
FFF8
FFF8
ENDCHAR
STARTCHAR uni1E91
ENCODING 7825
SWIDTH 573 0
DWIDTH 15 0
BBX 12 19 1 0
BITMAP
0F00
0F00
1980
30C0
0000
FFF0
FFF0
0060
00C0
0180
0380
0700
0E00
1C00
3800
3000
6000
FFF0
FFF0
ENDCHAR
STARTCHAR uni1E92
ENCODING 7826
SWIDTH 605 0
DWIDTH 16 0
BBX 13 23 1 -4
BITMAP
7FF8
7FF8
0078
0070
00F0
01E0
01C0
03C0
0780
0700
0F00
1E00
1C00
3C00
7800
7000
F000
FFF8
FFF8
0000
0600
0600
0600
ENDCHAR
STARTCHAR uni1E93
ENCODING 7827
SWIDTH 573 0
DWIDTH 15 0
BBX 12 18 1 -4
BITMAP
FFF0
FFF0
0060
00C0
0180
0380
0700
0E00
1C00
3800
3000
6000
FFF0
FFF0
0000
0600
0600
0600
ENDCHAR
STARTCHAR uni1E94
ENCODING 7828
SWIDTH 605 0
DWIDTH 16 0
BBX 13 22 1 -3
BITMAP
7FF8
7FF8
0078
0070
00F0
01E0
01C0
03C0
0780
0700
0F00
1E00
1C00
3C00
7800
7000
F000
FFF8
FFF8
0000
3F80
3F80
ENDCHAR
STARTCHAR uni1E95
ENCODING 7829
SWIDTH 573 0
DWIDTH 15 0
BBX 12 17 1 -3
BITMAP
FFF0
FFF0
0060
00C0
0180
0380
0700
0E00
1C00
3800
3000
6000
FFF0
FFF0
0000
3F80
3F80
ENDCHAR
STARTCHAR uni1E96
ENCODING 7830
SWIDTH 620 0
DWIDTH 16 0
BBX 11 22 3 -3
BITMAP
E000
E000
E000
E000
E000
E780
EFC0
F8E0
F0E0
E0E0
E0E0
E0E0
E0E0
E0E0
E0E0
E0E0
E0E0
E0E0
E0E0
0000
3F80
3F80
ENDCHAR
STARTCHAR uni1E97
ENCODING 7831
SWIDTH 374 0
DWIDTH 10 0
BBX 9 20 0 0
BITMAP
6300
6300
0000
3800
3800
3800
FF80
FF80
3800
3800
3800
3800
3800
3800
3800
3800
3800
3C00
1F80
0F80
ENDCHAR
STARTCHAR uni1E98
ENCODING 7832
SWIDTH 840 0
DWIDTH 20 0
BBX 20 19 0 0
BITMAP
006000
009000
009000
006000
000000
C06030
60F060
60F060
60F060
71F0C0
3198C0
3198C0
319980
1B1D80
1B0D80
1B0F00
1E0F00
0E0F00
0E0600
ENDCHAR
STARTCHAR uni1E99
ENCODING 7833
SWIDTH 568 0
DWIDTH 14 0
BBX 13 24 0 -5
BITMAP
0600
0900
0900
0600
0000
E018
F030
7030
7070
7860
3860
38C0
1CC0
1DC0
1D80
0F80
0F00
0F00
0700
0600
0600
0E00
0C00
1C00
ENDCHAR
STARTCHAR uni1EA0
ENCODING 7840
SWIDTH 690 0
DWIDTH 18 0
BBX 17 23 0 -4
BITMAP
01C000
01E000
03E000
03E000
037000
067000
067000
063800
0C3800
0C3C00
1C1C00
181C00
1FFE00
3FFE00
300E00
700700
600700
600380
C00380
000000
00C000
00C000
00C000
ENDCHAR
STARTCHAR uni1EA1
ENCODING 7841
SWIDTH 552 0
DWIDTH 14 0
BBX 12 18 2 -4
BITMAP
1F80
7FC0
41C0
01C0
01C0
01C0
1FC0
7FC0
F1C0
E1C0
E1C0
E3C0
7EF0
3C70
0000
0600
0600
0600
ENDCHAR
STARTCHAR uni1EA4
ENCODING 7844
SWIDTH 690 0
DWIDTH 18 0
BBX 17 29 0 0
BITMAP
007000
00E000
01C000
038000
000000
01E000
01E000
033000
061800
000000
01C000
01E000
03E000
03E000
037000
067000
067000
063800
0C3800
0C3C00
1C1C00
181C00
1FFE00
3FFE00
300E00
700700
600700
600380
C00380
ENDCHAR
STARTCHAR uni1EA5
ENCODING 7845
SWIDTH 552 0
DWIDTH 14 0
BBX 12 24 2 0
BITMAP
01C0
0380
0700
0E00
0000
0F00
0F00
1980
30C0
0000
1F80
7FC0
41C0
01C0
01C0
01C0
1FC0
7FC0
F1C0
E1C0
E1C0
E3C0
7EF0
3C70
ENDCHAR
STARTCHAR uni1EA6
ENCODING 7846
SWIDTH 690 0
DWIDTH 18 0
BBX 17 29 0 0
BITMAP
070000
038000
01C000
00E000
000000
01E000
01E000
033000
061800
000000
01C000
01E000
03E000
03E000
037000
067000
067000
063800
0C3800
0C3C00
1C1C00
181C00
1FFE00
3FFE00
300E00
700700
600700
600380
C00380
ENDCHAR
STARTCHAR uni1EA7
ENCODING 7847
SWIDTH 552 0
DWIDTH 14 0
BBX 12 24 2 0
BITMAP
3800
1C00
0E00
0700
0000
0F00
0F00
1980
30C0
0000
1F80
7FC0
41C0
01C0
01C0
01C0
1FC0
7FC0
F1C0
E1C0
E1C0
E3C0
7EF0
3C70
ENDCHAR
STARTCHAR uni1EAA
ENCODING 7850
SWIDTH 690 0
DWIDTH 18 0
BBX 17 28 0 0
BITMAP
038800
07F800
067000
000000
01E000
01E000
033000
061800
000000
01C000
01E000
03E000
03E000
037000
067000
067000
063800
0C3800
0C3C00
1C1C00
181C00
1FFE00
3FFE00
300E00
700700
600700
600380
C00380
ENDCHAR
STARTCHAR uni1EAB
ENCODING 7851
SWIDTH 552 0
DWIDTH 14 0
BBX 12 23 2 0
BITMAP
1C40
3FC0
3380
0000
0F00
0F00
1980
30C0
0000
1F80
7FC0
41C0
01C0
01C0
01C0
1FC0
7FC0
F1C0
E1C0
E1C0
E3C0
7EF0
3C70
ENDCHAR
STARTCHAR uni1EAC
ENCODING 7852
SWIDTH 690 0
DWIDTH 18 0
BBX 17 28 0 -4
BITMAP
01E000
01E000
033000
061800
000000
01C000
01E000
03E000
03E000
037000
067000
067000
063800
0C3800
0C3C00
1C1C00
181C00
1FFE00
3FFE00
300E00
700700
600700
600380
C00380
000000
00C000
00C000
00C000
ENDCHAR
STARTCHAR uni1EAD
ENCODING 7853
SWIDTH 552 0
DWIDTH 14 0
BBX 12 23 2 -4
BITMAP
0F00
0F00
1980
30C0
0000
1F80
7FC0
41C0
01C0
01C0
01C0
1FC0
7FC0
F1C0
E1C0
E1C0
E3C0
7EF0
3C70
0000
0600
0600
0600
ENDCHAR
STARTCHAR uni1EAE
ENCODING 7854
SWIDTH 690 0
DWIDTH 18 0
BBX 17 29 0 0
BITMAP
007000
00E000
01C000
038000
000000
061800
061800
03F000
01E000
000000
01C000
01E000
03E000
03E000
037000
067000
067000
063800
0C3800
0C3C00
1C1C00
181C00
1FFE00
3FFE00
300E00
700700
600700
600380
C00380
ENDCHAR
STARTCHAR uni1EAF
ENCODING 7855
SWIDTH 552 0
DWIDTH 14 0
BBX 12 24 2 0
BITMAP
01C0
0380
0700
0E00
0000
30C0
30C0
1F80
0F00
0000
1F80
7FC0
41C0
01C0
01C0
01C0
1FC0
7FC0
F1C0
E1C0
E1C0
E3C0
7EF0
3C70
ENDCHAR
STARTCHAR uni1EB0
ENCODING 7856
SWIDTH 690 0
DWIDTH 18 0
BBX 17 29 0 0
BITMAP
070000
038000
01C000
00E000
000000
061800
061800
03F000
01E000
000000
01C000
01E000
03E000
03E000
037000
067000
067000
063800
0C3800
0C3C00
1C1C00
181C00
1FFE00
3FFE00
300E00
700700
600700
600380
C00380
ENDCHAR
STARTCHAR uni1EB1
ENCODING 7857
SWIDTH 552 0
DWIDTH 14 0
BBX 12 24 2 0
BITMAP
3800
1C00
0E00
0700
0000
30C0
30C0
1F80
0F00
0000
1F80
7FC0
41C0
01C0
01C0
01C0
1FC0
7FC0
F1C0
E1C0
E1C0
E3C0
7EF0
3C70
ENDCHAR
STARTCHAR uni1EB4
ENCODING 7860
SWIDTH 690 0
DWIDTH 18 0
BBX 17 28 0 0
BITMAP
038800
07F800
067000
000000
061800
061800
03F000
01E000
000000
01C000
01E000
03E000
03E000
037000
067000
067000
063800
0C3800
0C3C00
1C1C00
181C00
1FFE00
3FFE00
300E00
700700
600700
600380
C00380
ENDCHAR
STARTCHAR uni1EB5
ENCODING 7861
SWIDTH 552 0
DWIDTH 14 0
BBX 12 23 2 0
BITMAP
1C40
3FC0
3380
0000
30C0
30C0
1F80
0F00
0000
1F80
7FC0
41C0
01C0
01C0
01C0
1FC0
7FC0
F1C0
E1C0
E1C0
E3C0
7EF0
3C70
ENDCHAR
STARTCHAR uni1EB6
ENCODING 7862
SWIDTH 690 0
DWIDTH 18 0
BBX 17 28 0 -4
BITMAP
061800
061800
03F000
01E000
000000
01C000
01E000
03E000
03E000
037000
067000
067000
063800
0C3800
0C3C00
1C1C00
181C00
1FFE00
3FFE00
300E00
700700
600700
600380
C00380
000000
00C000
00C000
00C000
ENDCHAR
STARTCHAR uni1EB7
ENCODING 7863
SWIDTH 552 0
DWIDTH 14 0
BBX 12 23 2 -4
BITMAP
30C0
30C0
1F80
0F00
0000
1F80
7FC0
41C0
01C0
01C0
01C0
1FC0
7FC0
F1C0
E1C0
E1C0
E3C0
7EF0
3C70
0000
0600
0600
0600
ENDCHAR
STARTCHAR uni1EB8
ENCODING 7864
SWIDTH 542 0
DWIDTH 14 0
BBX 11 23 2 -4
BITMAP
FFC0
FFC0
E000
E000
E000
E000
E000
E000
FF80
FF80
E000
E000
E000
E000
E000
E000
E000
FFE0
FFE0
0000
0C00
0C00
0C00
ENDCHAR
STARTCHAR uni1EB9
ENCODING 7865
SWIDTH 557 0
DWIDTH 14 0
BBX 12 18 1 -4
BITMAP
0F80
3FC0
70E0
7060
E070
E070
FFF0
FFF0
E000
E000
7000
7C10
1FF0
0FE0
0000
0600
0600
0600
ENDCHAR
STARTCHAR uni1EBC
ENCODING 7868
SWIDTH 542 0
DWIDTH 14 0
BBX 11 23 2 0
BITMAP
3880
7F80
6700
0000
FFC0
FFC0
E000
E000
E000
E000
E000
E000
FF80
FF80
E000
E000
E000
E000
E000
E000
E000
FFE0
FFE0
ENDCHAR
STARTCHAR uni1EBD
ENCODING 7869
SWIDTH 557 0
DWIDTH 14 0
BBX 12 18 1 0
BITMAP
1C40
3FC0
3380
0000
0F80
3FC0
70E0
7060
E070
E070
FFF0
FFF0
E000
E000
7000
7C10
1FF0
0FE0
ENDCHAR
STARTCHAR uni1EBE
ENCODING 7870
SWIDTH 542 0
DWIDTH 14 0
BBX 11 29 2 0
BITMAP
0380
0700
0E00
1C00
0000
1E00
1E00
3300
6180
0000
FFC0
FFC0
E000
E000
E000
E000
E000
E000
FF80
FF80
E000
E000
E000
E000
E000
E000
E000
FFE0
FFE0
ENDCHAR
STARTCHAR uni1EBF
ENCODING 7871
SWIDTH 557 0
DWIDTH 14 0
BBX 12 24 1 0
BITMAP
01C0
0380
0700
0E00
0000
0F00
0F00
1980
30C0
0000
0F80
3FC0
70E0
7060
E070
E070
FFF0
FFF0
E000
E000
7000
7C10
1FF0
0FE0
ENDCHAR
STARTCHAR uni1EC0
ENCODING 7872
SWIDTH 542 0
DWIDTH 14 0
BBX 11 29 2 0
BITMAP
3800
1C00
0E00
0700
0000
1E00
1E00
3300
6180
0000
FFC0
FFC0
E000
E000
E000
E000
E000
E000
FF80
FF80
E000
E000
E000
E000
E000
E000
E000
FFE0
FFE0
ENDCHAR
STARTCHAR uni1EC1
ENCODING 7873
SWIDTH 557 0
DWIDTH 14 0
BBX 12 24 1 0
BITMAP
3800
1C00
0E00
0700
0000
0F00
0F00
1980
30C0
0000
0F80
3FC0
70E0
7060
E070
E070
FFF0
FFF0
E000
E000
7000
7C10
1FF0
0FE0
ENDCHAR
STARTCHAR uni1EC4
ENCODING 7876
SWIDTH 542 0
DWIDTH 14 0
BBX 11 28 2 0
BITMAP
3880
7F80
6700
0000
1E00
1E00
3300
6180
0000
FFC0
FFC0
E000
E000
E000
E000
E000
E000
FF80
FF80
E000
E000
E000
E000
E000
E000
E000
FFE0
FFE0
ENDCHAR
STARTCHAR uni1EC5
ENCODING 7877
SWIDTH 557 0
DWIDTH 14 0
BBX 12 23 1 0
BITMAP
1C40
3FC0
3380
0000
0F00
0F00
1980
30C0
0000
0F80
3FC0
70E0
7060
E070
E070
FFF0
FFF0
E000
E000
7000
7C10
1FF0
0FE0
ENDCHAR
STARTCHAR uni1EC6
ENCODING 7878
SWIDTH 542 0
DWIDTH 14 0
BBX 11 28 2 -4
BITMAP
3C00
3C00
6600
C300
0000
FFC0
FFC0
E000
E000
E000
E000
E000
E000
FF80
FF80
E000
E000
E000
E000
E000
E000
E000
FFE0
FFE0
0000
0C00
0C00
0C00
ENDCHAR
STARTCHAR uni1EC7
ENCODING 7879
SWIDTH 557 0
DWIDTH 14 0
BBX 12 23 1 -4
BITMAP
0F00
0F00
1980
30C0
0000
0F80
3FC0
70E0
7060
E070
E070
FFF0
FFF0
E000
E000
7000
7C10
1FF0
0FE0
0000
0600
0600
0600
ENDCHAR
STARTCHAR uni1ECA
ENCODING 7882
SWIDTH 288 0
DWIDTH 7 0
BBX 3 23 2 -4
BITMAP
E0
E0
E0
E0
E0
E0
E0
E0
E0
E0
E0
E0
E0
E0
E0
E0
E0
E0
E0
00
60
60
60
ENDCHAR
STARTCHAR uni1ECB
ENCODING 7883
SWIDTH 289 0
DWIDTH 8 0
BBX 3 23 2 -4
BITMAP
E0
E0
E0
00
00
E0
E0
E0
E0
E0
E0
E0
E0
E0
E0
E0
E0
E0
E0
00
60
60
60
ENDCHAR
STARTCHAR uni1ECC
ENCODING 7884
SWIDTH 777 0
DWIDTH 20 0
BBX 18 23 1 -4
BITMAP
03F000
0FFC00
1E1E00
380700
700380
700380
E001C0
E001C0
E001C0
E001C0
E001C0
E001C0
E001C0
700380
700380
380700
1C0E00
0FFC00
03F000
000000
00C000
00C000
00C000
ENDCHAR
STARTCHAR uni1ECD
ENCODING 7885
SWIDTH 614 0
DWIDTH 16 0
BBX 13 18 1 -4
BITMAP
0F80
3FE0
78F0
7070
E038
E038
E038
E038
E038
E038
7070
78F0
3FE0
0F80
0000
0300
0300
0300
ENDCHAR
STARTCHAR uni1ED0
ENCODING 7888
SWIDTH 777 0
DWIDTH 20 0
BBX 18 29 1 0
BITMAP
003800
007000
00E000
01C000
000000
01E000
01E000
033000
061800
000000
03F000
0FFC00
1E1E00
380700
700380
700380
E001C0
E001C0
E001C0
E001C0
E001C0
E001C0
E001C0
700380
700380
380700
1C0E00
0FFC00
03F000
ENDCHAR
STARTCHAR uni1ED1
ENCODING 7889
SWIDTH 614 0
DWIDTH 16 0
BBX 13 24 1 0
BITMAP
00E0
01C0
0380
0700
0000
0780
0780
0CC0
1860
0000
0F80
3FE0
78F0
7070
E038
E038
E038
E038
E038
E038
7070
78F0
3FE0
0F80
ENDCHAR
STARTCHAR uni1ED2
ENCODING 7890
SWIDTH 777 0
DWIDTH 20 0
BBX 18 29 1 0
BITMAP
070000
038000
01C000
00E000
000000
01E000
01E000
033000
061800
000000
03F000
0FFC00
1E1E00
380700
700380
700380
E001C0
E001C0
E001C0
E001C0
E001C0
E001C0
E001C0
700380
700380
380700
1C0E00
0FFC00
03F000
ENDCHAR
STARTCHAR uni1ED3
ENCODING 7891
SWIDTH 614 0
DWIDTH 16 0
BBX 13 24 1 0
BITMAP
1C00
0E00
0700
0380
0000
0780
0780
0CC0
1860
0000
0F80
3FE0
78F0
7070
E038
E038
E038
E038
E038
E038
7070
78F0
3FE0
0F80
ENDCHAR
STARTCHAR uni1ED6
ENCODING 7894
SWIDTH 777 0
DWIDTH 20 0
BBX 18 28 1 0
BITMAP
038800
07F800
067000
000000
01E000
01E000
033000
061800
000000
03F000
0FFC00
1E1E00
380700
700380
700380
E001C0
E001C0
E001C0
E001C0
E001C0
E001C0
E001C0
700380
700380
380700
1C0E00
0FFC00
03F000
ENDCHAR
STARTCHAR uni1ED7
ENCODING 7895
SWIDTH 614 0
DWIDTH 16 0
BBX 13 23 1 0
BITMAP
0E20
1FE0
19C0
0000
0780
0780
0CC0
1860
0000
0F80
3FE0
78F0
7070
E038
E038
E038
E038
E038
E038
7070
78F0
3FE0
0F80
ENDCHAR
STARTCHAR uni1ED8
ENCODING 7896
SWIDTH 777 0
DWIDTH 20 0
BBX 18 28 1 -4
BITMAP
01E000
01E000
033000
061800
000000
03F000
0FFC00
1E1E00
380700
700380
700380
E001C0
E001C0
E001C0
E001C0
E001C0
E001C0
E001C0
700380
700380
380700
1C0E00
0FFC00
03F000
000000
00C000
00C000
00C000
ENDCHAR
STARTCHAR uni1ED9
ENCODING 7897
SWIDTH 614 0
DWIDTH 16 0
BBX 13 23 1 -4
BITMAP
0780
0780
0CC0
1860
0000
0F80
3FE0
78F0
7070
E038
E038
E038
E038
E038
E038
7070
78F0
3FE0
0F80
0000
0300
0300
0300
ENDCHAR
STARTCHAR uni1EDA
ENCODING 7898
SWIDTH 777 0
DWIDTH 20 0
BBX 19 24 1 0
BITMAP
001C00
003800
007000
00E000
000000
03F0E0
0FFCE0
1E1EE0
380760
7003E0
7003E0
E001C0
E001C0
E001C0
E001C0
E001C0
E001C0
E001C0
700380
700380
380700
1C0E00
0FFC00
03F000
ENDCHAR
STARTCHAR uni1EDB
ENCODING 7899
SWIDTH 614 0
DWIDTH 16 0
BBX 15 19 1 0
BITMAP
0070
00E0
01C0
0380
0000
0F8E
3FEE
78FE
7076
E03E
E03E
E03C
E038
E038
E038
7070
78F0
3FE0
0F80
ENDCHAR
STARTCHAR uni1EDC
ENCODING 7900
SWIDTH 777 0
DWIDTH 20 0
BBX 19 24 1 0
BITMAP
01C000
00E000
007000
003800
000000
03F0E0
0FFCE0
1E1EE0
380760
7003E0
7003E0
E001C0
E001C0
E001C0
E001C0
E001C0
E001C0
E001C0
700380
700380
380700
1C0E00
0FFC00
03F000
ENDCHAR
STARTCHAR uni1EDD
ENCODING 7901
SWIDTH 614 0
DWIDTH 16 0
BBX 15 19 1 0
BITMAP
0700
0380
01C0
00E0
0000
0F8E
3FEE
78FE
7076
E03E
E03E
E03C
E038
E038
E038
7070
78F0
3FE0
0F80
ENDCHAR
STARTCHAR uni1EE0
ENCODING 7904
SWIDTH 777 0
DWIDTH 20 0
BBX 19 23 1 0
BITMAP
00E200
01FE00
019C00
000000
03F0E0
0FFCE0
1E1EE0
380760
7003E0
7003E0
E001C0
E001C0
E001C0
E001C0
E001C0
E001C0
E001C0
700380
700380
380700
1C0E00
0FFC00
03F000
ENDCHAR
STARTCHAR uni1EE1
ENCODING 7905
SWIDTH 614 0
DWIDTH 16 0
BBX 15 18 1 0
BITMAP
0710
0FF0
0CE0
0000
0F8E
3FEE
78FE
7076
E03E
E03E
E03C
E038
E038
E038
7070
78F0
3FE0
0F80
ENDCHAR
STARTCHAR uni1EE2
ENCODING 7906
SWIDTH 777 0
DWIDTH 20 0
BBX 19 23 1 -4
BITMAP
03F0E0
0FFCE0
1E1EE0
380760
7003E0
7003E0
E001C0
E001C0
E001C0
E001C0
E001C0
E001C0
E001C0
700380
700380
380700
1C0E00
0FFC00
03F000
000000
00C000
00C000
00C000
ENDCHAR
STARTCHAR uni1EE3
ENCODING 7907
SWIDTH 614 0
DWIDTH 16 0
BBX 15 18 1 -4
BITMAP
0F8E
3FEE
78FE
7076
E03E
E03E
E03C
E038
E038
E038
7070
78F0
3FE0
0F80
0000
0300
0300
0300
ENDCHAR
STARTCHAR uni1EE4
ENCODING 7908
SWIDTH 693 0
DWIDTH 18 0
BBX 13 23 3 -4
BITMAP
E018
E018
E018
E018
E018
E018
E018
E018
E018
E018
E018
E018
E018
E018
E018
7038
7870
3FE0
1FC0
0000
0600
0600
0600
ENDCHAR
STARTCHAR uni1EE5
ENCODING 7909
SWIDTH 620 0
DWIDTH 16 0
BBX 11 18 2 -4
BITMAP
E0E0
E0E0
E0E0
E0E0
E0E0
E0E0
E0E0
E0E0
E0E0
E0E0
E1E0
E3E0
7EE0
3CE0
0000
0600
0600
0600
ENDCHAR
STARTCHAR uni1EE8
ENCODING 7912
SWIDTH 693 0
DWIDTH 18 0
BBX 15 24 3 0
BITMAP
0070
00E0
01C0
0380
0000
E01E
E01E
E01E
E01E
E01E
E01E
E01C
E018
E018
E018
E018
E018
E018
E018
E018
7038
7870
3FE0
1FC0
ENDCHAR
STARTCHAR uni1EE9
ENCODING 7913
SWIDTH 620 0
DWIDTH 16 0
BBX 13 19 2 0
BITMAP
00E0
01C0
0380
0700
0000
E0F8
E0F8
E0F8
E0F8
E0F8
E0F8
E0F0
E0E0
E0E0
E0E0
E1E0
E3E0
7EE0
3CE0
ENDCHAR
STARTCHAR uni1EEA
ENCODING 7914
SWIDTH 693 0
DWIDTH 18 0
BBX 15 24 3 0
BITMAP
0E00
0700
0380
01C0
0000
E01E
E01E
E01E
E01E
E01E
E01E
E01C
E018
E018
E018
E018
E018
E018
E018
E018
7038
7870
3FE0
1FC0
ENDCHAR
STARTCHAR uni1EEB
ENCODING 7915
SWIDTH 620 0
DWIDTH 16 0
BBX 13 19 2 0
BITMAP
1C00
0E00
0700
0380
0000
E0F8
E0F8
E0F8
E0F8
E0F8
E0F8
E0F0
E0E0
E0E0
E0E0
E1E0
E3E0
7EE0
3CE0
ENDCHAR
STARTCHAR uni1EEE
ENCODING 7918
SWIDTH 693 0
DWIDTH 18 0
BBX 15 23 3 0
BITMAP
0710
0FF0
0CE0
0000
E01E
E01E
E01E
E01E
E01E
E01E
E01C
E018
E018
E018
E018
E018
E018
E018
E018
7038
7870
3FE0
1FC0
ENDCHAR
STARTCHAR uni1EEF
ENCODING 7919
SWIDTH 620 0
DWIDTH 16 0
BBX 13 18 2 0
BITMAP
0E20
1FE0
19C0
0000
E0F8
E0F8
E0F8
E0F8
E0F8
E0F8
E0F0
E0E0
E0E0
E0E0
E1E0
E3E0
7EE0
3CE0
ENDCHAR
STARTCHAR uni1EF0
ENCODING 7920
SWIDTH 693 0
DWIDTH 18 0
BBX 15 23 3 -4
BITMAP
E01E
E01E
E01E
E01E
E01E
E01E
E01C
E018
E018
E018
E018
E018
E018
E018
E018
7038
7870
3FE0
1FC0
0000
0300
0300
0300
ENDCHAR
STARTCHAR uni1EF1
ENCODING 7921
SWIDTH 620 0
DWIDTH 16 0
BBX 13 18 2 -4
BITMAP
E0F8
E0F8
E0F8
E0F8
E0F8
E0F8
E0F0
E0E0
E0E0
E0E0
E1E0
E3E0
7EE0
3CE0
0000
0600
0600
0600
ENDCHAR
STARTCHAR Ygrave
ENCODING 7922
SWIDTH 623 0
DWIDTH 16 0
BBX 16 24 0 0
BITMAP
0E00
0700
0380
01C0
0000
E007
7006
780C
381C
3C18
1C30
1E30
0F60
07E0
07C0
0380
0380
0380
0380
0380
0380
0380
0380
0380
ENDCHAR
STARTCHAR ygrave
ENCODING 7923
SWIDTH 568 0
DWIDTH 14 0
BBX 13 24 0 -5
BITMAP
3800
1C00
0E00
0700
0000
E018
F030
7030
7070
7860
3860
38C0
1CC0
1DC0
1D80
0F80
0F00
0F00
0700
0600
0600
0E00
0C00
1C00
ENDCHAR
STARTCHAR uni1EF4
ENCODING 7924
SWIDTH 623 0
DWIDTH 16 0
BBX 16 23 0 -4
BITMAP
E007
7006
780C
381C
3C18
1C30
1E30
0F60
07E0
07C0
0380
0380
0380
0380
0380
0380
0380
0380
0380
0000
0180
0180
0180
ENDCHAR
STARTCHAR uni1EF5
ENCODING 7925
SWIDTH 568 0
DWIDTH 14 0
BBX 13 23 0 -9
BITMAP
E018
F030
7030
7070
7860
3860
38C0
1CC0
1DC0
1D80
0F80
0F00
0F00
0700
0600
0600
0E00
0C00
1C00
0000
0600
0600
0600
ENDCHAR
STARTCHAR uni1EF8
ENCODING 7928
SWIDTH 623 0
DWIDTH 16 0
BBX 16 23 0 0
BITMAP
0710
0FF0
0CE0
0000
E007
7006
780C
381C
3C18
1C30
1E30
0F60
07E0
07C0
0380
0380
0380
0380
0380
0380
0380
0380
0380
ENDCHAR
STARTCHAR uni1EF9
ENCODING 7929
SWIDTH 568 0
DWIDTH 14 0
BBX 13 23 0 -5
BITMAP
1C40
3FC0
3380
0000
E018
F030
7030
7070
7860
3860
38C0
1CC0
1DC0
1D80
0F80
0F00
0F00
0700
0600
0600
0E00
0C00
1C00
ENDCHAR
STARTCHAR uni2000
ENCODING 8192
SWIDTH 500 0
DWIDTH 13 0
BBX 1 1 0 0
BITMAP
00
ENDCHAR
STARTCHAR uni2001
ENCODING 8193
SWIDTH 1000 0
DWIDTH 26 0
BBX 1 1 0 0
BITMAP
00
ENDCHAR
STARTCHAR uni2002
ENCODING 8194
SWIDTH 500 0
DWIDTH 13 0
BBX 1 1 0 0
BITMAP
00
ENDCHAR
STARTCHAR uni2003
ENCODING 8195
SWIDTH 1000 0
DWIDTH 26 0
BBX 1 1 0 0
BITMAP
00
ENDCHAR
STARTCHAR uni2004
ENCODING 8196
SWIDTH 333 0
DWIDTH 9 0
BBX 1 1 0 0
BITMAP
00
ENDCHAR
STARTCHAR uni2005
ENCODING 8197
SWIDTH 250 0
DWIDTH 7 0
BBX 1 1 0 0
BITMAP
00
ENDCHAR
STARTCHAR uni2006
ENCODING 8198
SWIDTH 167 0
DWIDTH 4 0
BBX 1 1 0 0
BITMAP
00
ENDCHAR
STARTCHAR uni2007
ENCODING 8199
SWIDTH 633 0
DWIDTH 16 0
BBX 1 1 0 0
BITMAP
00
ENDCHAR
STARTCHAR uni2008
ENCODING 8200
SWIDTH 316 0
DWIDTH 8 0
BBX 1 1 0 0
BITMAP
00
ENDCHAR
STARTCHAR uni2009
ENCODING 8201
SWIDTH 200 0
DWIDTH 5 0
BBX 1 1 0 0
BITMAP
00
ENDCHAR
STARTCHAR uni200A
ENCODING 8202
SWIDTH 100 0
DWIDTH 3 0
BBX 1 1 0 0
BITMAP
00
ENDCHAR
STARTCHAR uni200B
ENCODING 8203
SWIDTH 0 0
DWIDTH 0 0
BBX 1 1 0 0
BITMAP
00
ENDCHAR
STARTCHAR uni2010
ENCODING 8208
SWIDTH 325 0
DWIDTH 8 0
BBX 6 2 1 7
BITMAP
FC
FC
ENDCHAR
STARTCHAR uni2011
ENCODING 8209
SWIDTH 325 0
DWIDTH 8 0
BBX 6 2 1 7
BITMAP
FC
FC
ENDCHAR
STARTCHAR figuredash
ENCODING 8210
SWIDTH 500 0
DWIDTH 13 0
BBX 10 2 2 7
BITMAP
FFC0
FFC0
ENDCHAR
STARTCHAR endash
ENCODING 8211
SWIDTH 500 0
DWIDTH 13 0
BBX 10 2 2 7
BITMAP
FFC0
FFC0
ENDCHAR
STARTCHAR emdash
ENCODING 8212
SWIDTH 1000 0
DWIDTH 26 0
BBX 23 2 2 7
BITMAP
FFFFFE
FFFFFE
ENDCHAR
STARTCHAR afii00208
ENCODING 8213
SWIDTH 1000 0
DWIDTH 26 0
BBX 23 2 2 7
BITMAP
FFFFFE
FFFFFE
ENDCHAR
STARTCHAR quoteleft
ENCODING 8216
SWIDTH 229 0
DWIDTH 6 0
BBX 3 7 1 12
BITMAP
60
C0
C0
C0
E0
E0
E0
ENDCHAR
STARTCHAR quoteright
ENCODING 8217
SWIDTH 229 0
DWIDTH 6 0
BBX 3 7 1 12
BITMAP
E0
E0
E0
60
60
60
C0
ENDCHAR
STARTCHAR quotesinglbase
ENCODING 8218
SWIDTH 229 0
DWIDTH 6 0
BBX 3 8 1 -4
BITMAP
E0
E0
E0
E0
60
60
40
C0
ENDCHAR
STARTCHAR quotereversed
ENCODING 8219
SWIDTH 229 0
DWIDTH 6 0
BBX 3 7 1 12
BITMAP
E0
E0
E0
C0
C0
C0
60
ENDCHAR
STARTCHAR quotedblleft
ENCODING 8220
SWIDTH 373 0
DWIDTH 10 0
BBX 7 6 1 13
BITMAP
66
CC
CC
EE
EE
EE
ENDCHAR
STARTCHAR quotedblright
ENCODING 8221
SWIDTH 373 0
DWIDTH 10 0
BBX 7 6 1 13
BITMAP
EE
EE
EE
66
66
CC
ENDCHAR
STARTCHAR quotedblbase
ENCODING 8222
SWIDTH 373 0
DWIDTH 10 0
BBX 7 8 1 -5
BITMAP
EE
EE
EE
66
66
66
CC
88
ENDCHAR
STARTCHAR uni201F
ENCODING 8223
SWIDTH 373 0
DWIDTH 10 0
BBX 7 6 1 13
BITMAP
EE
EE
EE
CC
CC
66
ENDCHAR
STARTCHAR dagger
ENCODING 8224
SWIDTH 633 0
DWIDTH 16 0
BBX 10 23 3 -4
BITMAP
0C00
0C00
0C00
0C00
0C00
0C00
0C00
FFC0
FFC0
0C00
0C00
0C00
0C00
0C00
0C00
0C00
0C00
0C00
0C00
0C00
0C00
0C00
0C00
ENDCHAR
STARTCHAR daggerdbl
ENCODING 8225
SWIDTH 633 0
DWIDTH 16 0
BBX 10 23 3 -4
BITMAP
0C00
0C00
0C00
0C00
0C00
0C00
0C00
FFC0
FFC0
0C00
0C00
0C00
0C00
0C00
0C00
FFC0
FFC0
0C00
0C00
0C00
0C00
0C00
0C00
ENDCHAR
STARTCHAR bullet
ENCODING 8226
SWIDTH 633 0
DWIDTH 16 0
BBX 8 8 4 4
BITMAP
FF
FF
FF
FF
FF
FF
FF
FF
ENDCHAR
STARTCHAR ellipsis
ENCODING 8230
SWIDTH 1000 0
DWIDTH 26 0
BBX 20 3 3 0
BITMAP
E07070
E07070
E07070
ENDCHAR
STARTCHAR perthousand
ENCODING 8240
SWIDTH 1012 0
DWIDTH 26 0
BBX 26 19 0 0
BITMAP
3C038000
7E070000
E7060000
C30C0000
C31C0000
C3380000
E7300000
7E600000
3CE00000
01DE0F00
03BF1F80
0373B9C0
0661B0C0
0E61B0C0
1C61B0C0
1861B0C0
3073B9C0
703F1F80
E01E0F00
ENDCHAR
STARTCHAR guilsinglleft
ENCODING 8249
SWIDTH 331 0
DWIDTH 9 0
BBX 6 12 2 1
BITMAP
08
1C
18
30
70
E0
E0
70
30
18
1C
08
ENDCHAR
STARTCHAR guilsinglright
ENCODING 8250
SWIDTH 331 0
DWIDTH 9 0
BBX 6 12 1 1
BITMAP
40
E0
60
30
38
1C
1C
38
30
60
E0
40
ENDCHAR
STARTCHAR fraction
ENCODING 8260
SWIDTH 36 0
DWIDTH 1 0
BBX 16 19 -7 0
BITMAP
0007
000E
000C
001C
0038
0030
0060
00E0
01C0
0180
0380
0700
0600
0C00
1C00
3800
3000
7000
E000
ENDCHAR
STARTCHAR oneinferior
ENCODING 8321
SWIDTH 422 0
DWIDTH 10 0
BBX 4 11 -17 -6
BITMAP
F0
F0
30
30
30
30
30
30
30
30
30
ENDCHAR
STARTCHAR twoinferior
ENCODING 8322
SWIDTH 422 0
DWIDTH 10 0
BBX 7 11 -16 -6
BITMAP
7C
FE
8E
06
0E
1C
38
70
60
FE
FE
ENDCHAR
STARTCHAR threeinferior
ENCODING 8323
SWIDTH 422 0
DWIDTH 10 0
BBX 7 11 -16 -6
BITMAP
7C
FE
86
06
78
78
06
06
8E
FE
F8
ENDCHAR
STARTCHAR uni20A5
ENCODING 8357
SWIDTH 934 0
DWIDTH 24 0
BBX 19 23 3 -4
BITMAP
000300
000600
000600
000C00
000C00
E7DF80
EFDFC0
F8F9E0
F0F0E0
E0F0E0
E0E0E0
E0E0E0
E0E0E0
E1E0E0
E1E0E0
E1E0E0
E3E0E0
E3E0E0
E6E0E0
060000
0C0000
0C0000
180000
ENDCHAR
STARTCHAR uni20A6
ENCODING 8358
SWIDTH 741 0
DWIDTH 19 0
BBX 15 19 3 0
BITMAP
E00C
F00C
F00C
F80C
FC0C
DC0C
FFFE
FFFE
C70C
C78C
C38C
FFFE
FFFE
C0EC
C0FC
C07C
C03C
C03C
C01C
ENDCHAR
STARTCHAR uni20A9
ENCODING 8361
SWIDTH 855 0
DWIDTH 22 0
BBX 22 19 0 0
BITMAP
E0380C
E0781C
E07818
707818
707C18
707C30
7FFFF0
3FFFF0
38DE30
38CE60
398E60
1FFFE0
1FFFE0
1D87C0
1F87C0
0F07C0
0F0780
0F0380
0F0380
ENDCHAR
STARTCHAR Euro
ENCODING 8364
SWIDTH 692 0
DWIDTH 18 0
BBX 19 19 -3 0
BITMAP
003FC0
00FFE0
03E060
038000
070000
070000
FFFE00
FFFE00
0E0000
0E0000
0E0000
FFFE00
FFFE00
070000
070000
038020
03E0E0
01FFE0
003F80
ENDCHAR
STARTCHAR uni20AD
ENCODING 8365
SWIDTH 653 0
DWIDTH 17 0
BBX 14 19 2 0
BITMAP
E038
E070
E0E0
E0C0
E180
E380
E700
EE00
FFFC
FFFC
EE00
EF00
E780
E3C0
E1E0
E0E0
E0F0
E078
E03C
ENDCHAR
STARTCHAR uni2103
ENCODING 8451
SWIDTH 955 0
DWIDTH 25 0
BBX 21 19 2 0
BITMAP
600FF0
903FF8
90F818
90E000
61C000
01C000
038000
038000
038000
038000
038000
038000
038000
01C000
01C000
00E008
00F838
007FF8
000FE0
ENDCHAR
STARTCHAR uni2109
ENCODING 8457
SWIDTH 799 0
DWIDTH 21 0
BBX 18 19 2 0
BITMAP
61FFC0
91FFC0
91C000
91C000
61C000
01C000
01C000
01C000
01FF80
01FF80
01C000
01C000
01C000
01C000
01C000
01C000
01C000
01C000
01C000
ENDCHAR
STARTCHAR trademark
ENCODING 8482
SWIDTH 807 0
DWIDTH 21 0
BBX 20 10 0 9
BITMAP
FF3870
FF3870
183CF0
183CF0
1837F0
1837B0
1837B0
183330
183330
183030
ENDCHAR
STARTCHAR uni212A
ENCODING 8490
SWIDTH 653 0
DWIDTH 17 0
BBX 14 19 2 0
BITMAP
E038
E070
E0E0
E0C0
E180
E380
E700
EE00
EC00
FE00
EE00
EF00
E780
E3C0
E1E0
E0E0
E0F0
E078
E03C
ENDCHAR
STARTCHAR uni212B
ENCODING 8491
SWIDTH 690 0
DWIDTH 18 0
BBX 17 24 0 0
BITMAP
00C000
012000
012000
00C000
000000
01C000
01E000
03E000
03E000
037000
067000
067000
063800
0C3800
0C3C00
1C1C00
181C00
1FFE00
3FFE00
300E00
700700
600700
600380
C00380
ENDCHAR
STARTCHAR uni2132
ENCODING 8498
SWIDTH 536 0
DWIDTH 14 0
BBX 11 19 2 0
BITMAP
00E0
00E0
00E0
00E0
00E0
00E0
00E0
00E0
00E0
7FE0
7FE0
00E0
00E0
00E0
00E0
00E0
00E0
FFE0
FFE0
ENDCHAR
STARTCHAR universal
ENCODING 8704
SWIDTH 690 0
DWIDTH 18 0
BBX 17 19 0 0
BITMAP
C00380
600380
600700
700700
300E00
3FFE00
1FFE00
181C00
1C1C00
0C3C00
0C3800
063800
067000
067000
037000
03E000
03E000
01E000
01C000
ENDCHAR
STARTCHAR existential
ENCODING 8707
SWIDTH 542 0
DWIDTH 14 0
BBX 11 19 2 0
BITMAP
7FE0
7FE0
00E0
00E0
00E0
00E0
00E0
00E0
3FE0
3FE0
00E0
00E0
00E0
00E0
00E0
00E0
00E0
FFE0
FFE0
ENDCHAR
STARTCHAR uni2204
ENCODING 8708
SWIDTH 542 0
DWIDTH 14 0
BBX 13 23 1 -2
BITMAP
0018
0030
3FF0
3FF0
0070
00F0
00F0
01F0
01F0
03F0
1FF0
1FF0
0670
0E70
0C70
0C70
1870
1870
3070
7FF0
7FF0
6000
C000
ENDCHAR
STARTCHAR minus
ENCODING 8722
SWIDTH 633 0
DWIDTH 16 0
BBX 15 2 1 7
BITMAP
FFFE
FFFE
ENDCHAR
STARTCHAR fraction
ENCODING 8725
SWIDTH 36 0
DWIDTH 1 0
BBX 16 19 -7 0
BITMAP
0007
000E
000C
001C
0038
0030
0060
00E0
01C0
0180
0380
0700
0600
0C00
1C00
3800
3000
7000
E000
ENDCHAR
STARTCHAR periodcentered
ENCODING 8729
SWIDTH 316 0
DWIDTH 16 0
BBX 3 3 7 7
BITMAP
E0
E0
E0
ENDCHAR
STARTCHAR uni2236
ENCODING 8758
SWIDTH 316 0
DWIDTH 8 0
BBX 3 14 3 0
BITMAP
E0
E0
E0
00
00
00
00
00
00
00
00
E0
E0
E0
ENDCHAR
STARTCHAR uni2259
ENCODING 8793
SWIDTH 633 0
DWIDTH 16 0
BBX 15 12 1 4
BITMAP
03C0
03C0
0660
0C30
0000
FFFE
FFFE
0000
0000
0000
FFFE
FFFE
ENDCHAR
STARTCHAR uni225A
ENCODING 8794
SWIDTH 633 0
DWIDTH 16 0
BBX 15 12 1 4
BITMAP
0C30
0660
03C0
03C0
0000
FFFE
FFFE
0000
0000
0000
FFFE
FFFE
ENDCHAR
STARTCHAR notequal
ENCODING 8800
SWIDTH 633 0
DWIDTH 16 0
BBX 15 23 1 -4
BITMAP
000C
0018
0018
0030
0030
0060
0060
00C0
FFFE
FFFE
0180
0380
0300
FFFE
FFFE
0600
0C00
0C00
1800
1800
3000
3000
6000
ENDCHAR
STARTCHAR equivalence
ENCODING 8801
SWIDTH 633 0
DWIDTH 16 0
BBX 15 8 0 4
BITMAP
FFFE
FFFE
0000
FFFE
FFFE
0000
FFFE
FFFE
ENDCHAR
STARTCHAR uni2262
ENCODING 8802
SWIDTH 633 0
DWIDTH 16 0
BBX 15 23 0 -3
BITMAP
000C
0018
0018
0030
0030
0060
0060
00C0
FFFE
FFFE
0180
FFFE
FFFE
0700
FFFE
FFFE
0C00
0C00
1800
1800
3000
3000
6000
ENDCHAR
STARTCHAR lessequal
ENCODING 8804
SWIDTH 633 0
DWIDTH 16 0
BBX 15 19 1 -3
BITMAP
0002
000E
003E
00F8
01E0
0780
1E00
F800
7800
1E00
0780
01E0
00F8
003E
000E
0002
0000
FFFE
FFFE
ENDCHAR
STARTCHAR greaterequal
ENCODING 8805
SWIDTH 633 0
DWIDTH 16 0
BBX 15 19 1 -3
BITMAP
8000
E000
F800
3E00
0F00
03C0
00F0
003C
003E
00F0
03C0
0F00
3E00
F800
E000
8000
0000
FFFE
FFFE
ENDCHAR
STARTCHAR uni226E
ENCODING 8814
SWIDTH 633 0
DWIDTH 16 0
BBX 15 23 1 -3
BITMAP
000C
0018
0018
0030
0032
006E
007E
00F8
01E0
07C0
1F80
FB80
7B00
1F00
0780
07E0
0CF8
0C3E
180E
1802
3000
3000
6000
ENDCHAR
STARTCHAR uni226F
ENCODING 8815
SWIDTH 633 0
DWIDTH 16 0
BBX 15 23 1 -3
BITMAP
000C
0018
0018
0030
8030
E060
F860
3EC0
0FC0
03C0
01F0
03BC
033E
07F0
07C0
0F00
3E00
FC00
F800
9800
3000
3000
6000
ENDCHAR
STARTCHAR uni2270
ENCODING 8816
SWIDTH 633 0
DWIDTH 16 0
BBX 15 23 1 -5
BITMAP
000C
0018
001A
003E
003E
00F8
01E0
07C0
1EC0
F9C0
7980
1F80
0780
07E0
06F8
063E
0C0E
0C02
1800
FFFE
FFFE
3000
6000
ENDCHAR
STARTCHAR uni2271
ENCODING 8817
SWIDTH 633 0
DWIDTH 16 0
BBX 15 23 1 -5
BITMAP
000C
0018
8018
E030
F830
3E60
0F60
03C0
00F0
01FC
01BE
03F0
03C0
0F00
3E00
FE00
EC00
8C00
1800
FFFE
FFFE
3000
6000
ENDCHAR
STARTCHAR fi
ENCODING -1
SWIDTH 645 0
DWIDTH 17 0
BBX 13 20 1 0
BITMAP
0F80
1FB8
38B8
3838
3800
3800
FFF8
FFF8
3838
3838
3838
3838
3838
3838
3838
3838
3838
3838
3838
3838
ENDCHAR
STARTCHAR fl
ENCODING -1
SWIDTH 645 0
DWIDTH 17 0
BBX 13 20 1 0
BITMAP
0FF8
1FF8
3838
3838
3838
3838
FE38
FE38
3838
3838
3838
3838
3838
3838
3838
3838
3838
3838
3838
3838
ENDCHAR
ENDFONT
